<?xml version="1.0" encoding="UTF-8"?>
<svg version="1.1" xmlns="http://www.w3.org/2000/svg" width="338" height="338">
<path d="M0 0 C111.54 0 223.08 0 338 0 C338 111.54 338 223.08 338 338 C226.46 338 114.92 338 0 338 C0 226.46 0 114.92 0 0 Z " fill="#FCE6D8" transform="translate(0,0)"/>
<path d="M0 0 C42.9 0 85.8 0 130 0 C130 111.54 130 223.08 130 338 C54.43 338 -21.14 338 -99 338 C-99 337.34 -99 336.68 -99 336 C-99.66 336 -100.32 336 -101 336 C-107.71849972 325.75428793 -107.6000953 313.32449901 -105.58398438 301.57568359 C-104.55446916 296.86634711 -103.17670699 292.27259862 -101.77490234 287.66308594 C-100.24999811 282.42248879 -98.99072255 277.11167306 -97.6875 271.8125 C-97.17096505 269.73557952 -96.65407209 267.65874802 -96.13671875 265.58203125 C-95.7576409 264.05473008 -95.37866435 262.52740374 -95 261 C-94.23864746 261.30558838 -93.47729492 261.61117676 -92.69287109 261.92602539 C-88.59733819 263.55941154 -84.47225798 265.11497578 -80.3515625 266.68359375 C-78.05006082 267.58756352 -75.77022426 268.54809714 -73.51171875 269.5546875 C-53.79180333 277.67078172 -25.08171764 277.01708923 -5.28515625 269.23046875 C2.35756832 266.01557844 9.74467425 262.2577536 16.93359375 258.12890625 C19 257 19 257 22 256 C22 255.34 22 254.68 22 254 C23.97744989 252.63344605 25.98198797 251.30591165 28 250 C36.06107904 243.50406478 42.13536738 236.50081402 48 228 C48.68320312 227.01386719 49.36640625 226.02773437 50.0703125 225.01171875 C64.984807 201.73423846 69.00382213 171.44141275 63.3125 144.625 C60.94179479 134.40770018 56.78567941 125.21707654 51.91796875 115.9609375 C51 114 51 114 51 112 C50.34 112 49.68 112 49 112 C47.8515625 110.42578125 47.8515625 110.42578125 46.625 108.3125 C42.88724464 102.10476596 38.46383261 96.8986114 32.88891602 92.23339844 C30.43935166 89.33710598 30.42799149 87.58904711 30.27734375 83.828125 C30.21587158 82.61423096 30.15439941 81.40033691 30.09106445 80.1496582 C30.04038818 78.862771 29.98971191 77.57588379 29.9375 76.25 C28.75600357 55.02075783 25.43470374 34.82085884 13 17 C12.51789063 16.3090625 12.03578125 15.618125 11.5390625 14.90625 C8.38411413 10.56610939 4.9172821 6.54487263 1.3203125 2.56640625 C0 1 0 1 0 0 Z " fill="#A69BE9" transform="translate(208,0)"/>
<path d="M0 0 C0.33 0 0.66 0 1 0 C1 60.39 1 120.78 1 183 C-28.019375 183.12375 -28.019375 183.12375 -57.625 183.25 C-63.73080566 183.28641602 -69.83661133 183.32283203 -76.12744141 183.36035156 C-83.59057617 183.37841797 -83.59057617 183.37841797 -87.08578491 183.3817749 C-89.52388428 183.38791221 -91.96197159 183.40197021 -94.3999939 183.42230225 C-98.09581557 183.4515797 -101.79089615 183.45562413 -105.48681641 183.45410156 C-106.57069452 183.468494 -107.65457264 183.48288643 -108.77129555 183.497715 C-114.83854994 183.4642529 -118.40816016 183.0958511 -123 179 C-127.2123505 173.42148176 -128.6570335 168.9596882 -128 162 C-125.96286172 152.40128067 -120.690592 144.04970934 -113.515625 137.47265625 C-111.76438657 135.87429031 -111.76438657 135.87429031 -110 133 C-109.34 133 -108.68 133 -108 133 C-108 132.34 -108 131.68 -108 131 C-106.390625 129.4140625 -106.390625 129.4140625 -104.25 127.625 C-101.93096298 125.66242273 -99.74780716 123.7411705 -97.625 121.5625 C-96 120 -96 120 -94 120 C-94 119.34 -94 118.68 -94 118 C-92.57008411 116.73376779 -91.07605731 115.53996684 -89.5625 114.375 C-83.24549857 109.35273646 -77.45646436 103.84875253 -71.66430664 98.23388672 C-70.95910889 97.55729004 -70.25391113 96.88069336 -69.52734375 96.18359375 C-68.89562256 95.57056396 -68.26390137 94.95753418 -67.61303711 94.32592773 C-66 93 -66 93 -64 93 C-63.505 91.515 -63.505 91.515 -63 90 C-61.58972499 88.82477083 -60.17544775 87.65390597 -58.73828125 86.51171875 C-56.14047419 84.25250227 -54.00590027 81.64716216 -51.78125 79.02734375 C-50.11995201 77.13652432 -48.38812955 75.41769892 -46.5625 73.6875 C-42.69503506 69.9250341 -39.74070146 65.59988445 -36.69921875 61.16015625 C-36.13847656 60.44730469 -35.57773437 59.73445313 -35 59 C-34.34 59 -33.68 59 -33 59 C-32.67 57.68 -32.34 56.36 -32 55 C-31.34 55 -30.68 55 -30 55 C-29.74734375 54.28199219 -29.4946875 53.56398437 -29.234375 52.82421875 C-27.89903983 49.7690057 -26.26917464 47.46168843 -24.25 44.8125 C-18.87226439 37.55790548 -14.38775544 30.03594008 -10.4296875 21.92578125 C-9.28392971 19.58104741 -8.12110133 17.24765388 -6.9453125 14.91796875 C-6.40269775 13.84119873 -6.40269775 13.84119873 -5.84912109 12.74267578 C-5.1265951 11.30950006 -4.4029936 9.87686595 -3.67822266 8.44482422 C-2.27672945 5.65475792 -0.9888568 2.96657041 0 0 Z " fill="#A69BE9" transform="translate(337,155)"/>
<path d="M0 0 C0.33 0 0.66 0 1 0 C1.94634374 19.76766477 2.38916394 36.19039026 -9.140625 53.1484375 C-11.02653874 55.83326314 -11.02653874 55.83326314 -11.95092773 58.40332031 C-12.97850689 60.94679992 -14.176511 63.08608085 -15.64453125 65.3984375 C-16.15693359 66.20796875 -16.66933594 67.0175 -17.19726562 67.8515625 C-17.99680664 69.10066406 -17.99680664 69.10066406 -18.8125 70.375 C-19.59463867 71.6125 -19.59463867 71.6125 -20.39257812 72.875 C-23.45322895 77.68950692 -26.51169115 82.48285311 -30 87 C-30.66 87 -31.32 87 -32 87 C-32.33 88.32 -32.66 89.64 -33 91 C-33.66 91 -34.32 91 -35 91 C-35.19851563 91.680625 -35.39703125 92.36125 -35.6015625 93.0625 C-37.51324726 97.07810597 -40.29938743 99.82954475 -43.375 103 C-44.53023805 104.20681117 -45.68391776 105.41511626 -46.8359375 106.625 C-47.38217773 107.19605469 -47.92841797 107.76710938 -48.49121094 108.35546875 C-49.83233326 109.81724868 -51.06969522 111.37271468 -52.2890625 112.9375 C-52.85367188 113.618125 -53.41828125 114.29875 -54 115 C-54.66 115 -55.32 115 -56 115 C-56.3403125 115.86625 -56.3403125 115.86625 -56.6875 116.75 C-58.34761639 119.59591381 -60.39187957 120.99841921 -63 123 C-65.23392599 125.17513847 -67.41219455 127.39775215 -69.58984375 129.62890625 C-73.88012638 133.97756008 -78.35542116 138.03373694 -83 142 C-83.58394531 142.51175781 -84.16789063 143.02351562 -84.76953125 143.55078125 C-88.76285211 147 -88.76285211 147 -91 147 C-91.33 147.99 -91.66 148.98 -92 150 C-92.66 150 -93.32 150 -94 150 C-94 150.66 -94 151.32 -94 152 C-95.609375 153.5859375 -95.609375 153.5859375 -97.75 155.375 C-100.06903702 157.33757727 -102.25219284 159.2588295 -104.375 161.4375 C-106 163 -106 163 -108 163 C-108 163.66 -108 164.32 -108 165 C-109.10756421 166.14217559 -110.22273641 167.27759973 -111.3671875 168.3828125 C-116.39276454 173.36029789 -121.36521435 178.34369942 -124 185 C-124.27585937 185.68835938 -124.55171875 186.37671875 -124.8359375 187.0859375 C-127.32047115 193.7645463 -128.35851415 199.49652236 -125.375 206.25 C-123.248729 210.14306452 -120.81158472 211.83432686 -117 214 C-117 214.33 -117 214.66 -117 215 C-153.63 215 -190.26 215 -228 215 C-228 214.34 -228 213.68 -228 213 C-228.66 213 -229.32 213 -230 213 C-236.71849972 202.75428793 -236.6000953 190.32449901 -234.58398438 178.57568359 C-233.55446916 173.86634711 -232.17670699 169.27259862 -230.77490234 164.66308594 C-229.24999811 159.42248879 -227.99072255 154.11167306 -226.6875 148.8125 C-226.17096505 146.73557952 -225.65407209 144.65874802 -225.13671875 142.58203125 C-224.7576409 141.05473008 -224.37866435 139.52740374 -224 138 C-223.23864746 138.30558838 -222.47729492 138.61117676 -221.69287109 138.92602539 C-217.59733819 140.55941154 -213.47225798 142.11497578 -209.3515625 143.68359375 C-207.05006082 144.58756352 -204.77022426 145.54809714 -202.51171875 146.5546875 C-182.79180333 154.67078172 -154.08171764 154.01708923 -134.28515625 146.23046875 C-126.64243168 143.01557844 -119.25532575 139.2577536 -112.06640625 135.12890625 C-110 134 -110 134 -107 133 C-107 132.34 -107 131.68 -107 131 C-105.02255011 129.63344605 -103.01801203 128.30591165 -101 127 C-91.96225286 119.71702712 -85.20852697 111.59605669 -78.96875 101.81640625 C-77.20651525 99.29543153 -75.93449218 97.88631757 -73.4375 96.1875 C-65.87881658 90.80052786 -58.66081801 85.03036857 -52.33984375 78.21484375 C-51 77 -51 77 -49 77 C-48.731875 76.40058594 -48.46375 75.80117187 -48.1875 75.18359375 C-46.98294983 72.96864788 -45.85458345 71.74321625 -44 70.0625 C-31.63830103 57.98116946 -21.29606806 41.8547786 -13.36328125 26.57421875 C-11.80319186 23.62837661 -10.09419419 20.79317203 -8.375 17.9375 C-5.33998306 12.7873717 -3.07219838 7.59270746 -1 2 C-0.67 1.34 -0.34 0.68 0 0 Z " fill="#A69AE9" transform="translate(337,123)"/>
<path d="M0 0 C3.47537413 3.18315048 5.36344675 6.60506263 7 11 C7 11.66 7 12.32 7 13 C7.99 13.33 8.98 13.66 10 14 C11.76171875 16.00390625 11.76171875 16.00390625 13.6875 18.5625 C17.93939926 24.02810899 22.43481301 29.5812159 28.2109375 33.5 C30 35 30 35 30.375 38.5625 C29.92104121 47.06311974 27.56872984 54.72258446 24.25 62.5 C21.45118092 69.26482708 18.85468665 76.04617535 16.5625 83 C16.3159668 83.74701172 16.06943359 84.49402344 15.81542969 85.26367188 C13.58326963 92.06260183 13.58326963 92.06260183 12.8671875 99.1171875 C12.86589844 99.88933594 12.86460938 100.66148437 12.86328125 101.45703125 C12.86714844 102.25496094 12.87101562 103.05289063 12.875 103.875 C12.87113281 104.66519531 12.86726563 105.45539063 12.86328125 106.26953125 C12.86457031 107.04425781 12.86585937 107.81898438 12.8671875 108.6171875 C12.86887939 109.66302002 12.86887939 109.66302002 12.87060547 110.72998047 C13.02894148 113.50773181 13.54259921 116.25559527 14 119 C-15.04 119 -44.08 119 -74 119 C-74.40108809 96.61037132 -74.40108809 96.61037132 -74.48828125 87.04296875 C-74.54799171 80.52211829 -74.61850741 74.00267607 -74.75439453 67.48291016 C-74.86330612 62.22431055 -74.92289378 56.9672212 -74.94877243 51.70758057 C-74.96720552 49.70436833 -75.00320471 47.70123596 -75.05730057 45.69866943 C-75.46406209 30.01241926 -75.46406209 30.01241926 -71.83685303 25.0266571 C-69.30377845 22.96366165 -66.9164035 21.45366894 -64 20 C-62.76791957 19.21942403 -61.53835768 18.43484384 -60.3125 17.64453125 C-56.88267529 15.74761169 -53.4501965 13.8596519 -50 12 C-48.78763672 11.30583984 -48.78763672 11.30583984 -47.55078125 10.59765625 C-34.22209996 3.31689317 -15.23139815 -2.9968471 0 0 Z " fill="#A69BEA" transform="translate(74,219)"/>
<path d="M0 0 C0.87467422 -0.01149078 1.74934845 -0.02298157 2.65052795 -0.03482056 C3.61259659 -0.0422226 4.57466522 -0.04962463 5.56588745 -0.05725098 C7.08323738 -0.07433609 7.08323738 -0.07433609 8.63124084 -0.09176636 C19.22023606 -0.20244871 29.80993163 -0.24985536 40.39938354 -0.29260254 C45.42414508 -0.31487592 50.44816372 -0.35664098 55.47262573 -0.41564941 C61.53747389 -0.48674004 67.60162288 -0.52343567 73.6668663 -0.53572083 C75.97694271 -0.54612164 78.28699797 -0.56854609 80.59683609 -0.60331726 C83.83604453 -0.64955312 87.07251556 -0.65151939 90.3119812 -0.64318848 C91.26190445 -0.66678436 92.2118277 -0.69038025 93.1905365 -0.71469116 C99.55387331 -0.63569975 102.68624688 0.95019631 107.1809063 5.4578476 C107.72415613 6.02198616 108.26740597 6.58612473 108.82711792 7.1673584 C110.17483276 8.21536621 110.17483276 8.21536621 111.54977417 9.2845459 C118.91790189 15.37620553 124.29799017 23.8428722 128.82711792 32.1673584 C129.32985229 33.05681152 129.83258667 33.94626465 130.35055542 34.8626709 C136.04242767 45.46631107 141.00329877 58.8593274 140.92477417 71.03063965 C140.92155151 71.91687012 140.91832886 72.80310059 140.91500854 73.71618652 C140.90662964 74.62819824 140.89825073 75.54020996 140.88961792 76.4798584 C140.8851062 77.41120605 140.88059448 78.34255371 140.87594604 79.30212402 C140.86421026 81.59060213 140.84779155 83.87894648 140.82711792 86.1673584 C132.71142941 82.13083381 128.97037127 78.74056948 125.99118042 70.1673584 C122.50887532 61.19282714 114.79926711 53.82327374 106.13961792 49.8548584 C96.28444562 45.70623347 83.88585359 45.6359919 73.81149292 49.2532959 C68.9480816 51.49352867 66.20082128 54.41995169 63.82711792 59.1673584 C63.47119864 60.49484111 63.1336696 61.82761404 62.82711792 63.1673584 C61.81133667 63.33751465 60.79555542 63.5076709 59.74899292 63.6829834 C48.53513734 65.62923495 38.17550724 68.48773019 27.80758667 73.2845459 C25.20763691 74.44349786 22.54582876 75.33083199 19.82711792 76.1673584 C19.82711792 76.8273584 19.82711792 77.4873584 19.82711792 78.1673584 C19.22383667 78.49349121 18.62055542 78.81962402 17.99899292 79.15563965 C17.19977417 79.59263184 16.40055542 80.02962402 15.57711792 80.4798584 C14.39375854 81.12374512 14.39375854 81.12374512 13.18649292 81.78063965 C10.92984658 83.1069798 8.88713195 84.55620064 6.82711792 86.1673584 C-2.63113139 82.56820158 -10.37474932 64.22325955 -14.52835083 55.23376465 C-20.32435449 41.15177741 -19.52028193 25.93234849 -13.86038208 11.9173584 C-6.59081598 0.07065809 -6.59081598 0.07065809 0 0 Z " fill="#A69BE9" transform="translate(94.17288208007813,-0.1673583984375)"/>
<path d="M0 0 C19.61184879 4.35818862 36.50327323 14.34727485 47.578125 31.5078125 C54.15458103 43.03467774 57.57385681 54.39379313 57.4375 67.6875 C57.42992676 68.73260742 57.42235352 69.77771484 57.41455078 70.85449219 C56.85343894 97.46839531 42.25043575 119.38732619 23.6796875 137.58203125 C19.05500486 141.75503206 14.06331158 145.38233153 9 149 C8.25878906 149.55171875 7.51757812 150.1034375 6.75390625 150.671875 C2.25719803 154 2.25719803 154 0 154 C0 103.18 0 52.36 0 0 Z " fill="#A69BE9" transform="translate(0,64)"/>
<path d="M0 0 C24.75 0 49.5 0 75 0 C74.01 3.63 73.02 7.26 72 11 C69.12001179 28.80356347 71.91281093 45.48203556 76.9375 62.5625 C77.17807129 63.38322998 77.41864258 64.20395996 77.66650391 65.04956055 C79.08876039 69.67260194 80.802766 73.91566206 83.08007812 78.18505859 C84.37286597 80.73563844 85.32480983 83.36833665 86.25 86.0703125 C86.94354699 88.0224119 86.94354699 88.0224119 88.0625 89.7421875 C89.0625 91.4375 89.0625 91.4375 90 95 C88.52106223 98.40155687 86.32185614 101.12888757 84 104 C76.25682012 113.91048213 71.31790661 124.20397977 67 136 C66.33957724 137.66915068 65.67512357 139.33674103 65 141 C64.67 141 64.34 141 64 141 C63.93683594 139.72769531 63.87367187 138.45539063 63.80859375 137.14453125 C61.80815877 105.84343071 47.99715957 77.87966189 24.625 56.9375 C21.90151524 54.62870222 19.07102956 52.8234238 16 51 C16 50.34 16 49.68 16 49 C15.21625 48.773125 14.4325 48.54625 13.625 48.3125 C8.91857225 46.60844857 4.4769859 44.23849295 0 42 C0 28.14 0 14.28 0 0 Z " fill="#A69BE9" transform="translate(0,0)"/>
<path d="M0 0 C10.71428571 -0.28571429 10.71428571 -0.28571429 15 2 C15.28571429 9.42857143 15.28571429 9.42857143 13 13 C14.44197868 14.44197868 16.17691571 15.11786244 18 16 C18 16.66 18 17.32 18 18 C19.98 17.67 21.96 17.34 24 17 C24.495 18.485 24.495 18.485 25 20 C24.505 20.495 24.505 20.495 24 21 C25.32 21.99 26.64 22.98 28 24 C28.66 23.67 29.32 23.34 30 23 C32.90882009 22.84798126 35.77766672 22.76851923 38.6875 22.75 C39.47833984 22.729375 40.26917969 22.70875 41.08398438 22.6875 C46.46416031 22.65195796 50.29967915 23.29578943 55 26 C56.12109375 27.90234375 56.12109375 27.90234375 56.4375 29.9375 C56.55996094 30.60652344 56.68242187 31.27554688 56.80859375 31.96484375 C56.99705915 33.96873093 57 35.98726976 57 38 C50.5 41 50.5 41 46 41 C46 41.66 46 42.32 46 43 C44.38542921 44.43581474 42.70780925 45.80144783 41 47.125 C40.071875 47.84945312 39.14375 48.57390625 38.1875 49.3203125 C37.465625 49.87460938 36.74375 50.42890625 36 51 C36.30164063 51.78890625 36.30164063 51.78890625 36.609375 52.59375 C37.15227175 55.937994 36.26772797 58.2845696 35.25 61.5 C34.90453125 62.6240625 34.5590625 63.748125 34.203125 64.90625 C33.08159924 67.79017339 32.1601469 69.79718353 30 72 C24.04477612 72.52238806 24.04477612 72.52238806 21 71 C22.14421482 80.91060785 22.14421482 80.91060785 24.0625 90.6875 C25.33038445 96.09847143 25.71459562 101.45839834 26 107 C26.09087891 108.1456543 26.09087891 108.1456543 26.18359375 109.31445312 C27.49102205 126.48445538 27.49102205 126.48445538 22.0625 133.1875 C20.41613932 134.83386068 18.72750773 136.43899904 17 138 C15.35313876 139.72818772 13.70725279 141.45730551 12.0625 143.1875 C9.84765625 145.41796875 9.84765625 145.41796875 8 147 C7.34 147 6.68 147 6 147 C6 148.13179687 6 149.26359375 6 150.4296875 C6 155.28645833 6 160.14322917 6 165 C7.43697782 168.59244455 8.85068537 171.77602805 11 175 C10.625 177.1875 10.625 177.1875 10 179 C3.66141014 179.60367522 0.66147455 177.15288109 -4.10546875 173.296875 C-13.20881363 162.26024244 -8.71944197 131.10317321 -9 117 C-9.99 117.99 -10.98 118.98 -12 120 C-11.88535985 117.29087219 -11.75862846 114.58320339 -11.625 111.875 C-11.57859375 110.73417969 -11.57859375 110.73417969 -11.53125 109.5703125 C-11.2999254 105.09803698 -10.89280456 101.1332671 -9 97 C-7.515 96.505 -7.515 96.505 -6 96 C-6 95.34 -6 94.68 -6 94 C-8.475 94.99 -8.475 94.99 -11 96 C-11 96.66 -11 97.32 -11 98 C-11.99 98 -12.98 98 -14 98 C-14.25394531 97.27554688 -14.50789062 96.55109375 -14.76953125 95.8046875 C-16.59042384 90.68982068 -18.52197391 85.83805094 -21 81 C-23.33787559 73.20408408 -21.75142345 65.12774521 -20.25 57.3125 C-20.09273437 56.40177734 -19.93546875 55.49105469 -19.7734375 54.55273438 C-18.77064576 49.24179506 -17.63999202 45.18142452 -14 41 C-11.4921875 39.5390625 -11.4921875 39.5390625 -8.875 38.625 C-8.00617188 38.30789062 -7.13734375 37.99078125 -6.2421875 37.6640625 C-4 37 -4 37 -2 37 C3.93774435 48.52960067 3.93774435 48.52960067 5.6875 53.5625 C6.68953384 56.91644504 6.68953384 56.91644504 8.58203125 58.52734375 C10 60 10 60 10 63 C9.01 63 8.02 63 7 63 C7 63.99 7 64.98 7 66 C7.99 66 8.98 66 10 66 C10.05404449 68.75026417 10.09369306 71.49946203 10.125 74.25 C10.14175781 75.02730469 10.15851563 75.80460937 10.17578125 76.60546875 C10.24125068 84.26539225 10.24125068 84.26539225 8 87 C5.875 87.75 5.875 87.75 4 88 C5.77049689 88.05410687 7.54146849 88.09284119 9.3125 88.125 C10.29863281 88.14820313 11.28476563 88.17140625 12.30078125 88.1953125 C15.22406527 88.20682639 15.22406527 88.20682639 18 86 C17.01 86 16.02 86 15 86 C14.46220026 82.81512563 13.94788872 79.62687234 13.4375 76.4375 C13.28603516 75.54224609 13.13457031 74.64699219 12.97851562 73.72460938 C11.18126275 62.31414344 11.18126275 62.31414344 14.0546875 57.078125 C15.56293736 53.76246828 15.20701135 50.32064812 15.125 46.75 C15.11597656 46.00492188 15.10695312 45.25984375 15.09765625 44.4921875 C15.07418358 42.66131941 15.03831525 40.83061762 15 39 C14.34 39 13.68 39 13 39 C13 39.99 13 40.98 13 42 C7.555 42.495 7.555 42.495 2 43 C1.896875 41.783125 1.79375 40.56625 1.6875 39.3125 C1.23780688 35.58930552 0.21617222 33.08337005 -2 30 C-0.02 30.33 1.96 30.66 4 31 C4.33 29.68 4.66 28.36 5 27 C2.36 26.67 -0.28 26.34 -3 26 C-1.6875 24.5 -1.6875 24.5 0 23 C0.99 23 1.98 23 3 23 C2.505 20.525 2.505 20.525 2 18 C2.99 17.67 3.98 17.34 5 17 C5 18.32 5 19.64 5 21 C5.99 21 6.98 21 8 21 C8 19.35 8 17.7 8 16 C4.52674819 14.8422494 1.63932552 14.93133348 -2 15 C-1.67 16.32 -1.34 17.64 -1 19 C-3.375 18.6875 -3.375 18.6875 -6 18 C-8 15 -8 15 -8 11 C-4.535 10.505 -4.535 10.505 -1 10 C-0.67 6.7 -0.34 3.4 0 0 Z " fill="#31302F" transform="translate(158,81)"/>
<path d="M0 0 C3.47537413 3.18315048 5.36344675 6.60506263 7 11 C7 11.66 7 12.32 7 13 C7.99 13.33 8.98 13.66 10 14 C11.76171875 16.00390625 11.76171875 16.00390625 13.6875 18.5625 C17.93939926 24.02810899 22.43481301 29.5812159 28.2109375 33.5 C30 35 30 35 30.375 38.5625 C29.92104121 47.06311974 27.56872984 54.72258446 24.25 62.5 C21.45118092 69.26482708 18.85468665 76.04617535 16.5625 83 C16.3159668 83.74701172 16.06943359 84.49402344 15.81542969 85.26367188 C13.58326963 92.06260183 13.58326963 92.06260183 12.8671875 99.1171875 C12.86589844 99.88933594 12.86460938 100.66148437 12.86328125 101.45703125 C12.86714844 102.25496094 12.87101562 103.05289063 12.875 103.875 C12.87113281 104.66519531 12.86726563 105.45539063 12.86328125 106.26953125 C12.86457031 107.04425781 12.86585937 107.81898438 12.8671875 108.6171875 C12.86887939 109.66302002 12.86887939 109.66302002 12.87060547 110.72998047 C13.02894148 113.50773181 13.54259921 116.25559527 14 119 C-0.52 119 -15.04 119 -30 119 C-30 101.6610342 -30 101.6610342 -27.75 95.0625 C-27.52546143 94.35230713 -27.30092285 93.64211426 -27.06958008 92.91040039 C-25.47717886 88.01949399 -23.56693068 83.46836082 -21 79 C-20.34 79 -19.68 79 -19 79 C-18.93167969 78.32324219 -18.86335938 77.64648438 -18.79296875 76.94921875 C-17.73968055 73.03181682 -15.61070688 70.08976549 -13.3125 66.8125 C-12.39951131 65.47500169 -11.48805201 64.13645812 -10.578125 62.796875 C-10.13533203 62.14783203 -9.69253906 61.49878906 -9.23632812 60.83007812 C-2.84658206 51.37163884 3.48448835 40.87590679 2 29 C0.18744211 22.78551582 -2.42354625 18.51110051 -8 15 C-20.59015082 9.78226971 -31.70021228 12.37194283 -44 17.25 C-53.75322509 21.50988319 -62.43740124 27.10230394 -70.91796875 33.49609375 C-73 35 -73 35 -74 35 C-74.60286086 32.1062679 -74.82147362 30.77510639 -74 28 C-67.71754068 20.88270937 -58.26535379 16.45501607 -50 12 C-48.78763672 11.30583984 -48.78763672 11.30583984 -47.55078125 10.59765625 C-34.22209996 3.31689317 -15.23139815 -2.9968471 0 0 Z " fill="#A69BE9" transform="translate(74,219)"/>
<path d="M0 0 C0.33 0 0.66 0 1 0 C2.42835271 8.43124864 -0.85562809 14.18374136 -4.90234375 21.25390625 C-7.78508789 26.29194905 -9.88808964 31.60365761 -12 37 C-22.52514215 63.85454613 -34.1268424 91.11249472 -61.625 104.25 C-74.151783 110.33886976 -85.28903862 119.19298001 -96 128 C-96.84433594 128.68835938 -97.68867188 129.37671875 -98.55859375 130.0859375 C-104.48021861 135.11470038 -109.22607681 140.89339461 -114 147 C-114.73863281 147.87011719 -115.47726563 148.74023438 -116.23828125 149.63671875 C-118.48204413 152.64664456 -118.47934271 154.32503919 -118 158 C-117.34 158.99 -116.68 159.98 -116 161 C-110.9100085 161.92999845 -106.69425998 160.92585025 -102 159 C-97.3976728 158.56168312 -94.95141896 158.60507138 -90.6875 160.375 C-86.92776503 164.04729928 -86.09648632 167.96001024 -85 173 C-58.68993727 178.50169014 -25.90954702 159.89720789 -3.1875 148.03125 C-1 147 -1 147 1 147 C1 158.88 1 170.76 1 183 C-14.28163885 183.09034577 -29.56315702 183.1640084 -44.8449955 183.20724869 C-51.9408691 183.22786092 -59.03656481 183.25595559 -66.13232422 183.30175781 C-72.97931988 183.34593318 -79.82613054 183.36913385 -86.67325974 183.37950897 C-89.28636968 183.38690336 -91.89946944 183.40134268 -94.51250076 183.42292023 C-98.1708289 183.45192977 -101.82839187 183.45595684 -105.48681641 183.45410156 C-106.5686319 183.46848267 -107.65044739 183.48286377 -108.76504517 183.49768066 C-114.83469186 183.46434303 -118.40625443 183.09755098 -123 179 C-127.2123505 173.42148176 -128.6570335 168.9596882 -128 162 C-125.96286172 152.40128067 -120.690592 144.04970934 -113.515625 137.47265625 C-111.76438657 135.87429031 -111.76438657 135.87429031 -110 133 C-109.34 133 -108.68 133 -108 133 C-108 132.34 -108 131.68 -108 131 C-106.390625 129.4140625 -106.390625 129.4140625 -104.25 127.625 C-101.93096298 125.66242273 -99.74780716 123.7411705 -97.625 121.5625 C-96 120 -96 120 -94 120 C-94 119.34 -94 118.68 -94 118 C-92.57008411 116.73376779 -91.07605731 115.53996684 -89.5625 114.375 C-83.24549857 109.35273646 -77.45646436 103.84875253 -71.66430664 98.23388672 C-70.95910889 97.55729004 -70.25391113 96.88069336 -69.52734375 96.18359375 C-68.89562256 95.57056396 -68.26390137 94.95753418 -67.61303711 94.32592773 C-66 93 -66 93 -64 93 C-63.505 91.515 -63.505 91.515 -63 90 C-61.58972499 88.82477083 -60.17544775 87.65390597 -58.73828125 86.51171875 C-56.14047419 84.25250227 -54.00590027 81.64716216 -51.78125 79.02734375 C-50.11995201 77.13652432 -48.38812955 75.41769892 -46.5625 73.6875 C-42.69503506 69.9250341 -39.74070146 65.59988445 -36.69921875 61.16015625 C-36.13847656 60.44730469 -35.57773437 59.73445313 -35 59 C-34.34 59 -33.68 59 -33 59 C-32.67 57.68 -32.34 56.36 -32 55 C-31.34 55 -30.68 55 -30 55 C-29.74734375 54.28199219 -29.4946875 53.56398437 -29.234375 52.82421875 C-27.89903983 49.7690057 -26.26917464 47.46168843 -24.25 44.8125 C-18.87226439 37.55790548 -14.38775544 30.03594008 -10.4296875 21.92578125 C-9.28392971 19.58104741 -8.12110133 17.24765388 -6.9453125 14.91796875 C-6.40269775 13.84119873 -6.40269775 13.84119873 -5.84912109 12.74267578 C-5.1265951 11.30950006 -4.4029936 9.87686595 -3.67822266 8.44482422 C-2.27672945 5.65475792 -0.9888568 2.96657041 0 0 Z " fill="#FAFAFC" transform="translate(337,155)"/>
<path d="M0 0 C1.14202881 0.45838257 1.14202881 0.45838257 2.30712891 0.92602539 C6.47271071 2.58734854 10.66889213 4.16835575 14.859375 5.765625 C17.14565944 6.66421441 19.39795031 7.65076997 21.625 8.6875 C26.30044501 10.50572861 31.05630462 11.24011916 36 12 C35.01 12.66 34.02 13.32 33 14 C26.49333724 19.82175089 22.5860233 26.74088808 20 35 C19.690625 35.97259766 19.690625 35.97259766 19.375 36.96484375 C17.00375401 45.2806717 18.00894083 53.52290457 19 62 C19.66 62 20.32 62 21 62 C22.29926629 63.91926704 23.37439333 65.9253885 24.48828125 67.95703125 C27.73328084 72.34239245 32.18000706 73.50307855 37.3125 74.6875 C38.38113281 74.93886719 39.44976562 75.19023437 40.55078125 75.44921875 C41.35902344 75.63097656 42.16726562 75.81273437 43 76 C43 76.33 43 76.66 43 77 C27.49 77 11.98 77 -4 77 C-4 76.34 -4 75.68 -4 75 C-4.66 75 -5.32 75 -6 75 C-12.71849972 64.75428793 -12.6000953 52.32449901 -10.58398438 40.57568359 C-9.55446916 35.86634711 -8.17670699 31.27259862 -6.77490234 26.66308594 C-5.24999811 21.42248879 -3.99072255 16.11167306 -2.6875 10.8125 C-2.17096505 8.73557952 -1.65407209 6.65874802 -1.13671875 4.58203125 C-0.7576409 3.05473008 -0.37866435 1.52740374 0 0 Z " fill="#A69AE8" transform="translate(113,261)"/>
<path d="M0 0 C4.14667871 1.38222624 7.55940815 2.66564202 11.375 4.625 C12.24898437 5.07101563 13.12296875 5.51703125 14.0234375 5.9765625 C14.67570313 6.31429687 15.32796875 6.65203125 16 7 C16 7.66 16 8.32 16 9 C16.70769531 9.22816406 17.41539063 9.45632812 18.14453125 9.69140625 C38.28213552 18.91999371 50.77089981 43.63784002 58.2734375 63.17578125 C65.83097124 83.80978187 67.20243698 106.78794166 58.19921875 127.26171875 C47.47958337 150.17048836 29.53047705 167.10013131 8.8125 181.08984375 C7.0892507 182.26021723 5.3929271 183.47322175 3.75 184.75390625 C2 186 2 186 0 186 C-1.14939222 182.32034851 -1.27387147 179.66422488 0 176 C3.35449918 172.64790807 7.60837626 170.35930938 11.60546875 167.859375 C31.94139681 155.06035347 49.33203571 132.00155131 54.96533203 108.56396484 C58.08973787 92.91185713 57.33383628 76.67226435 51 62 C50.5771875 61.01128906 50.154375 60.02257812 49.71875 59.00390625 C43.42954468 46.11469186 32.91089992 37.44036321 21 30 C20.22011719 29.47921875 19.44023437 28.9584375 18.63671875 28.421875 C15.12051476 26.52572944 11.50631664 25.44260171 7.6875 24.3125 C5.150625 23.549375 2.61375 22.78625 0 22 C0 14.74 0 7.48 0 0 Z " fill="#FAF9FC" transform="translate(0,42)"/>
<path d="M0 0 C10.67934157 5.33967078 16.10541045 14.41081312 20.1875 25.3984375 C26.95827834 47.07794892 23.33907343 72.80347831 13.5546875 92.98046875 C12.13809359 95.41499762 10.63188714 97.70455591 9 100 C7.95005859 101.50626953 7.95005859 101.50626953 6.87890625 103.04296875 C4.96378916 105.73642219 3.059227 108.41490835 1 111 C0.67 111 0.34 111 0 111 C0 74.37 0 37.74 0 0 Z " fill="#A69BE8" transform="translate(0,88)"/>
<path d="M0 0 C0.33 0 0.66 0 1 0 C1.00410889 0.61705811 1.00821777 1.23411621 1.01245117 1.86987305 C1.14439169 13.29170002 1.62639754 24.36060482 4.3125 35.5 C4.51319092 36.34006592 4.71388184 37.18013184 4.9206543 38.0456543 C6.32649074 43.45167008 8.43101477 48.04826727 11 53 C11 53.66 11 54.32 11 55 C10.030625 55.09796875 9.06125 55.1959375 8.0625 55.296875 C-15.89324572 57.8875014 -37.44603577 65.95109213 -57.22265625 79.8984375 C-59 81 -59 81 -61 81 C-62.0648946 76.34848124 -62.31549091 72.61928107 -61 68 C-57.18292548 63.7570426 -51.87818527 61.06125105 -47 58.20947266 C-42.66407799 55.5873831 -38.84861922 52.27723718 -35 49 C-34.18273437 48.30519531 -33.36546875 47.61039063 -32.5234375 46.89453125 C-17.15488792 33.45299795 -7.4019405 18.83866424 0 0 Z " fill="#A79CE9" transform="translate(61,160)"/>
<path d="M0 0 C0.33 0 0.66 0 1 0 C2.42835271 8.43124864 -0.85562809 14.18374136 -4.90234375 21.25390625 C-7.78508789 26.29194905 -9.88808964 31.60365761 -12 37 C-22.52514215 63.85454613 -34.1268424 91.11249472 -61.625 104.25 C-78.63497134 112.51800465 -94.78572549 125.58117015 -108 139 C-108.99 138.67 -109.98 138.34 -111 138 C-114.50372484 141.23164135 -114.50372484 141.23164135 -117.0625 145.1875 C-118.27341861 147.52860931 -119.60177814 148.04071126 -122 149 C-120.66937533 145.02198667 -119.04903295 142.73346839 -116 139.875 C-113.60981756 137.61662909 -111.83839255 135.75758882 -110 133 C-109.34 133 -108.68 133 -108 133 C-108 132.34 -108 131.68 -108 131 C-106.390625 129.4140625 -106.390625 129.4140625 -104.25 127.625 C-101.93096298 125.66242273 -99.74780716 123.7411705 -97.625 121.5625 C-96 120 -96 120 -94 120 C-94 119.34 -94 118.68 -94 118 C-92.57008411 116.73376779 -91.07605731 115.53996684 -89.5625 114.375 C-83.24549857 109.35273646 -77.45646436 103.84875253 -71.66430664 98.23388672 C-70.95910889 97.55729004 -70.25391113 96.88069336 -69.52734375 96.18359375 C-68.89562256 95.57056396 -68.26390137 94.95753418 -67.61303711 94.32592773 C-66 93 -66 93 -64 93 C-63.505 91.515 -63.505 91.515 -63 90 C-61.58972499 88.82477083 -60.17544775 87.65390597 -58.73828125 86.51171875 C-56.14047419 84.25250227 -54.00590027 81.64716216 -51.78125 79.02734375 C-50.11995201 77.13652432 -48.38812955 75.41769892 -46.5625 73.6875 C-42.69503506 69.9250341 -39.74070146 65.59988445 -36.69921875 61.16015625 C-36.13847656 60.44730469 -35.57773437 59.73445313 -35 59 C-34.34 59 -33.68 59 -33 59 C-32.67 57.68 -32.34 56.36 -32 55 C-31.34 55 -30.68 55 -30 55 C-29.74734375 54.28199219 -29.4946875 53.56398437 -29.234375 52.82421875 C-27.89903983 49.7690057 -26.26917464 47.46168843 -24.25 44.8125 C-18.87226439 37.55790548 -14.38775544 30.03594008 -10.4296875 21.92578125 C-9.28392971 19.58104741 -8.12110133 17.24765388 -6.9453125 14.91796875 C-6.40269775 13.84119873 -6.40269775 13.84119873 -5.84912109 12.74267578 C-5.1265951 11.30950006 -4.4029936 9.87686595 -3.67822266 8.44482422 C-2.27672945 5.65475792 -0.9888568 2.96657041 0 0 Z " fill="#F9F8FB" transform="translate(337,155)"/>
<path d="M0 0 C5.93774435 11.52960067 5.93774435 11.52960067 7.6875 16.5625 C8.68953384 19.91644504 8.68953384 19.91644504 10.58203125 21.52734375 C12 23 12 23 12 26 C11.01 26 10.02 26 9 26 C9 26.99 9 27.98 9 29 C9.99 29 10.98 29 12 29 C12.05404449 31.75026417 12.09369306 34.49946203 12.125 37.25 C12.14175781 38.02730469 12.15851563 38.80460937 12.17578125 39.60546875 C12.24150353 47.29497568 12.24150353 47.29497568 10 50 C7.9765625 50.79296875 7.9765625 50.79296875 5.625 51.1875 C4.85414063 51.32542969 4.08328125 51.46335938 3.2890625 51.60546875 C2.53367188 51.73566406 1.77828125 51.86585938 1 52 C-0.33623201 52.32151658 -1.67068682 52.65097942 -3 53 C-3.0928125 53.928125 -3.0928125 53.928125 -3.1875 54.875 C-4 57 -4 57 -6.5625 58.25 C-7.366875 58.4975 -8.17125 58.745 -9 59 C-9 59.66 -9 60.32 -9 61 C-9.99 61 -10.98 61 -12 61 C-12.25394531 60.27554688 -12.50789062 59.55109375 -12.76953125 58.8046875 C-14.59042384 53.68982068 -16.52197391 48.83805094 -19 44 C-21.33787559 36.20408408 -19.75142345 28.12774521 -18.25 20.3125 C-18.09273437 19.40177734 -17.93546875 18.49105469 -17.7734375 17.55273438 C-16.77064576 12.24179506 -15.63999202 8.18142452 -12 4 C-9.4921875 2.5390625 -9.4921875 2.5390625 -6.875 1.625 C-6.00617188 1.30789062 -5.13734375 0.99078125 -4.2421875 0.6640625 C-2 0 -2 0 0 0 Z " fill="#2F2E2E" transform="translate(156,118)"/>
<path d="M0 0 C10.71428571 -0.28571429 10.71428571 -0.28571429 15 2 C15.28571429 9.42857143 15.28571429 9.42857143 13 13 C14.44197868 14.44197868 16.17691571 15.11786244 18 16 C18 16.66 18 17.32 18 18 C19.98 17.67 21.96 17.34 24 17 C24.495 18.485 24.495 18.485 25 20 C24.505 20.495 24.505 20.495 24 21 C25.32 21.99 26.64 22.98 28 24 C28.66 23.67 29.32 23.34 30 23 C32.90882009 22.84798126 35.77766672 22.76851923 38.6875 22.75 C39.47833984 22.729375 40.26917969 22.70875 41.08398438 22.6875 C46.46653718 22.65194226 50.2823151 23.33054075 55 26 C56.25 29.375 56.25 29.375 56 33 C53.33095415 36.50788883 51.30841389 38.29037889 47 39 C44.31915294 39.14521255 41.68098674 39.23057256 39 39.25 C38.2884375 39.270625 37.576875 39.29125 36.84375 39.3125 C33.60161827 39.33669501 31.35992447 39.20020799 28.5 37.609375 C27 36 27 36 27 34 C26.34 34 25.68 34 25 34 C25.40311361 36.51686936 25.40311361 36.51686936 27 39 C29.66525288 40.08241903 32.1407915 40.49272107 35 41 C34.01 41.495 34.01 41.495 33 42 C32.34227572 45.02934491 32.34227572 45.02934491 32 48 C31.34 48 30.68 48 30 48 C29.67 50.31 29.34 52.62 29 55 C27.95100201 53.06338833 27.06076598 51.22296087 26.48046875 49.09375 C25.54231748 45.84956238 24.87789606 43.64895807 22.09765625 41.59375 C18.22907832 39.60874344 18.22907832 39.60874344 14 39 C13.67 39.99 13.34 40.98 13 42 C7.555 42.495 7.555 42.495 2 43 C1.896875 41.783125 1.79375 40.56625 1.6875 39.3125 C1.23780688 35.58930552 0.21617222 33.08337005 -2 30 C-0.02 30.33 1.96 30.66 4 31 C4.33 29.68 4.66 28.36 5 27 C2.36 26.67 -0.28 26.34 -3 26 C-1.6875 24.5 -1.6875 24.5 0 23 C0.99 23 1.98 23 3 23 C2.67 21.35 2.34 19.7 2 18 C2.99 17.67 3.98 17.34 5 17 C5 18.32 5 19.64 5 21 C5.99 21 6.98 21 8 21 C8 19.35 8 17.7 8 16 C4.52674819 14.8422494 1.63932552 14.93133348 -2 15 C-1.67 16.32 -1.34 17.64 -1 19 C-3.375 18.6875 -3.375 18.6875 -6 18 C-8 15 -8 15 -8 11 C-4.535 10.505 -4.535 10.505 -1 10 C-0.67 6.7 -0.34 3.4 0 0 Z " fill="#F7E2D5" transform="translate(158,81)"/>
<path d="M0 0 C0 10.89 0 21.78 0 33 C-28.38 33 -56.76 33 -86 33 C-86 32.67 -86 32.34 -86 32 C-84.95996826 31.81993408 -84.95996826 31.81993408 -83.89892578 31.63623047 C-55.33393246 26.61646061 -27.5093831 18.12862485 -3.63671875 1.03125 C-2 0 -2 0 0 0 Z " fill="#A69BE9" transform="translate(338,305)"/>
<path d="M0 0 C3.45252946 1.24674675 6.29125579 2.49274758 9 5 C10.2627369 12.91874146 6.17351841 22.2930713 4 29.8125 C3.26778738 32.38065618 2.54017835 34.95008307 1.8125 37.51953125 C1.48894531 38.64464111 1.16539063 39.76975098 0.83203125 40.92895508 C-0.84984544 47.13679749 -1.2451187 52.84428441 -1.3125 59.25 C-1.35600586 60.60544922 -1.35600586 60.60544922 -1.40039062 61.98828125 C-1.45498114 67.82526665 -0.54390992 72.01230167 2.13598633 77.21386719 C3 79 3 79 3 81 C3.66 81 4.32 81 5 81 C5 81.66 5 82.32 5 83 C-1.93 83 -8.86 83 -16 83 C-17.8252812 77.52415641 -18.38684238 74.00400944 -18.375 68.4375 C-18.37338867 67.644646 -18.37177734 66.85179199 -18.37011719 66.03491211 C-18.22221415 58.85508961 -16.5878369 52.69423087 -14 46 C-13.71125 45.17371094 -13.4225 44.34742188 -13.125 43.49609375 C-11.54694257 38.99440314 -9.82611872 34.55888285 -8.0390625 30.13671875 C-4.01853992 20.07169351 -0.73328736 10.90764944 0 0 Z " fill="#FBCD50" transform="translate(104,255)"/>
<path d="M0 0 C4.7361901 3.80633259 7.51229399 7.52383686 8.69140625 13.5234375 C10.18177351 28.92389917 0.23186332 41.41457553 -7.84375 53.58984375 C-8.40449219 54.44191406 -8.96523438 55.29398437 -9.54296875 56.171875 C-10.05053711 56.93677246 -10.55810547 57.70166992 -11.08105469 58.48974609 C-12.45575366 60.59906615 -12.45575366 60.59906615 -13.30859375 63.5234375 C-13.96859375 63.5234375 -14.62859375 63.5234375 -15.30859375 63.5234375 C-16.89796186 68.23240255 -18.39702848 72.96505972 -19.87109375 77.7109375 C-22.18866132 85.1636402 -22.18866132 85.1636402 -23.30859375 88.5234375 C-23.53577871 91.08978611 -23.72467559 93.64021857 -23.87109375 96.2109375 C-23.93586914 97.2637793 -23.93586914 97.2637793 -24.00195312 98.33789062 C-24.10776735 100.06618956 -24.20865956 101.7947886 -24.30859375 103.5234375 C-25.62859375 103.5234375 -26.94859375 103.5234375 -28.30859375 103.5234375 C-32.27648794 95.58764912 -28.42700497 83.79755521 -26.04052734 75.7109375 C-22.13793535 64.04742039 -15.08877449 53.67426258 -8.30859375 43.5234375 C-6.58171469 40.88812578 -4.90464406 38.23985254 -3.30859375 35.5234375 C-2.71046875 34.5128125 -2.11234375 33.5021875 -1.49609375 32.4609375 C1.1216061 25.99895843 0.92045152 16.50325951 -1.6796875 10.19921875 C-4.26452908 5.95313606 -7.78870991 3.45707765 -12.30859375 1.5234375 C-19.94236049 0.13547991 -26.84443128 0.52528781 -34.30859375 2.5234375 C-34.30859375 3.1834375 -34.30859375 3.8434375 -34.30859375 4.5234375 C-34.83066406 4.719375 -35.35273437 4.9153125 -35.890625 5.1171875 C-42.81789068 7.9317683 -48.38890567 12.01153344 -54.30859375 16.5234375 C-55.06785156 17.06484375 -55.82710937 17.60625 -56.609375 18.1640625 C-60.89759303 21.23284376 -64.05253449 24.37936208 -67.30859375 28.5234375 C-67.63859375 28.5234375 -67.96859375 28.5234375 -68.30859375 28.5234375 C-69.09125575 24.7907418 -69.38971703 23.09538401 -68.30859375 19.5234375 C-53.74779242 3.62541972 -20.17988146 -12.90692926 0 0 Z " fill="#F6F5FA" transform="translate(68.30859375,234.4765625)"/>
<path d="M0 0 C0.33 0 0.66 0 1 0 C1.74599614 9.70867655 0.33389679 16.2469242 -4.3125 24.75 C-4.85358398 25.78278076 -5.39466797 26.81556152 -5.95214844 27.87963867 C-10.7781651 36.93931148 -16.13300793 45.5832678 -22 54 C-22.68578125 54.99902344 -23.3715625 55.99804688 -24.078125 57.02734375 C-38.20480047 77.040134 -55.42988177 92.95166871 -75 107.5 C-75.83805176 108.12447021 -76.67610352 108.74894043 -77.53955078 109.39233398 C-78.33087402 109.97442627 -79.12219727 110.55651855 -79.9375 111.15625 C-80.64777344 111.68025391 -81.35804688 112.20425781 -82.08984375 112.74414062 C-84 114 -84 114 -87 115 C-85.61751543 110.96775333 -83.7086823 108.26635219 -81 105 C-80.13375 103.5459375 -80.13375 103.5459375 -79.25 102.0625 C-76.87048439 98.82371487 -74.57887279 97.00094106 -71.34375 94.6953125 C-64.52183758 89.76079585 -58.06798585 84.39115344 -52.33984375 78.21484375 C-51 77 -51 77 -49 77 C-48.731875 76.40058594 -48.46375 75.80117187 -48.1875 75.18359375 C-46.98294983 72.96864788 -45.85458345 71.74321625 -44 70.0625 C-31.63830103 57.98116946 -21.29606806 41.8547786 -13.36328125 26.57421875 C-11.80319186 23.62837661 -10.09419419 20.79317203 -8.375 17.9375 C-5.33998306 12.7873717 -3.07219838 7.59270746 -1 2 C-0.67 1.34 -0.34 0.68 0 0 Z " fill="#4D3F68" transform="translate(337,123)"/>
<path d="M0 0 C2.98273139 3.0855842 3.19530522 5.94823708 3.25 10.0625 C3.20309665 12.59918929 3.05472927 14.7873694 2.421875 17.24609375 C2.28265625 17.82488281 2.1434375 18.40367187 2 19 C2.33 19.33 2.66 19.66 3 20 C3.08848832 22.42496046 3.11527367 24.82123261 3.09765625 27.24609375 C3.0962413 27.97240494 3.09482635 28.69871613 3.09336853 29.44703674 C3.08775443 31.77723239 3.07520695 34.10733326 3.0625 36.4375 C3.05748617 38.00585798 3.05292306 39.57421747 3.04882812 41.14257812 C3.04063924 44.01491197 3.02997358 46.88721057 3.01586914 49.75952148 C2.98643042 55.77090747 4.61758914 59.9263837 8 65 C7.625 67.1875 7.625 67.1875 7 69 C1.67316448 69.50731767 -0.82526994 68.26718004 -5 65 C-6.04136108 64.18897827 -6.04136108 64.18897827 -7.10375977 63.36157227 C-9.71005415 60.11570056 -9.89600657 56.97772939 -10.21484375 52.96484375 C-10.28960434 52.17480453 -10.36436493 51.38476532 -10.44139099 50.57078552 C-11.23191211 41.58393371 -11.41703658 32.57852148 -11.5625 23.5625 C-11.60665646 21.07501916 -11.65323879 18.58765478 -11.70530701 16.10032654 C-11.73693174 14.57345247 -11.76392072 13.04647298 -11.78553772 11.51942444 C-11.84673357 8.42356313 -12.0136316 5.95910519 -13 3 C-3.60137195 -0.82317073 -3.60137195 -0.82317073 0 0 Z " fill="#2D2C2C" transform="translate(161,191)"/>
<path d="M0 0 C0.99 0.66 1.98 1.32 3 2 C2.11957031 2.7734375 1.23914063 3.546875 0.33203125 4.34375 C-11.3949928 14.50128096 -11.3949928 14.50128096 -16.23828125 28.8046875 C-16.39566755 35.31551011 -16.2260849 38.98152418 -12 44 C-12 44.66 -12 45.32 -12 46 C-3.8600748 50.14568283 4.36235645 53.19905498 13.1875 55.5 C19.67925298 57.19584895 25.40948238 59.15856245 31 63 C31 63.33 31 63.66 31 64 C-5.62389143 64.95279285 -5.62389143 64.95279285 -15.75 57.625 C-18.16613964 54.80617042 -19.16345252 52.59715417 -20 49 C-20.66 49 -21.32 49 -22 49 C-25.36565349 34.60582124 -24.13880656 21.87932197 -16.296875 8.90625 C-11.73510441 2.20099685 -8.56834528 -1.0010542 0 0 Z " fill="#4C3E66" transform="translate(154,274)"/>
<path d="M0 0 C0.99 0.66 1.98 1.32 3 2 C3 3.32 3 4.64 3 6 C-3.5 9 -3.5 9 -8 9 C-8 9.66 -8 10.32 -8 11 C-9.61457079 12.43581474 -11.29219075 13.80144783 -13 15.125 C-13.928125 15.84945312 -14.85625 16.57390625 -15.8125 17.3203125 C-16.534375 17.87460938 -17.25625 18.42890625 -18 19 C-17.79890625 19.5259375 -17.5978125 20.051875 -17.390625 20.59375 C-16.84772825 23.937994 -17.73227203 26.2845696 -18.75 29.5 C-19.09546875 30.6240625 -19.4409375 31.748125 -19.796875 32.90625 C-20.91840076 35.79017339 -21.8398531 37.79718353 -24 40 C-29.95522388 40.52238806 -29.95522388 40.52238806 -33 39 C-33 42.3 -33 45.6 -33 49 C-34.98 49.495 -34.98 49.495 -37 50 C-37.33 50.99 -37.66 51.98 -38 53 C-40.92535583 44.79172309 -43.19887777 35.61227125 -41 27 C-40.65839844 26.39027344 -40.31679687 25.78054687 -39.96484375 25.15234375 C-37.47003686 19.58700529 -38.74705189 11.794885 -40 6 C-38.55903414 6.42594588 -37.12231288 6.86626633 -35.6875 7.3125 C-34.88699219 7.55613281 -34.08648437 7.79976563 -33.26171875 8.05078125 C-29.90906745 9.45785252 -28.45785252 10.90906745 -27.05078125 14.26171875 C-26.68533203 15.46248047 -26.68533203 15.46248047 -26.3125 16.6875 C-25.93544922 17.89986328 -25.93544922 17.89986328 -25.55078125 19.13671875 C-25.36902344 19.75160156 -25.18726563 20.36648437 -25 21 C-24.67 19.35 -24.34 17.7 -24 16 C-23.34 16 -22.68 16 -22 16 C-21.67 14.02 -21.34 12.04 -21 10 C-22.134375 9.608125 -23.26875 9.21625 -24.4375 8.8125 C-28 7 -28 7 -28.9375 4.3125 C-28.958125 3.549375 -28.97875 2.78625 -29 2 C-28.34 2 -27.68 2 -27 2 C-26.46117187 2.65226562 -25.92234375 3.30453125 -25.3671875 3.9765625 C-22.10390931 6.76596531 -19.21065394 6.51743564 -15.125 6.375 C-14.08279297 6.37306641 -14.08279297 6.37306641 -13.01953125 6.37109375 C-8.67972619 6.29753773 -4.98627831 5.73635435 -1 4 C-0.03122943 1.96756452 -0.03122943 1.96756452 0 0 Z " fill="#2F2E2D" transform="translate(212,113)"/>
<path d="M0 0 C4.95 0 9.9 0 15 0 C14.01 0.495 14.01 0.495 13 1 C12.566875 1.86625 12.566875 1.86625 12.125 2.75 C11 5 11 5 9.125 7.0625 C1.70521461 17.31926216 0.97002055 30.77010073 2 43 C4.37595077 56.19636354 11.72953847 68.14810774 19.51953125 78.84375 C21.55319008 81.80570165 22.86437319 84.59311958 24 88 C23.67 88.66 23.34 89.32 23 90 C22.34 90 21.68 90 21 90 C21 90.66 21 91.32 21 92 C20.01 92 19.02 92 18 92 C17.67 92.99 17.34 93.98 17 95 C2.55014255 82.09834156 -2.74069172 53.33670736 -5 35 C-5.56675614 23.16402295 -5.50112101 10.75219107 0 0 Z " fill="#F8F8FB" transform="translate(75,0)"/>
<path d="M0 0 C15.84 0 31.68 0 48 0 C38.75990441 10.78011153 30.05806262 16.18493243 16 18 C10.63331918 18.3728455 5.38496419 18.19232015 0 18 C0 12.06 0 6.12 0 0 Z " fill="#FB7EC2" transform="translate(0,0)"/>
<path d="M0 0 C10.70477037 5.04853799 16.17592035 14.60060228 20.1875 25.3984375 C26.95827834 47.07794892 23.33907343 72.80347831 13.5546875 92.98046875 C12.13809359 95.41499762 10.63188714 97.70455591 9 100 C7.95005859 101.50626953 7.95005859 101.50626953 6.87890625 103.04296875 C4.96378916 105.73642219 3.059227 108.41490835 1 111 C0.67 111 0.34 111 0 111 C-0.52849278 104.7781986 0.93054671 101.61980256 4.125 96.5625 C7.42937615 91.02850044 10.21292137 85.55404211 12.4375 79.5 C12.67162598 78.86650635 12.90575195 78.2330127 13.14697266 77.58032227 C16.36781644 68.51798505 17.34007803 60.8250903 17.3125 51.25 C17.32861328 50.1465625 17.34472656 49.043125 17.36132812 47.90625 C17.36847437 35.72904313 14.7418199 24.28463878 8 14 C5.94503839 12.0450095 3.81353843 10.33302586 1.5703125 8.6015625 C0 7 0 7 -0.5 3.0625 C-0.335 2.051875 -0.17 1.04125 0 0 Z " fill="#F7CB54" transform="translate(0,88)"/>
<path d="M0 0 C4.53510872 -0.77868321 8.47650841 -0.9302937 13 0 C17.60828444 3.29849825 20.77018601 7.38330986 24 12 C24.40734375 12.57766113 24.8146875 13.15532227 25.234375 13.75048828 C35.01578031 28.00577499 40.68252871 43.94341127 43 61 C43.19529297 62.40765625 43.19529297 62.40765625 43.39453125 63.84375 C44.33694911 72.18728948 44.08845147 80.61676605 44 89 C42.03125 88.07421875 42.03125 88.07421875 40 86 C39.41286887 82.95345956 39.49654603 79.90725902 39.5 76.8125 C38.94435695 54.49014455 30.43462416 33.09274842 16 16 C15.51917969 15.38640625 15.03835937 14.7728125 14.54296875 14.140625 C11.12387123 9.88323636 7.2569561 6.702328 2.85546875 3.48046875 C1 2 1 2 0 0 Z " fill="#F7F6FB" transform="translate(195,0)"/>
<path d="M0 0 C10.71428571 -0.28571429 10.71428571 -0.28571429 15 2 C15.28571429 9.42857143 15.28571429 9.42857143 13 13 C14.03572984 14.15353003 14.03572984 14.15353003 15.9375 14.875 C18 16 18 16 20 19 C19.625 21.1875 19.625 21.1875 19 23 C17.35 23.33 15.7 23.66 14 24 C14 24.66 14 25.32 14 26 C13.01 26 12.02 26 11 26 C11.04640625 26.67546875 11.0928125 27.3509375 11.140625 28.046875 C11.43910806 35.42367067 11.43910806 35.42367067 9 38.625 C8.01 39.305625 8.01 39.305625 7 40 C9.97 39.505 9.97 39.505 13 39 C13 39.99 13 40.98 13 42 C7.555 42.495 7.555 42.495 2 43 C1.896875 41.783125 1.79375 40.56625 1.6875 39.3125 C1.23780688 35.58930552 0.21617222 33.08337005 -2 30 C-0.02 30.33 1.96 30.66 4 31 C4.33 29.68 4.66 28.36 5 27 C2.36 26.67 -0.28 26.34 -3 26 C-1.6875 24.5 -1.6875 24.5 0 23 C0.99 23 1.98 23 3 23 C2.67 21.35 2.34 19.7 2 18 C2.99 17.67 3.98 17.34 5 17 C5 18.32 5 19.64 5 21 C5.99 21 6.98 21 8 21 C8 19.35 8 17.7 8 16 C4.52674819 14.8422494 1.63932552 14.93133348 -2 15 C-1.67 16.32 -1.34 17.64 -1 19 C-3.375 18.6875 -3.375 18.6875 -6 18 C-8 15 -8 15 -8 11 C-4.535 10.505 -4.535 10.505 -1 10 C-0.67 6.7 -0.34 3.4 0 0 Z " fill="#302F2E" transform="translate(158,81)"/>
<path d="M0 0 C8.31054303 5.80469227 15.05906559 13.72844984 17.546875 23.6796875 C17.629375 24.3396875 17.711875 24.9996875 17.796875 25.6796875 C15.609375 25.2421875 15.609375 25.2421875 12.796875 23.6796875 C11.59765625 21.75390625 11.59765625 21.75390625 10.421875 19.4296875 C6.04097743 10.97984482 -0.34128846 7.57425722 -9.203125 4.6796875 C-18.24258911 1.96784827 -27.93970741 3.27615576 -36.203125 7.6796875 C-36.87859375 8.3809375 -37.5540625 9.0821875 -38.25 9.8046875 C-40.203125 11.6796875 -40.203125 11.6796875 -42.34375 12.0703125 C-44.296875 11.94010417 -46.25 11.80989583 -48.203125 11.6796875 C-47.88901442 7.28213944 -46.8454036 4.37890951 -43.86328125 1.06640625 C-32.038892 -8.81043653 -12.48832077 -7.4841355 0 0 Z " fill="#F98B0C" transform="translate(205.203125,51.3203125)"/>
<path d="M0 0 C6.15601797 4.14970442 9.61169995 8.64564797 11.75 15.75 C11.11723145 15.49307373 10.48446289 15.23614746 9.83251953 14.97143555 C-3.45071324 9.63435803 -15.99741784 5.3196059 -30.25 3.75 C-31.07516113 3.6571875 -31.90032227 3.564375 -32.75048828 3.46875 C-34.91659975 3.22539517 -37.08308351 2.98605986 -39.25 2.75 C-37.52246094 -1.09179688 -37.52246094 -1.09179688 -35.0703125 -2.515625 C-22.9358397 -6.9473455 -11.30502312 -6.48754168 0 0 Z " fill="#A89BE5" transform="translate(206.25,59.25)"/>
<path d="M0 0 C2.18043828 2.18043828 2.56240225 3.02433527 3 6 C2.5625 8.25 2.5625 8.25 2 10 C2.99 9.67 3.98 9.34 5 9 C6.39439664 8.93334624 7.79169875 8.91461801 9.1875 8.9375 C11.0746875 8.9684375 11.0746875 8.9684375 13 9 C13 8.01 13 7.02 13 6 C13.66 6 14.32 6 15 6 C16.40686288 12.27415463 17.42897743 19.19920424 14.4375 25.0625 C12.61634323 28.78399427 13.0452097 30.96796079 13.60546875 34.98828125 C14.0905962 38.69158086 14.33225088 42.3992704 14.5625 46.125 C14.68818359 48.07792969 14.68818359 48.07792969 14.81640625 50.0703125 C14.87699219 51.03710938 14.93757813 52.00390625 15 53 C16.98 52.505 16.98 52.505 19 52 C19.33 52.66 19.66 53.32 20 54 C15.72115394 56.1103435 11.86135858 56.24128739 7.1875 56.125 C6.14819336 56.11146484 6.14819336 56.11146484 5.08789062 56.09765625 C3.39177605 56.07426157 1.69584129 56.03839641 0 56 C2.10634817 54.90045976 3.84639446 54.03072111 6.1875 53.5625 C6.785625 53.376875 7.38375 53.19125 8 53 C8.86419223 50.40742331 9.17580932 48.65962293 9.31640625 45.98828125 C9.35830078 45.23095703 9.40019531 44.47363281 9.44335938 43.69335938 C9.48267578 42.90767578 9.52199219 42.12199219 9.5625 41.3125 C9.60568359 40.51521484 9.64886719 39.71792969 9.69335938 38.89648438 C9.79927368 36.93118553 9.90012551 34.96561504 10 33 C9.01 33 8.02 33 7 33 C7 32.01 7 31.02 7 30 C7.99 30 8.98 30 10 30 C9.566875 29.278125 9.13375 28.55625 8.6875 27.8125 C8.130625 26.884375 7.57375 25.95625 7 25 C6.51273438 24.23300781 6.02546875 23.46601563 5.5234375 22.67578125 C3.97334698 19.95318636 2.94524554 17.33703751 1.9375 14.375 C0.84195711 11.16316743 -0.10198812 8.84701782 -2 6 C-2 4.68 -2 3.36 -2 2 C-1.34 2 -0.68 2 0 2 C0 1.34 0 0.68 0 0 Z " fill="#EFDBCF" transform="translate(158,114)"/>
<path d="M0 0 C0 6.93 0 13.86 0 21 C-11.22 21 -22.44 21 -34 21 C-30.39815852 18.11852682 -27.38055415 15.9602562 -23.4375 13.75 C-17.09257539 10.11423256 -11.04260187 6.11350832 -5 2 C-2 0 -2 0 0 0 Z " fill="#A297E4" transform="translate(338,317)"/>
<path d="M0 0 C0.99 1.98 0.99 1.98 2 4 C1.01902344 4.02578125 0.03804688 4.0515625 -0.97265625 4.078125 C-25.75311046 5.00429448 -48.27605147 14.60660103 -67.890625 29.43359375 C-70 31 -70 31 -72 32 C-72.42578125 29.30078125 -72.42578125 29.30078125 -72 26 C-69.70816056 24.01163171 -67.78655767 22.66300195 -65.1875 21.1875 C-64.47408447 20.7644458 -63.76066895 20.3413916 -63.02563477 19.90551758 C-43.6405055 8.65389183 -22.80640432 -0.79403342 0 0 Z " fill="#F3C959" transform="translate(72,215)"/>
<path d="M0 0 C0.99 0.66 1.98 1.32 3 2 C3 3.32 3 4.64 3 6 C-3.5 9 -3.5 9 -8 9 C-8 9.66 -8 10.32 -8 11 C-9.61457079 12.43581474 -11.29219075 13.80144783 -13 15.125 C-13.928125 15.84945312 -14.85625 16.57390625 -15.8125 17.3203125 C-16.534375 17.87460938 -17.25625 18.42890625 -18 19 C-17.79503906 19.52078125 -17.59007812 20.0415625 -17.37890625 20.578125 C-16.84128658 24.0144569 -17.85440482 26.4678934 -18.9375 29.75 C-19.31777344 30.92046875 -19.69804687 32.0909375 -20.08984375 33.296875 C-20.39019531 34.18890625 -20.69054687 35.0809375 -21 36 C-21.99 35.67 -22.98 35.34 -24 35 C-24.33 33.35 -24.66 31.7 -25 30 C-25.66 30 -26.32 30 -27 30 C-27 26.37 -27 22.74 -27 19 C-26.34 19.66 -25.68 20.32 -25 21 C-24.67 19.35 -24.34 17.7 -24 16 C-23.34 16 -22.68 16 -22 16 C-21.67 14.02 -21.34 12.04 -21 10 C-22.7015625 9.4121875 -22.7015625 9.4121875 -24.4375 8.8125 C-28 7 -28 7 -28.9375 4.3125 C-28.958125 3.549375 -28.97875 2.78625 -29 2 C-28.34 2 -27.68 2 -27 2 C-26.46117187 2.65226562 -25.92234375 3.30453125 -25.3671875 3.9765625 C-22.10390931 6.76596531 -19.21065394 6.51743564 -15.125 6.375 C-14.08279297 6.37306641 -14.08279297 6.37306641 -13.01953125 6.37109375 C-8.67972619 6.29753773 -4.98627831 5.73635435 -1 4 C-0.03122943 1.96756452 -0.03122943 1.96756452 0 0 Z " fill="#3D3A38" transform="translate(212,113)"/>
<path d="M0 0 C0.19389096 2.4788213 0.38040123 4.95780931 0.5625 7.4375 C0.61857422 8.14455078 0.67464844 8.85160156 0.73242188 9.58007812 C0.86190993 11.38427837 0.93521608 13.19231952 1 15 C0.67 15.33 0.34 15.66 0 16 C-1.65 16 -3.3 16 -5 16 C-5.66 20.29 -6.32 24.58 -7 29 C-7.99 29 -8.98 29 -10 29 C-12.1103435 24.72115394 -12.24128739 20.86135858 -12.125 16.1875 C-12.11597656 15.49462891 -12.10695312 14.80175781 -12.09765625 14.08789062 C-12.07426157 12.39177605 -12.03839641 10.69584129 -12 9 C-12.66 9 -13.32 9 -14 9 C-14 7.02 -14 5.04 -14 3 C-12.61256594 2.29570341 -11.21455365 1.61222402 -9.8125 0.9375 C-9.03519531 0.55464844 -8.25789062 0.17179688 -7.45703125 -0.22265625 C-4.56904519 -1.13634341 -2.88006393 -0.81337507 0 0 Z " fill="#2B2B2A" transform="translate(149,227)"/>
<path d="M0 0 C0.66 0.33 1.32 0.66 2 1 C3.67654729 0.72057545 5.34608154 0.39171753 7 0 C8.95829294 8.08961486 10.51917486 15.65474478 10 24 C9.01 23.67 8.02 23.34 7 23 C6.236875 23.639375 5.47375 24.27875 4.6875 24.9375 C1.48915971 27.39204022 -0.06472456 27.44719039 -4 27 C-5.63218936 25.36781064 -5.28763111 23.56056873 -5.375 21.3125 C-5.3431554 17.61321862 -5.04980208 15.31677138 -2.75 12.375 C0 10 0 10 4 10 C3.835 9.360625 3.67 8.72125 3.5 8.0625 C3 6 3 6 3 5 C2.01 5 1.02 5 0 5 C0 3.35 0 1.7 0 0 Z " fill="#44413F" transform="translate(173,162)"/>
<path d="M0 0 C1.16982422 -0.00386719 1.16982422 -0.00386719 2.36328125 -0.0078125 C3.17410156 -0.00007813 3.98492187 0.00765625 4.8203125 0.015625 C5.62339844 0.00789063 6.42648438 0.00015625 7.25390625 -0.0078125 C11.52433543 0.00625811 15.14330916 0.08022151 18.9453125 2.265625 C19.8203125 4.765625 19.8203125 4.765625 19.9453125 7.265625 C19.6153125 7.925625 19.2853125 8.585625 18.9453125 9.265625 C16.4703125 8.770625 16.4703125 8.770625 13.9453125 8.265625 C13.6153125 9.255625 13.2853125 10.245625 12.9453125 11.265625 C11.6253125 11.265625 10.3053125 11.265625 8.9453125 11.265625 C8.6153125 10.605625 8.2853125 9.945625 7.9453125 9.265625 C7.2853125 9.265625 6.6253125 9.265625 5.9453125 9.265625 C5.2853125 10.585625 4.6253125 11.905625 3.9453125 13.265625 C2.9553125 13.265625 1.9653125 13.265625 0.9453125 13.265625 C0.6153125 11.615625 0.2853125 9.965625 -0.0546875 8.265625 C-1.3746875 8.595625 -2.6946875 8.925625 -4.0546875 9.265625 C-4.0546875 8.605625 -4.0546875 7.945625 -4.0546875 7.265625 C-5.0446875 7.265625 -6.0346875 7.265625 -7.0546875 7.265625 C-7.2421875 4.890625 -7.2421875 4.890625 -7.0546875 2.265625 C-4.02189701 0.24376467 -3.40688498 0.01087717 0 0 Z " fill="#32312F" transform="translate(192.0546875,103.734375)"/>
<path d="M0 0 C0.66 0 1.32 0 2 0 C1.67 2.31 1.34 4.62 1 7 C-0.65 7.33 -2.3 7.66 -4 8 C-4 10.31 -4 12.62 -4 15 C-4.99 15 -5.98 15 -7 15 C-6.67 16.32 -6.34 17.64 -6 19 C-6.99 19.33 -7.98 19.66 -9 20 C-9.66 19.67 -10.32 19.34 -11 19 C-11.625 16.4375 -11.625 16.4375 -12 14 C-12.66 14 -13.32 14 -14 14 C-14.33 15.32 -14.66 16.64 -15 18 C-15.99 17.67 -16.98 17.34 -18 17 C-18.02701408 14.89590361 -18.04640223 12.79170822 -18.0625 10.6875 C-18.07410156 9.51574219 -18.08570312 8.34398437 -18.09765625 7.13671875 C-18 4 -18 4 -17 1 C-16.34 1 -15.68 1 -15 1 C-15 1.66 -15 2.32 -15 3 C-12.08347826 3.16681109 -12.08347826 3.16681109 -9 3 C-8.34 2.34 -7.68 1.68 -7 1 C-6.01 1 -5.02 1 -4 1 C-4 2.98 -4 4.96 -4 7 C-0.77595022 5.33045181 -0.77595022 5.33045181 -0.3125 2.375 C-0.209375 1.59125 -0.10625 0.8075 0 0 Z " fill="#DAC6BB" transform="translate(140,180)"/>
<path d="M0 0 C0.80824219 0.11988281 1.61648437 0.23976562 2.44921875 0.36328125 C3.06410156 0.47027344 3.67898437 0.57726562 4.3125 0.6875 C4.3125 1.6775 4.3125 2.6675 4.3125 3.6875 C2.9925 3.6875 1.6725 3.6875 0.3125 3.6875 C0.6425 4.6775 0.9725 5.6675 1.3125 6.6875 C0.3225 7.0175 -0.6675 7.3475 -1.6875 7.6875 C-1.6875 8.3475 -1.6875 9.0075 -1.6875 9.6875 C-2.3475 9.6875 -3.0075 9.6875 -3.6875 9.6875 C-4.6775 13.6475 -5.6675 17.6075 -6.6875 21.6875 C-6.0275 21.3575 -5.3675 21.0275 -4.6875 20.6875 C-2.68789988 20.647508 -0.68702758 20.64403201 1.3125 20.6875 C-1.23375795 22.01155414 -3.65326509 23.0312469 -6.375 24 C-7.468125 24.556875 -8.56125 25.11375 -9.6875 25.6875 C-10.58136164 28.23525306 -10.58136164 28.23525306 -10.6875 30.6875 C-11.3475 31.0175 -12.0075 31.3475 -12.6875 31.6875 C-12.57285985 28.97837219 -12.44612846 26.27070339 -12.3125 23.5625 C-12.2815625 22.80195313 -12.250625 22.04140625 -12.21875 21.2578125 C-11.9874254 16.78553698 -11.58030456 12.8207671 -9.6875 8.6875 C-8.6975 8.3575 -7.7075 8.0275 -6.6875 7.6875 C-6.914375 6.924375 -7.14125 6.16125 -7.375 5.375 C-7.6875 2.6875 -7.6875 2.6875 -6.5 1 C-4.09032786 -0.744935 -2.89409859 -0.46137804 0 0 Z " fill="#5B5856" transform="translate(158.6875,169.3125)"/>
<path d="M0 0 C0.25 2.8125 0.25 2.8125 0 6 C-1.8125 7.875 -1.8125 7.875 -4 9 C-4.99 9 -5.98 9 -7 9 C-7 9.66 -7 10.32 -7 11 C-9.43075488 12.98541282 -12.18249751 14.52024938 -14.875 16.125 C-15.6477124 16.58567871 -16.4204248 17.04635742 -17.21655273 17.52099609 C-23.09304008 20.85106705 -27.19642374 22.07993274 -34 21 C-30.63355996 18.18954189 -27.26011863 15.89274677 -23.4375 13.75 C-17.09257539 10.11423256 -11.04260187 6.11350832 -5 2 C-2 0 -2 0 0 0 Z " fill="#4D4069" transform="translate(338,317)"/>
<path d="M0 0 C0.66 0 1.32 0 2 0 C2 1.32 2 2.64 2 4 C3.32 4.33 4.64 4.66 6 5 C6 6.98 6 8.96 6 11 C6.66 11.33 7.32 11.66 8 12 C8.49230769 18.4 8.49230769 18.4 6 21.4375 C5.01 22.2109375 5.01 22.2109375 4 23 C5.98 22.67 7.96 22.34 10 22 C10 22.99 10 23.98 10 25 C6.37 25.33 2.74 25.66 -1 26 C-1.103125 24.783125 -1.20625 23.56625 -1.3125 22.3125 C-1.76219312 18.58930552 -2.78382778 16.08337005 -5 13 C-2.03 13.495 -2.03 13.495 1 14 C1.33 12.68 1.66 11.36 2 10 C-0.64 9.67 -3.28 9.34 -6 9 C-4.6875 7.5 -4.6875 7.5 -3 6 C-2.01 6 -1.02 6 0 6 C-0.2784375 4.7934375 -0.2784375 4.7934375 -0.5625 3.5625 C-0.706875 2.716875 -0.85125 1.87125 -1 1 C-0.67 0.67 -0.34 0.34 0 0 Z " fill="#343231" transform="translate(161,98)"/>
<path d="M0 0 C11.88 0 23.76 0 36 0 C26.25758681 7.30680989 11.73288233 6.4212604 0 6 C0 4.02 0 2.04 0 0 Z " fill="#A79AE8" transform="translate(0,0)"/>
<path d="M0 0 C0.99 0 1.98 0 3 0 C3 0.66 3 1.32 3 2 C3.99 1.34 4.98 0.68 6 0 C7.32 0 8.64 0 10 0 C10 4.62 10 9.24 10 14 C9.01 14.33 8.02 14.66 7 15 C6.34 14.67 5.68 14.34 5 14 C4.67 14.99 4.34 15.98 4 17 C2.68 17 1.36 17 0 17 C-0.33 17.66 -0.66 18.32 -1 19 C-1.33 17.35 -1.66 15.7 -2 14 C-1.67 14 -1.34 14 -1 14 C-0.67 9.38 -0.34 4.76 0 0 Z " fill="#E2CFC3" transform="translate(188,170)"/>
<path d="M0 0 C2.97 0.33 5.94 0.66 9 1 C9.71614583 2.72526042 10.43229167 4.45052083 11.1484375 6.17578125 C12.06806692 8.26533932 12.06806692 8.26533932 14 11 C13.625 13.1875 13.625 13.1875 13 15 C7.69356959 15.50537432 5.13319688 14.30655751 1 11 C-0.875 8.75 -0.875 8.75 -2 7 C-1.525625 6.566875 -1.05125 6.13375 -0.5625 5.6875 C1.23686957 3.97690387 1.23686957 3.97690387 2 1 C1.34 0.67 0.68 0.34 0 0 Z " fill="#343331" transform="translate(155,245)"/>
<path d="M0 0 C2.4375 0.375 2.4375 0.375 5 1 C6.35439668 3.70879335 6.06501451 6.00933268 6 9 C6.99 9 7.98 9 9 9 C9.33 9.66 9.66 10.32 10 11 C10.66 11 11.32 11 12 11 C14.125 15.625 14.125 15.625 13 19 C10.4375 20.1875 10.4375 20.1875 8 21 C8 21.66 8 22.32 8 23 C7.01 23 6.02 23 5 23 C2.989574 17.7865224 1.89720718 14.51396411 3 9 C2.21004752 5.91866218 1.1438112 2.96615446 0 0 Z " fill="#2F2E2E" transform="translate(139,156)"/>
<path d="M0 0 C3.27191111 0.21338551 5.35513781 0.47994985 7.9375 2.5625 C9.51807254 6.18851935 9.15979867 9.25845773 8 13 C6.3125 15 6.3125 15 4 16 C2.00039493 16.0397437 -0.0004789 16.04376517 -2 16 C-1.85975781 13.52039864 -1.7130815 11.04147598 -1.5625 8.5625 C-1.52318359 7.85544922 -1.48386719 7.14839844 -1.44335938 6.41992188 C-1.11328125 1.11328125 -1.11328125 1.11328125 0 0 Z " fill="#4B4641" transform="translate(104,182)"/>
<path d="M0 0 C2.87725519 3.83634026 3.65651114 5.73328688 4.6875 10.25 C5.06455078 11.86648437 5.06455078 11.86648437 5.44921875 13.515625 C5.63097656 14.33546875 5.81273437 15.1553125 6 16 C3.525 15.01 3.525 15.01 1 14 C1 15.65 1 17.3 1 19 C-0.98 19.99 -0.98 19.99 -3 21 C-3 19.02 -3 17.04 -3 15 C-3.66 15 -4.32 15 -5 15 C-5.33 15.66 -5.66 16.32 -6 17 C-6.66 17 -7.32 17 -8 17 C-8 15.02 -8 13.04 -8 11 C-6.68 11 -5.36 11 -4 11 C-2.68 7.37 -1.36 3.74 0 0 Z " fill="#F4DFD2" transform="translate(139,166)"/>
<path d="M0 0 C0.99 0.66 1.98 1.32 3 2 C3 3.32 3 4.64 3 6 C-3.5 9 -3.5 9 -8 9 C-8 9.66 -8 10.32 -8 11 C-10.375 12.6875 -10.375 12.6875 -13 14 C-13.66 13.67 -14.32 13.34 -15 13 C-15 12.34 -15 11.68 -15 11 C-16.3921875 11.061875 -16.3921875 11.061875 -17.8125 11.125 C-21 11 -21 11 -24 9 C-24.886875 8.54625 -25.77375 8.0925 -26.6875 7.625 C-27.450625 7.08875 -28.21375 6.5525 -29 6 C-29 4.68 -29 3.36 -29 2 C-28.34 2 -27.68 2 -27 2 C-26.46117187 2.65226562 -25.92234375 3.30453125 -25.3671875 3.9765625 C-22.10390931 6.76596531 -19.21065394 6.51743564 -15.125 6.375 C-14.08279297 6.37306641 -14.08279297 6.37306641 -13.01953125 6.37109375 C-8.67972619 6.29753773 -4.98627831 5.73635435 -1 4 C-0.03122943 1.96756452 -0.03122943 1.96756452 0 0 Z " fill="#504C48" transform="translate(212,113)"/>
<path d="M0 0 C0.66 0.33 1.32 0.66 2 1 C1.34 2.65 0.68 4.3 0 6 C-0.66 6 -1.32 6 -2 6 C-1.67 7.65 -1.34 9.3 -1 11 C-5.62 14.3 -10.24 17.6 -15 21 C-15 14.35650574 -8.32546852 7.78078099 -4 3 C-1.6875 1.125 -1.6875 1.125 0 0 Z " fill="#54466C" transform="translate(266,217)"/>
<path d="M0 0 C0 0.66 0 1.32 0 2 C-0.99 2.66 -1.98 3.32 -3 4 C-3.54475978 6.59270699 -3.92400149 9.00451945 -4.1875 11.625 C-4.26935547 12.33140625 -4.35121094 13.0378125 -4.43554688 13.765625 C-4.63580725 15.5090683 -4.81949401 17.25440086 -5 19 C-5.99 19 -6.98 19 -8 19 C-8 18.34 -8 17.68 -8 17 C-9.98 16.67 -11.96 16.34 -14 16 C-14 15.34 -14 14.68 -14 14 C-14.66 13.67 -15.32 13.34 -16 13 C-14.35 12.67 -12.7 12.34 -11 12 C-10.814375 10.5459375 -10.814375 10.5459375 -10.625 9.0625 C-10.41875 8.051875 -10.2125 7.04125 -10 6 C-8 5 -8 5 -5 4 C-5 3.34 -5 2.68 -5 2 C-2 0 -2 0 0 0 Z " fill="#F1DDD0" transform="translate(152,175)"/>
<path d="M0 0 C0.66 0 1.32 0 2 0 C4.02558881 3.34939881 4.21738987 5.86962551 4.125 9.75 C4.10695312 10.73484375 4.08890625 11.7196875 4.0703125 12.734375 C4.03550781 13.85585937 4.03550781 13.85585937 4 15 C3.34 15 2.68 15 2 15 C2 13.68 2 12.36 2 11 C0.35 11.33 -1.3 11.66 -3 12 C-3 13.32 -3 14.64 -3 16 C-3.66 16 -4.32 16 -5 16 C-5.34700907 10.33218526 -4.52575819 6.95437183 -2 2 C-1.34 1.34 -0.68 0.68 0 0 Z " fill="#514B46" transform="translate(212,167)"/>
<path d="M0 0 C0.99 0 1.98 0 3 0 C2.98952637 0.65597168 2.97905273 1.31194336 2.96826172 1.98779297 C2.92677497 4.95015658 2.90069738 7.91245916 2.875 10.875 C2.85824219 11.90753906 2.84148438 12.94007813 2.82421875 14.00390625 C2.81777344 14.99003906 2.81132812 15.97617188 2.8046875 16.9921875 C2.79421387 17.90339355 2.78374023 18.81459961 2.77294922 19.75341797 C2.78129007 22.20290436 2.78129007 22.20290436 5 24 C5.24243031 28.84860624 4.95498418 33.2250791 4 38 C2.35 37.67 0.7 37.34 -1 37 C-0.83701416 35.99445068 -0.67402832 34.98890137 -0.50610352 33.95288086 C-0.02073787 30.1619715 0.11404492 26.57246647 0.09765625 22.75390625 C0.0962413 22.09792953 0.09482635 21.44195282 0.09336853 20.76609802 C0.08783031 18.69818298 0.07529002 16.63038158 0.0625 14.5625 C0.05747699 13.14909012 0.0529155 11.73567852 0.04882812 10.32226562 C0.03788126 6.88147432 0.02066038 3.44074828 0 0 Z " fill="#F6CA57" transform="translate(17,122)"/>
<path d="M0 0 C0.99 0.33 1.98 0.66 3 1 C3.63019694 9.19256018 3.63019694 9.19256018 1 12.5625 C0.34 13.036875 -0.32 13.51125 -1 14 C-2.32 13.34 -3.64 12.68 -5 12 C-5.32469403 7.34605219 -4.79790518 4.76641082 -2 1 C-1.34 0.67 -0.68 0.34 0 0 Z " fill="#2F2E2D" transform="translate(174,174)"/>
<path d="M0 0 C0 3.3 0 6.6 0 10 C0.66 10 1.32 10 2 10 C2.33 9.34 2.66 8.68 3 8 C3.99 9.32 4.98 10.64 6 12 C5.67 12.66 5.34 13.32 5 14 C4.01 14 3.02 14 2 14 C1.67 14.66 1.34 15.32 1 16 C0.34 16 -0.32 16 -1 16 C-1.33 17.32 -1.66 18.64 -2 20 C-3.51233701 13.53205867 -4.21432579 7.64409958 -4 1 C-1 0 -1 0 0 0 Z " fill="#524570" transform="translate(134,303)"/>
<path d="M0 0 C2.15473199 1.5801368 4.10646634 3.10646634 6 5 C4.68 5.99 3.36 6.98 2 8 C2 7.34 2 6.68 2 6 C0.35 6.33 -1.3 6.66 -3 7 C-3 7.99 -3 8.98 -3 10 C-5.1171875 11.640625 -5.1171875 11.640625 -7.875 13.25 C-9.23238281 14.06210938 -9.23238281 14.06210938 -10.6171875 14.890625 C-11.40351563 15.25671875 -12.18984375 15.6228125 -13 16 C-13.66 15.67 -14.32 15.34 -15 15 C-13.54782324 13.49403892 -12.08807139 11.99537896 -10.625 10.5 C-9.81289063 9.6646875 -9.00078125 8.829375 -8.1640625 7.96875 C-6 6 -6 6 -4 6 C-3.566875 5.071875 -3.566875 5.071875 -3.125 4.125 C-2 2 -2 2 0 0 Z " fill="#52446F" transform="translate(292,194)"/>
<path d="M0 0 C0.66 1.32 1.32 2.64 2 4 C-5.92 4.33 -13.84 4.66 -22 5 C-21.01 4.67 -20.02 4.34 -19 4 C-19 3.34 -19 2.68 -19 2 C-12.53991163 0.04978464 -6.7281627 -0.22262303 0 0 Z " fill="#F7CB5B" transform="translate(72,215)"/>
<path d="M0 0 C2.18043828 2.18043828 2.56240225 3.02433527 3 6 C2.5625 8.25 2.5625 8.25 2 10 C3.27875 9.79375 4.5575 9.5875 5.875 9.375 C8.0546875 9.0234375 8.0546875 9.0234375 10 9 C10.66 9.66 11.32 10.32 12 11 C9.375 14.875 9.375 14.875 6 16 C5.01 16 4.02 16 3 16 C2.15675328 14.421924 1.32576082 12.8372958 0.5 11.25 C0.0359375 10.36828125 -0.428125 9.4865625 -0.90625 8.578125 C-2 6 -2 6 -2 2 C-1.34 2 -0.68 2 0 2 C0 1.34 0 0.68 0 0 Z " fill="#F8E2D5" transform="translate(158,114)"/>
<path d="M0 0 C0.33 0 0.66 0 1 0 C2.03590199 5.05002222 2.10251672 9.87416389 2 15 C1.01 15.33 0.02 15.66 -1 16 C-1 21.94 -1 27.88 -1 34 C-1.33 34 -1.66 34 -2 34 C-2.06058594 32.95199219 -2.12117187 31.90398437 -2.18359375 30.82421875 C-2.26801738 29.44529952 -2.35266447 28.06639395 -2.4375 26.6875 C-2.47681641 25.99720703 -2.51613281 25.30691406 -2.55664062 24.59570312 C-2.74927415 21.52838465 -3.02322717 18.93031848 -4 16 C-3.43122375 13.22471489 -2.79911724 10.54203639 -2.0625 7.8125 C-1.86720703 7.06291016 -1.67191406 6.31332031 -1.47070312 5.54101562 C-0.98785625 3.69206541 -0.49489367 1.84576224 0 0 Z " fill="#E2D0C5" transform="translate(166,192)"/>
<path d="M0 0 C2.8125 0.375 2.8125 0.375 3.8125 1.375 C4.35621014 6.1881717 4.44496678 10.15871773 2.1875 14.5 C-0.1875 16.375 -0.1875 16.375 -3.375 16.75 C-6.1875 16.375 -6.1875 16.375 -7.1875 15.375 C-7.73121014 10.5618283 -7.81996678 6.59128227 -5.5625 2.25 C-3.1875 0.375 -3.1875 0.375 0 0 Z M-1.1875 1.375 C-5.28459868 5.18860102 -5.28459868 5.18860102 -6.25 10.5 C-6.229375 11.44875 -6.20875 12.3975 -6.1875 13.375 C-4.2075 14.365 -4.2075 14.365 -2.1875 15.375 C-0.00014648 13.94490998 -0.00014648 13.94490998 1.8125 11.375 C2.16692445 8.34675582 2.04597235 5.41014061 1.8125 2.375 C0.8225 2.045 -0.1675 1.715 -1.1875 1.375 Z " fill="#DFDAD6" transform="translate(175.1875,172.625)"/>
<path d="M0 0 C0.33 0 0.66 0 1 0 C1.12375 0.969375 1.2475 1.93875 1.375 2.9375 C1.58125 3.948125 1.7875 4.95875 2 6 C2.66 6.33 3.32 6.66 4 7 C4 7.33 4 7.66 4 8 C4.99 8.66 5.98 9.32 7 10 C6.67 10.33 6.34 10.66 6 11 C5.76807135 12.51469448 5.58784762 14.03754562 5.4375 15.5625 C5.31181641 16.80193359 5.31181641 16.80193359 5.18359375 18.06640625 C5.12300781 18.70449219 5.06242188 19.34257812 5 20 C4.01 20 3.02 20 2 20 C-0.1103435 15.72115394 -0.24128739 11.86135858 -0.125 7.1875 C-0.11597656 6.49462891 -0.10695312 5.80175781 -0.09765625 5.08789062 C-0.07426157 3.39177605 -0.03839641 1.69584129 0 0 Z " fill="#3E3B39" transform="translate(137,236)"/>
<path d="M0 0 C4 1 4 1 6 3 C5.77358491 9.22641509 5.77358491 9.22641509 3.0625 11.9375 C1 13 1 13 -1 13 C-0.67 8.71 -0.34 4.42 0 0 Z " fill="#F0DCD0" transform="translate(105,184)"/>
<path d="M0 0 C7.42857143 -0.28571429 7.42857143 -0.28571429 11 2 C10.67 3.65 10.34 5.3 10 7 C9.01 7 8.02 7 7 7 C7 5.68 7 4.36 7 3 C6.01 3.495 6.01 3.495 5 4 C5 5.65 5 7.3 5 9 C4.01 9 3.02 9 2 9 C2 8.34 2 7.68 2 7 C1.01 6.34 0.02 5.68 -1 5 C-0.67 3.35 -0.34 1.7 0 0 Z " fill="#DBC9BE" transform="translate(156,95)"/>
<path d="M0 0 C0.66 0 1.32 0 2 0 C2 0.66 2 1.32 2 2 C2.99 1.34 3.98 0.68 5 0 C6.32 0 7.64 0 9 0 C9 4.62 9 9.24 9 14 C8.01 14.495 8.01 14.495 7 15 C7 10.71 7 6.42 7 2 C6.01 2.66 5.02 3.32 4 4 C3.01 4 2.02 4 1 4 C1 7.96 1 11.92 1 16 C0.67 16 0.34 16 0 16 C0 10.72 0 5.44 0 0 Z " fill="#4B443F" transform="translate(189,170)"/>
<path d="M0 0 C2.4375 0.375 2.4375 0.375 5 1 C6.35439668 3.70879335 6.06501451 6.00933268 6 9 C6.99 9.33 7.98 9.66 9 10 C8.525625 10.433125 8.05125 10.86625 7.5625 11.3125 C5.76313043 13.02309613 5.76313043 13.02309613 5 16 C4.34 16 3.68 16 3 16 C2.37542727 12.56484998 2 9.50935186 2 6 C1.38001259 3.98504093 0.72045764 1.9812585 0 0 Z " fill="#292A29" transform="translate(139,156)"/>
<path d="M0 0 C0 1.32 0 2.64 0 4 C-1.32 4 -2.64 4 -4 4 C-4.33 4.66 -4.66 5.32 -5 6 C-5.99 6.495 -5.99 6.495 -7 7 C-7.33 6.34 -7.66 5.68 -8 5 C-9.64363134 4.27840576 -11.31050386 3.60648579 -13 3 C-9.19777044 -0.80222956 -5.07002404 -1.49118354 0 0 Z " fill="#3F3C3A" transform="translate(149,227)"/>
<path d="M0 0 C0.99 0 1.98 0 3 0 C3.05384521 2.29141286 3.09272087 4.58318188 3.125 6.875 C3.14820313 8.15117187 3.17140625 9.42734375 3.1953125 10.7421875 C3 14 3 14 1 16 C0.67 15.01 0.34 14.02 0 13 C-0.33 13 -0.66 13 -1 13 C-1.02686553 11.02090602 -1.04633375 9.04171029 -1.0625 7.0625 C-1.07410156 5.96035156 -1.08570313 4.85820312 -1.09765625 3.72265625 C-1 1 -1 1 0 0 Z " fill="#F3DED1" transform="translate(169,152)"/>
<path d="M0 0 C-0.99 0.495 -0.99 0.495 -2 1 C-2.65772428 4.02934491 -2.65772428 4.02934491 -3 7 C-3.66 7 -4.32 7 -5 7 C-5.33 9.31 -5.66 11.62 -6 14 C-8.12046792 10.46588679 -8.53199289 7.05606165 -9 3 C-5.92807025 0.26939578 -4.09590633 -0.34132553 0 0 Z " fill="#EBD8CC" transform="translate(193,122)"/>
<path d="M0 0 C-0.25 3.375 -0.25 3.375 -1 7 C-3.0625 8.4375 -3.0625 8.4375 -5 9 C-5 8.34 -5 7.68 -5 7 C-5.99 7 -6.98 7 -8 7 C-8.1875 4.625 -8.1875 4.625 -8 2 C-4.77208445 -0.1519437 -3.71599191 -0.20086443 0 0 Z " fill="#353433" transform="translate(193,104)"/>
<path d="M0 0 C3.3 0 6.6 0 10 0 C10.33 0.66 10.66 1.32 11 2 C9.35 2 7.7 2 6 2 C6 6.62 6 11.24 6 16 C5.34 15.67 4.68 15.34 4 15 C4 10.71 4 6.42 4 2 C2.68 2 1.36 2 0 2 C0 1.34 0 0.68 0 0 Z " fill="#48433F" transform="translate(223,166)"/>
<path d="M0 0 C1.98 0 3.96 0 6 0 C6 0.66 6 1.32 6 2 C6.66 2 7.32 2 8 2 C6.86280581 5.41158256 5.95657056 6.11854601 3 8 C2.34 8 1.68 8 1 8 C-0.42944945 5.64561267 -1.08661261 4.51967567 -0.625 1.75 C-0.41875 1.1725 -0.2125 0.595 0 0 Z " fill="#2E2C2B" transform="translate(191,124)"/>
<path d="M0 0 C0.66 0 1.32 0 2 0 C3.6117046 4.8351138 3.60116168 10.19651495 2 15 C1.34 15 0.68 15 0 15 C-1.60116168 10.19651495 -1.6117046 4.8351138 0 0 Z " fill="#E9D5C9" transform="translate(146,148)"/>
<path d="M0 0 C0.33 0 0.66 0 1 0 C1.05386629 2.12472576 1.09273071 4.24983652 1.125 6.375 C1.14820313 7.55835938 1.17140625 8.74171875 1.1953125 9.9609375 C1 13 1 13 -1 15 C-1 14.34 -1 13.68 -1 13 C-1.66 13 -2.32 13 -3 13 C-4.00821159 10.31143576 -4.22736824 8.58296785 -3.17578125 5.88671875 C-2.16604698 3.89205069 -1.11893353 1.9353228 0 0 Z " fill="#4F436B" transform="translate(337,123)"/>
<path d="M0 0 C0.33 0 0.66 0 1 0 C1.8125 3.1875 1.8125 3.1875 2 7 C-0.4375 9.9375 -0.4375 9.9375 -3 12 C-3.33 11.34 -3.66 10.68 -4 10 C-4.66 10 -5.32 10 -6 10 C-6.33 8.35 -6.66 6.7 -7 5 C-3 5 -3 5 -1 6 C-0.67 4.02 -0.34 2.04 0 0 Z " fill="#EEDBCF" transform="translate(212,107)"/>
<path d="M0 0 C0.66 0 1.32 0 2 0 C1.67 2.31 1.34 4.62 1 7 C-0.65 7.33 -2.3 7.66 -4 8 C-4 10.31 -4 12.62 -4 15 C-4.66 15 -5.32 15 -6 15 C-6 10.38 -6 5.76 -6 1 C-5.34 1 -4.68 1 -4 1 C-4 2.98 -4 4.96 -4 7 C-0.77595022 5.33045181 -0.77595022 5.33045181 -0.3125 2.375 C-0.1578125 1.199375 -0.1578125 1.199375 0 0 Z " fill="#47413D" transform="translate(140,180)"/>
<path d="M0 0 C0.66 0 1.32 0 2 0 C2.69685498 1.6210103 3.38222861 3.24696066 4.0625 4.875 C4.63677734 6.23238281 4.63677734 6.23238281 5.22265625 7.6171875 C6 10 6 10 5 12 C4.67 10.68 4.34 9.36 4 8 C3.34 8 2.68 8 2 8 C1.67 8.99 1.34 9.98 1 11 C-1.62962963 7.05555556 -1.62962963 7.05555556 -2 4 C-1.0625 1.75 -1.0625 1.75 0 0 Z " fill="#EFC663" transform="translate(15,106)"/>
<path d="M0 0 C2 0 2 0 4 1.9375 C4.99 2.9584375 4.99 2.9584375 6 4 C8.43387753 5.21693876 10.41838846 5.31959896 13.125 5.5625 C14.03507813 5.64628906 14.94515625 5.73007813 15.8828125 5.81640625 C16.58148438 5.87699219 17.28015625 5.93757813 18 6 C17.67 6.66 17.34 7.32 17 8 C15.10333474 7.91227545 13.20761007 7.80408699 11.3125 7.6875 C10.25675781 7.62949219 9.20101562 7.57148437 8.11328125 7.51171875 C4.69730472 6.95024707 2.6878126 6.17917274 0 4 C0 2.68 0 1.36 0 0 Z " fill="#383530" transform="translate(183,115)"/>
<path d="M0 0 C0.33 0 0.66 0 1 0 C1.0809723 2.43816585 1.14046972 4.87364384 1.1875 7.3125 C1.22520508 8.34793945 1.22520508 8.34793945 1.26367188 9.40429688 C1.33834499 14.55674183 1.33834499 14.55674183 -0.51171875 16.98046875 C-1.00285156 17.31691406 -1.49398438 17.65335938 -2 18 C-2 14 -2 14 -1 13 C-1.66 12.34 -2.32 11.68 -3 11 C-2.57469657 7.17226914 -1.26430036 3.6243277 0 0 Z " fill="#F0C860" transform="translate(14,163)"/>
<path d="M0 0 C-0.33 0.99 -0.66 1.98 -1 3 C-1.66 3 -2.32 3 -3 3 C-3 3.66 -3 4.32 -3 5 C-3.66 5 -4.32 5 -5 5 C-4.67 6.65 -4.34 8.3 -4 10 C-4.99 10.33 -5.98 10.66 -7 11 C-7.93423645 7.98968256 -8.04449911 7.13349732 -7 4 C-7 3.01 -7 2.02 -7 1 C-2.25 0 -2.25 0 0 0 Z " fill="#493B61" transform="translate(148,278)"/>
<path d="M0 0 C1.8871875 0.0309375 1.8871875 0.0309375 3.8125 0.0625 C3.4825 1.0525 3.1525 2.0425 2.8125 3.0625 C-1.59664783 4.16478696 -5.67132401 4.13904536 -10.1875 4.0625 C-9.1975 3.7325 -8.2075 3.4025 -7.1875 3.0625 C-7.1875 2.4025 -7.1875 1.7425 -7.1875 1.0625 C-4.43671116 0.14557039 -2.82801087 -0.04636083 0 0 Z " fill="#FACE4F" transform="translate(60.1875,215.9375)"/>
<path d="M0 0 C1.32 0.33 2.64 0.66 4 1 C4 1.66 4 2.32 4 3 C3.34 3 2.68 3 2 3 C1.67 5.31 1.34 7.62 1 10 C0.01 10.33 -0.98 10.66 -2 11 C-2.28571429 3.57142857 -2.28571429 3.57142857 0 0 Z " fill="#F9CD51" transform="translate(10,174)"/>
<path d="M0 0 C0.99 0 1.98 0 3 0 C2.55170486 1.98146451 2.09107502 3.96014211 1.625 5.9375 C1.36976562 7.03964844 1.11453125 8.14179688 0.8515625 9.27734375 C0.57054688 10.17582031 0.28953125 11.07429687 0 12 C-0.99 12.495 -0.99 12.495 -2 13 C-2 9.37 -2 5.74 -2 2 C-1.34 2 -0.68 2 0 2 C0 1.34 0 0.68 0 0 Z " fill="#B4A9EA" transform="translate(66,128)"/>
<path d="M0 0 C0 4.3441416 -0.17825961 6.13260736 -3.25 9.375 C-4.1575 10.24125 -5.065 11.1075 -6 12 C-7.7140168 13.96484852 -9.35363611 15.97732437 -11 18 C-11.66 17.67 -12.32 17.34 -13 17 C-12.31292969 16.10796875 -11.62585938 15.2159375 -10.91796875 14.296875 C-10.00779952 13.11459332 -9.097644 11.9323011 -8.1875 10.75 C-7.73568359 10.16347656 -7.28386719 9.57695312 -6.81835938 8.97265625 C-4.5268922 5.99542152 -2.24468847 3.01280445 0 0 Z " fill="#9489CE" transform="translate(315,176)"/>
<path d="M0 0 C0.99 0 1.98 0 3 0 C4.74627478 2.61941217 5.38722388 4.03824877 6 7 C5.360625 7.103125 4.72125 7.20625 4.0625 7.3125 C3.381875 7.539375 2.70125 7.76625 2 8 C1.67 8.99 1.34 9.98 1 11 C-0.17571451 7.32589215 -0.07366746 3.83070817 0 0 Z " fill="#272726" transform="translate(173,155)"/>
<path d="M0 0 C2.00240521 2.25270587 2.94368221 3.60577544 3.375 6.625 C3.25125 7.40875 3.1275 8.1925 3 9 C2.01 9.66 1.02 10.32 0 11 C-2 8 -2 8 -1.6875 4.9375 C-1 2 -1 2 0 0 Z " fill="#EDD9CC" transform="translate(139,166)"/>
<path d="M0 0 C0.66 0.33 1.32 0.66 2 1 C2.33 1.99 2.66 2.98 3 4 C1.02 4 -0.96 4 -3 4 C-3.33 4.99 -3.66 5.98 -4 7 C-5.32 6.67 -6.64 6.34 -8 6 C-8 4.68 -8 3.36 -8 2 C-4.71303767 1.20046862 -3.28976808 0.90341064 0 2 C0 1.34 0 0.68 0 0 Z " fill="#282827" transform="translate(167,88)"/>
<path d="M0 0 C0.99 0.33 1.98 0.66 3 1 C3.33 3.97 3.66 6.94 4 10 C-0.6875 6.484375 -0.6875 6.484375 -2 5 C-2 3.68 -2 2.36 -2 1 C-1.34 0.67 -0.68 0.34 0 0 Z " fill="#AA9ADC" transform="translate(211,50)"/>
<path d="M0 0 C0.66 0.33 1.32 0.66 2 1 C2.4140625 3.06640625 2.4140625 3.06640625 2.625 5.5625 C2.69976562 6.38878906 2.77453125 7.21507812 2.8515625 8.06640625 C2.90054688 8.70449219 2.94953125 9.34257812 3 10 C2.01 10.33 1.02 10.66 0 11 C0 9.02 0 7.04 0 5 C-0.99 5 -1.98 5 -3 5 C-3 4.01 -3 3.02 -3 2 C-2.01 2 -1.02 2 0 2 C0 1.34 0 0.68 0 0 Z " fill="#B7A79F" transform="translate(168,142)"/>
<path d="M0 0 C1.65 0 3.3 0 5 0 C4.67 0.66 4.34 1.32 4 2 C5.98 1.67 7.96 1.34 10 1 C10 1.99 10 2.98 10 4 C6.37 4.33 2.74 4.66 -1 5 C-0.67 3.35 -0.34 1.7 0 0 Z " fill="#544F49" transform="translate(161,119)"/>
<path d="M0 0 C0.66 0.33 1.32 0.66 2 1 C1.2884375 1.6496875 1.2884375 1.6496875 0.5625 2.3125 C-1.23686957 4.02309613 -1.23686957 4.02309613 -2 7 C-4.64 7 -7.28 7 -10 7 C-6.81404865 4.36021174 -3.69029454 1.89501612 0 0 Z " fill="#534671" transform="translate(314,331)"/>
<path d="M0 0 C0.66 0.33 1.32 0.66 2 1 C2.33 1.99 2.66 2.98 3 4 C0.69 5.65 -1.62 7.3 -4 9 C-4.25 6.1875 -4.25 6.1875 -4 3 C-2 1.125 -2 1.125 0 0 Z " fill="#F0C85D" transform="translate(4,238)"/>
<path d="M0 0 C2.97 0 5.94 0 9 0 C8.34 1.65 7.68 3.3 7 5 C4.03 4.505 4.03 4.505 1 4 C0.67 2.68 0.34 1.36 0 0 Z " fill="#E5D3C8" transform="translate(155,107)"/>
<path d="M0 0 C0.99 0.66 1.98 1.32 3 2 C2.67 2.33 2.34 2.66 2 3 C1.76807135 4.51469448 1.58784762 6.03754562 1.4375 7.5625 C1.35371094 8.38878906 1.26992187 9.21507812 1.18359375 10.06640625 C1.12300781 10.70449219 1.06242188 11.34257812 1 12 C0.01 12 -0.98 12 -2 12 C-2 11.01 -2 10.02 -2 9 C-1.34 9 -0.68 9 0 9 C-0.33 7.35 -0.66 5.7 -1 4 C-1.66 4 -2.32 4 -3 4 C-3 3.34 -3 2.68 -3 2 C-2.01 1.34 -1.02 0.68 0 0 Z " fill="#373533" transform="translate(141,244)"/>
<path d="M0 0 C3.875 0.875 3.875 0.875 5 2 C5.04063832 3.66617115 5.042721 5.33388095 5 7 C3.35 7.33 1.7 7.66 0 8 C0 5.36 0 2.72 0 0 Z " fill="#F8E5D8" transform="translate(105,184)"/>
<path d="M0 0 C0.99 0 1.98 0 3 0 C2.67 7.26 2.34 14.52 2 22 C1.67 22 1.34 22 1 22 C0.67 14.74 0.34 7.48 0 0 Z " fill="#E6C172" transform="translate(17,122)"/>
<path d="M0 0 C0 3 0 3 -2 6 C-4.125 6.6875 -4.125 6.6875 -6 7 C-6.33 8.98 -6.66 10.96 -7 13 C-7.33 13 -7.66 13 -8 13 C-8 10.03 -8 7.06 -8 4 C-7.01 4 -6.02 4 -5 4 C-5 3.34 -5 2.68 -5 2 C-3.35 1.34 -1.7 0.68 0 0 Z " fill="#EAD6CA" transform="translate(177,103)"/>
<path d="M0 0 C1.125 1.5 1.125 1.5 2 4 C1.57598348 6.7773082 0.81108065 9.29639783 0 12 C-1.32 12.33 -2.64 12.66 -4 13 C-3.52140759 11.39566191 -3.04210442 9.79153584 -2.5625 8.1875 C-2.29566406 7.29417969 -2.02882813 6.40085937 -1.75390625 5.48046875 C-1.19612127 3.64526945 -0.60655425 1.81966274 0 0 Z " fill="#EFC667" transform="translate(100,274)"/>
<path d="M0 0 C-2.85306797 2.32472205 -5.54074837 3.7508258 -9 5 C-9 4.34 -9 3.68 -9 3 C-10.32 3.33 -11.64 3.66 -13 4 C-8.82706447 -0.59022909 -6.10401949 -1.38727716 0 0 Z " fill="#EEC567" transform="translate(26,230)"/>
<path d="M0 0 C-0.8125 2.9375 -0.8125 2.9375 -2 6 C-2.99 6.33 -3.98 6.66 -5 7 C-5.33 4.69 -5.66 2.38 -6 0 C-3.50907189 -1.24546405 -2.58919267 -0.7767578 0 0 Z " fill="#B4A69E" transform="translate(141,180)"/>
<path d="M0 0 C0.33 0.99 0.66 1.98 1 3 C1.66 3.33 2.32 3.66 3 4 C3.33 3.34 3.66 2.68 4 2 C4 3.32 4 4.64 4 6 C3.01 6 2.02 6 1 6 C1 6.99 1 7.98 1 9 C0.01 8.67 -0.98 8.34 -2 8 C-2 5.69 -2 3.38 -2 1 C-1.34 0.67 -0.68 0.34 0 0 Z " fill="#2D2C2A" transform="translate(168,101)"/>
<path d="M0 0 C3.43015461 2.80649013 3.4009765 4.20292951 5 9 C0.71 7.35 -3.58 5.7 -8 4 C-4.29847322 3.07461831 -3.36541838 2.91825838 0 4 C0 2.68 0 1.36 0 0 Z " fill="#B8A2D2" transform="translate(213,66)"/>
<path d="M0 0 C3.3 0 6.6 0 10 0 C10 1.32 10 2.64 10 4 C6.6868604 5.04127245 5.39801692 5.18574123 2.1875 3.6875 C1.465625 3.130625 0.74375 2.57375 0 2 C0 1.34 0 0.68 0 0 Z " fill="#E9D4C9" transform="translate(179,152)"/>
<path d="M0 0 C0.33 1.65 0.66 3.3 1 5 C2.32 4.67 3.64 4.34 5 4 C5 4.66 5 5.32 5 6 C3.71254964 6.38922918 2.41980403 6.76098036 1.125 7.125 C0.04605469 7.43824219 0.04605469 7.43824219 -1.0546875 7.7578125 C-1.69664062 7.83773437 -2.33859375 7.91765625 -3 8 C-3.66 7.34 -4.32 6.68 -5 6 C-3.68 4.68 -2.36 3.36 -1 2 C-1.99 1.67 -2.98 1.34 -4 1 C-2 0 -2 0 0 0 Z " fill="#DFCDC1" transform="translate(192,112)"/>
<path d="M0 0 C0.99 0.33 1.98 0.66 3 1 C3 2.98 3 4.96 3 7 C3.66 7.33 4.32 7.66 5 8 C5 8.66 5 9.32 5 10 C2.69 9.67 0.38 9.34 -2 9 C-1.34 6.03 -0.68 3.06 0 0 Z " fill="#504C48" transform="translate(164,102)"/>
<path d="M0 0 C0.66 0.99 1.32 1.98 2 3 C1.125 5.6875 1.125 5.6875 0 8 C-0.99 8 -1.98 8 -3 8 C-3.33 8.66 -3.66 9.32 -4 10 C-4.66 9.67 -5.32 9.34 -6 9 C-4.02 6.03 -2.04 3.06 0 0 Z " fill="#B2A8EB" transform="translate(69,274)"/>
<path d="M0 0 C0.99 0 1.98 0 3 0 C3.04241723 2.33294775 3.04092937 4.66702567 3 7 C2 8 2 8 -0.5625 8.0625 C-1.366875 8.041875 -2.17125 8.02125 -3 8 C-2.67 7.01 -2.34 6.02 -2 5 C-1.34 4.67 -0.68 4.34 0 4 C0 2.68 0 1.36 0 0 Z " fill="#343330" transform="translate(147,235)"/>
<path d="M0 0 C0.33 0 0.66 0 1 0 C1.28875 0.969375 1.5775 1.93875 1.875 2.9375 C2.64214682 6.10664203 2.64214682 6.10664203 5 7 C5 7.66 5 8.32 5 9 C3.125 9.625 3.125 9.625 1 10 C-1 8 -1 8 -1.1875 5 C-1 2 -1 2 0 0 Z " fill="#454240" transform="translate(170,178)"/>
<path d="M0 0 C0.93065133 2.60582371 1.14917407 3.64198224 0.0625 6.25 C-0.4634375 7.11625 -0.4634375 7.11625 -1 8 C-1.99 7.67 -2.98 7.34 -4 7 C-4.33 7.66 -4.66 8.32 -5 9 C-5.99 8.67 -6.98 8.34 -8 8 C-8 7.34 -8 6.68 -8 6 C-6.02 6 -4.04 6 -2 6 C-2 4.68 -2 3.36 -2 2 C-1.34 2 -0.68 2 0 2 C0 1.34 0 0.68 0 0 Z " fill="#44403D" transform="translate(172,86)"/>
<path d="M0 0 C2.62187494 1.04874998 3.79371361 1.64931313 5.25 4.125 C5.4975 4.74375 5.745 5.3625 6 6 C2.25 7.125 2.25 7.125 0 6 C0 4.02 0 2.04 0 0 Z " fill="#FACD4D" transform="translate(0,88)"/>
<path d="M0 0 C0.66 1.32 1.32 2.64 2 4 C-0.46153846 7.81538462 -0.46153846 7.81538462 -3.1875 8.75 C-4.0846875 8.87375 -4.0846875 8.87375 -5 9 C-3.7508258 5.54074837 -2.32472205 2.85306797 0 0 Z " fill="#AEA4EA" transform="translate(61,286)"/>
<path d="M0 0 C0.66 0.33 1.32 0.66 2 1 C2 4.63 2 8.26 2 12 C1.34 12 0.68 12 0 12 C0 10.68 0 9.36 0 8 C-0.66 8 -1.32 8 -2 8 C-2 7.34 -2 6.68 -2 6 C-1.34 6 -0.68 6 0 6 C0 4.02 0 2.04 0 0 Z " fill="#4E4844" transform="translate(214,170)"/>
<path d="M0 0 C2 2 2 2 2 5 C2.66 5.33 3.32 5.66 4 6 C3.34 6 2.68 6 2 6 C2 6.66 2 7.32 2 8 C1.01 8 0.02 8 -1 8 C-1.33 5.69 -1.66 3.38 -2 1 C-1.34 0.67 -0.68 0.34 0 0 Z " fill="#3B3935" transform="translate(145,171)"/>
<path d="M0 0 C0.66 0.33 1.32 0.66 2 1 C2 1.99 2 2.98 2 4 C1.01 4 0.02 4 -1 4 C-1 4.66 -1 5.32 -1 6 C-3.97 5.505 -3.97 5.505 -7 5 C-4.702779 3.25728062 -2.40133271 1.60088848 0 0 Z " fill="#AEA4EC" transform="translate(323,313)"/>
<path d="M0 0 C0.33 0 0.66 0 1 0 C2.03590199 5.05002222 2.10251672 9.87416389 2 15 C1.67 15 1.34 15 1 15 C0.814375 13.88625 0.814375 13.88625 0.625 12.75 C0.16167794 10.03141621 0.16167794 10.03141621 -1.1875 8.0625 C-2.40809112 4.96407639 -1.21775065 2.9767238 0 0 Z " fill="#CDBDB2" transform="translate(166,192)"/>
<path d="M0 0 C1.15392455 2.3078491 1.53437166 4.47230331 2 7 C2.99 7.33 3.98 7.66 5 8 C5 8.99 5 9.98 5 11 C3.125 10.6875 3.125 10.6875 1 10 C-1.29404844 6.55892734 -1.26293056 5.03160191 -1 1 C-0.67 0.67 -0.34 0.34 0 0 Z " fill="#B0A6EC" transform="translate(219,306)"/>
<path d="M0 0 C2 2 2 2 2.125 4.625 C2.08375 5.40875 2.0425 6.1925 2 7 C0.35 7.33 -1.3 7.66 -3 8 C-1.125 1.125 -1.125 1.125 0 0 Z " fill="#ECD9CD" transform="translate(212,169)"/>
<path d="M0 0 C1.1484375 1.640625 1.1484375 1.640625 2 4 C1.1015625 6.796875 1.1015625 6.796875 -0.375 9.75 C-0.85710938 10.73484375 -1.33921875 11.7196875 -1.8359375 12.734375 C-2.22007813 13.48203125 -2.60421875 14.2296875 -3 15 C-4.28497537 11.14507389 -3.4052209 9.59653164 -2.0625 5.8125 C-1.68222656 4.72582031 -1.30195313 3.63914063 -0.91015625 2.51953125 C-0.60980469 1.68808594 -0.30945313 0.85664063 0 0 Z " fill="#B6A3D2" transform="translate(20,160)"/>
<path d="M0 0 C0.33 0 0.66 0 1 0 C1.66 5.94 2.32 11.88 3 18 C2.34 17.67 1.68 17.34 1 17 C1 16.01 1 15.02 1 14 C0.34 14 -0.32 14 -1 14 C-0.67 9.38 -0.34 4.76 0 0 Z " fill="#B7A4CD" transform="translate(85,320)"/>
<path d="M0 0 C-0.33 1.65 -0.66 3.3 -1 5 C-3.31 5 -5.62 5 -8 5 C-3.16129032 0 -3.16129032 0 0 0 Z " fill="#52456F" transform="translate(338,317)"/>
<path d="M0 0 C3.3 0 6.6 0 10 0 C10.33 0.66 10.66 1.32 11 2 C9.02 2 7.04 2 5 2 C4.67 2.66 4.34 3.32 4 4 C4 3.34 4 2.68 4 2 C2.68 2 1.36 2 0 2 C0 1.34 0 0.68 0 0 Z " fill="#5D5650" transform="translate(223,166)"/>
<path d="M0 0 C0.99 0.66 1.98 1.32 3 2 C3 3.32 3 4.64 3 6 C1.35 6.66 -0.3 7.32 -2 8 C-2.33 7.01 -2.66 6.02 -3 5 C-2.34 4.67 -1.68 4.34 -1 4 C-0.34786708 1.97536745 -0.34786708 1.97536745 0 0 Z " fill="#58524D" transform="translate(212,113)"/>
<path d="M0 0 C1.32 0.99 2.64 1.98 4 3 C3.67 3.66 3.34 4.32 3 5 C2.34 4.67 1.68 4.34 1 4 C0.67 5.32 0.34 6.64 0 8 C0 7.01 0 6.02 0 5 C-0.66 5 -1.32 5 -2 5 C-2 3.68 -2 2.36 -2 1 C-1.34 0.67 -0.68 0.34 0 0 Z " fill="#F6DFDC" transform="translate(251,103)"/>
<path d="M0 0 C2.475 0.495 2.475 0.495 5 1 C5 1.66 5 2.32 5 3 C7.475 3.99 7.475 3.99 10 5 C7 7 7 7 5 7 C4.67 5.35 4.34 3.7 4 2 C3.01 2.33 2.02 2.66 1 3 C0.67 2.01 0.34 1.02 0 0 Z " fill="#F5DBD1" transform="translate(219,76)"/>
<path d="M0 0 C0.99 0 1.98 0 3 0 C3 1.32 3 2.64 3 4 C3.66 4 4.32 4 5 4 C5 4.66 5 5.32 5 6 C3.68 6.33 2.36 6.66 1 7 C0.67 4.69 0.34 2.38 0 0 Z " fill="#9E92DF" transform="translate(129,319)"/>
<path d="M0 0 C0.33 0.66 0.66 1.32 1 2 C0.0625 4.625 0.0625 4.625 -1 7 C-0.34 7.33 0.32 7.66 1 8 C-0.375 9.5 -0.375 9.5 -2 11 C-2.66 11 -3.32 11 -4 11 C-3.21681311 7.08406554 -1.60820142 3.63593365 0 0 Z " fill="#B4A7E2" transform="translate(266,209)"/>
<path d="M0 0 C2 2 2 2 2 6 C0.35 6 -1.3 6 -3 6 C-3 5.34 -3 4.68 -3 4 C-3.66 3.67 -4.32 3.34 -5 3 C-3.35 2.67 -1.7 2.34 0 2 C0 1.34 0 0.68 0 0 Z " fill="#EAD7CB" transform="translate(141,185)"/>
<path d="M0 0 C2.31 0 4.62 0 7 0 C6.01 1.485 6.01 1.485 5 3 C2.8359375 3.29296875 2.8359375 3.29296875 0.375 3.1875 C-0.44226563 3.16042969 -1.25953125 3.13335937 -2.1015625 3.10546875 C-2.72804687 3.07066406 -3.35453125 3.03585938 -4 3 C-2.68 2.67 -1.36 2.34 0 2 C0 1.34 0 0.68 0 0 Z " fill="#282929" transform="translate(163,171)"/>
<path d="M0 0 C0.99 0.33 1.98 0.66 3 1 C2.01 2.98 1.02 4.96 0 7 C-0.99 6.67 -1.98 6.34 -3 6 C-1.125 1.125 -1.125 1.125 0 0 Z " fill="#9A8FD9" transform="translate(325,160)"/>
<path d="M0 0 C0.33 0 0.66 0 1 0 C1.125 6.625 1.125 6.625 0 10 C-0.66 10 -1.32 10 -2 10 C-1.85950482 8.52031676 -1.71245174 7.04125484 -1.5625 5.5625 C-1.48128906 4.73878906 -1.40007812 3.91507813 -1.31640625 3.06640625 C-1 1 -1 1 0 0 Z " fill="#F6E2D5" transform="translate(148,153)"/>
<path d="M0 0 C0 0.99 0 1.98 0 3 C-0.66 3 -1.32 3 -2 3 C-2.33 3.99 -2.66 4.98 -3 6 C-4.65 5.67 -6.3 5.34 -8 5 C-6.45487538 1.90975077 -3.48715062 0 0 0 Z " fill="#554873" transform="translate(324,326)"/>
<path d="M0 0 C0.66 0 1.32 0 2 0 C1.42647107 3.87132028 -0.48704352 6.08172796 -3 9 C-2.5020163 5.26512223 -2.12508244 3.18762365 0 0 Z " fill="#988BD4" transform="translate(141,291)"/>
<path d="M0 0 C0.99 0.33 1.98 0.66 3 1 C3 1.66 3 2.32 3 3 C1.824375 3.433125 1.824375 3.433125 0.625 3.875 C-2.09671632 4.84912254 -2.09671632 4.84912254 -4 7 C-3.6875 4.625 -3.6875 4.625 -3 2 C-2.01 1.34 -1.02 0.68 0 0 Z " fill="#F0DDD0" transform="translate(138,225)"/>
<path d="M0 0 C0.66 0.33 1.32 0.66 2 1 C2 1.99 2 2.98 2 4 C-1.32534757 5.10844919 -3.62182575 4.84454356 -7 4 C-7 3.67 -7 3.34 -7 3 C-5.5459375 2.5359375 -5.5459375 2.5359375 -4.0625 2.0625 C-1.15934208 1.30476658 -1.15934208 1.30476658 0 0 Z " fill="#393836" transform="translate(177,186)"/>
<path d="M0 0 C0.33 0.66 0.66 1.32 1 2 C1.66 2.33 2.32 2.66 3 3 C0.69 4.65 -1.62 6.3 -4 8 C-2.87548273 5.0280615 -1.77706209 2.66559313 0 0 Z " fill="#B1A7EA" transform="translate(51,181)"/>
<path d="M0 0 C0.99 0 1.98 0 3 0 C3.125 2.875 3.125 2.875 3 6 C2.34 6.66 1.68 7.32 1 8 C0.33333333 6 -0.33333333 4 -1 2 C-0.67 1.34 -0.34 0.68 0 0 Z " fill="#FCE8DA" transform="translate(169,160)"/>
<path d="M0 0 C0.66 0.99 1.32 1.98 2 3 C0.95125002 5.62187494 0.35068687 6.79371361 -2.125 8.25 C-2.74375 8.4975 -3.3625 8.745 -4 9 C-2.94124926 5.59687262 -1.99097846 2.98646769 0 0 Z " fill="#EFDDDB" transform="translate(75,116)"/>
<path d="M0 0 C0.99 0.33 1.98 0.66 3 1 C1.515 4.465 1.515 4.465 0 8 C-0.33 8 -0.66 8 -1 8 C-1.04241723 5.66705225 -1.04092937 3.33297433 -1 1 C-0.67 0.67 -0.34 0.34 0 0 Z " fill="#433E3B" transform="translate(147,193)"/>
<path d="M0 0 C0.33 0.66 0.66 1.32 1 2 C1.66 2 2.32 2 3 2 C2.67 3.65 2.34 5.3 2 7 C1.01 6.67 0.02 6.34 -1 6 C-1.33 4.35 -1.66 2.7 -2 1 C-1.34 0.67 -0.68 0.34 0 0 Z " fill="#282728" transform="translate(180,184)"/>
<path d="M0 0 C2.475 0.495 2.475 0.495 5 1 C4 4 4 4 1.9375 5.1875 C1.298125 5.455625 0.65875 5.72375 0 6 C0 4.02 0 2.04 0 0 Z " fill="#FEEADB" transform="translate(170,108)"/>
<path d="M0 0 C0.66 0.66 1.32 1.32 2 2 C1.625 4.125 1.625 4.125 1 6 C0.01 6 -0.98 6 -2 6 C-2 4.68 -2 3.36 -2 2 C-2.66 1.67 -3.32 1.34 -4 1 C-2.125 0.375 -2.125 0.375 0 0 Z " fill="#B2A69C" transform="translate(165,96)"/>
<path d="M0 0 C0 0.99 0 1.98 0 3 C-2.64 3 -5.28 3 -8 3 C-8 2.34 -8 1.68 -8 1 C-2.25 -1.125 -2.25 -1.125 0 0 Z " fill="#E8D5C8" transform="translate(152,242)"/>
<path d="M0 0 C0 2.70254461 -0.03430669 4.50529228 -1 7 C-3.0625 8.25 -3.0625 8.25 -5 9 C-3.7508258 5.54074837 -2.32472205 2.85306797 0 0 Z " fill="#988DD7" transform="translate(315,176)"/>
<path d="M0 0 C2.35953094 2.35953094 2.49141413 3.77895617 3 7 C2.01 7.66 1.02 8.32 0 9 C0 6.03 0 3.06 0 0 Z " fill="#B7AFED" transform="translate(0,112)"/>
<path d="M0 0 C2.1385485 2.1385485 2.42655063 3.13275314 3 6 C2.34 6 1.68 6 1 6 C0.67 5.67 0.34 5.34 0 5 C-0.33 5.99 -0.66 6.98 -1 8 C-1.33 6.02 -1.66 4.04 -2 2 C-1.34 2 -0.68 2 0 2 C0 1.34 0 0.68 0 0 Z " fill="#DAC7BD" transform="translate(158,114)"/>
<path d="M0 0 C1.98 0.99 1.98 0.99 4 2 C3.34 3.98 2.68 5.96 2 8 C1.34 7.67 0.68 7.34 0 7 C0 4.69 0 2.38 0 0 Z " fill="#E1CDC0" transform="translate(168,252)"/>
<path d="M0 0 C0.28875 0.61875 0.5775 1.2375 0.875 1.875 C1.93720042 4.13325765 1.93720042 4.13325765 4 6 C3.01 6 2.02 6 1 6 C0.67 6.66 0.34 7.32 0 8 C0 7.34 0 6.68 0 6 C-1.32 5.67 -2.64 5.34 -4 5 C-3.01 4.67 -2.02 4.34 -1 4 C-0.26676204 1.98491642 -0.26676204 1.98491642 0 0 Z " fill="#DFCCC1" transform="translate(164,240)"/>
<path d="M0 0 C0.99 0.33 1.98 0.66 3 1 C1.25 5.875 1.25 5.875 -1 7 C-0.67 4.69 -0.34 2.38 0 0 Z " fill="#F0DBD1" transform="translate(254,225)"/>
<path d="M0 0 C0.66 0 1.32 0 2 0 C2.33 1.32 2.66 2.64 3 4 C1.35 4.33 -0.3 4.66 -2 5 C-1.34 3.35 -0.68 1.7 0 0 Z " fill="#B0A1D8" transform="translate(12,181)"/>
<path d="M0 0 C0.99 0.33 1.98 0.66 3 1 C3 1.66 3 2.32 3 3 C1.02 3.66 -0.96 4.32 -3 5 C-3.66 4.34 -4.32 3.68 -5 3 C-3.35 2.67 -1.7 2.34 0 2 C0 1.34 0 0.68 0 0 Z " fill="#E6D3C7" transform="translate(168,117)"/>
<path d="M0 0 C0.99 0.33 1.98 0.66 3 1 C2.67 2.32 2.34 3.64 2 5 C1.01 5 0.02 5 -1 5 C-0.67 3.35 -0.34 1.7 0 0 Z " fill="#F6E2D4" transform="translate(198,112)"/>
<path d="M0 0 C1.9375 0.6875 1.9375 0.6875 4 2 C4.75 4.625 4.75 4.625 5 7 C4.34 7 3.68 7 3 7 C3 6.34 3 5.68 3 5 C2.01 5 1.02 5 0 5 C0 3.35 0 1.7 0 0 Z " fill="#423C38" transform="translate(185,106)"/>
</svg>
