<?xml version="1.0" encoding="UTF-8"?>
<svg version="1.1" xmlns="http://www.w3.org/2000/svg" width="335" height="334">
<path d="M0 0 C110.55 0 221.1 0 335 0 C335 110.22 335 220.44 335 334 C224.45 334 113.9 334 0 334 C0 223.78 0 113.56 0 0 Z " fill="#FDE6D8" transform="translate(0,0)"/>
<path d="M0 0 C110.55 0 221.1 0 335 0 C335 75.24 335 150.48 335 228 C322.0086326 235.42363851 306.9573474 234.27184827 292.578125 230.98828125 C287.55553976 229.60103882 282.65757309 227.92689661 277.7421875 226.20703125 C271.92259926 224.32994068 266.00657484 223.13838013 260 222 C261.29627053 217.83341614 262.90745513 214.07671434 264.875 210.1875 C268.54024852 202.39996709 270.29336194 194.40191047 272 186 C272.26369385 184.83827271 272.26369385 184.83827271 272.53271484 183.65307617 C277.06711143 157.90841177 270.89832025 133.43879161 258.19921875 111.20703125 C257 109 257 109 256 106 C255.34 106 254.68 106 254 106 C253.07543138 104.63026871 252.15764906 103.25549851 251.2734375 101.859375 C248.15491951 97.30595609 244.59599365 93.06399576 240 90 C240 89.34 240 88.68 240 88 C239.46375 87.773125 238.9275 87.54625 238.375 87.3125 C236 86 236 86 233.4375 83.8125 C210.84054748 64.77762866 181.80124029 60.00071634 153.171875 62.30859375 C143.07558146 63.71361982 132.69437756 66.15049965 123.7109375 71.078125 C122 72 122 72 118.6875 73.3125 C106.92881452 78.35572854 97.91534441 87.08465559 89 96 C86.50415039 96.34716797 86.50415039 96.34716797 83.34765625 96.4921875 C82.1877417 96.5550293 81.02782715 96.61787109 79.83276367 96.68261719 C78.58857666 96.74610352 77.34438965 96.80958984 76.0625 96.875 C48.47774304 98.59258446 23.24334743 105.44095311 2.42578125 124.75 C1 126 1 126 0 126 C0 84.42 0 42.84 0 0 Z " fill="#FD8B9C" transform="translate(0,0)"/>
<path d="M0 0 C57.42 0 114.84 0 174 0 C174.144375 19.51125 174.28875 39.0225 174.4375 59.125 C174.50122803 65.2830127 174.56495605 71.44102539 174.63061523 77.78564453 C174.66223145 85.31225586 174.66223145 85.31225586 174.66810608 88.83712769 C174.67884704 91.29612087 174.70345052 93.75507743 174.73902893 96.21383667 C174.79026717 99.9415478 174.79734278 103.66700907 174.79467773 107.39501953 C174.81986449 108.48826601 174.84505125 109.58151249 174.87100124 110.70788765 C174.80213999 117.90255434 174.80213999 117.90255434 172.52882576 121.01278305 C167.38645431 125.65324791 162.48904963 126.36695066 155.71875 126.27734375 C147.56608061 125.44567776 141.12147282 121.1568771 135 116 C134.33097656 115.45214844 133.66195312 114.90429688 132.97265625 114.33984375 C128.15217263 110.27805429 124.03815363 105.82864125 120 101 C118.96029541 99.76917324 117.91871387 98.53992881 116.875 97.3125 C116.43929687 96.79300781 116.00359375 96.27351563 115.5546875 95.73828125 C114.32983519 94.36878557 113.04918851 93.04918851 111.75 91.75 C108.46482056 88.46482056 105.29182835 85.08631793 102.125 81.6875 C101.50222168 81.01960449 100.87944336 80.35170898 100.23779297 79.66357422 C95.39161271 74.45154863 90.69060063 69.13363126 86.0546875 63.734375 C82.45185319 59.59728009 78.83108532 55.81741017 74.58984375 52.3359375 C72.25018076 50.36993076 70.1598615 48.1598615 68 46 C67.175 45.34 66.35 44.68 65.5 44 C63 42 63 42 60.7890625 39.72265625 C44.97080894 24.28102778 24.20994635 13.35806192 4.875 3.04638672 C3.20173885 2.11258499 1.59436742 1.06291161 0 0 Z " fill="#FD8B9C" transform="translate(161,0)"/>
<path d="M0 0 C35.27391031 -1.61351455 35.27391031 -1.61351455 47.23095703 6.79394531 C49.14035377 8.09568695 51.09906845 9.21772808 53.12109375 10.3359375 C69.98005364 19.69989864 87.44758012 31.21709679 101 45 C101.825 45.639375 102.65 46.27875 103.5 46.9375 C106.41562469 49.34289037 108.58330324 52.09996388 111 55 C111.78375 55.61875 112.5675 56.2375 113.375 56.875 C116.22420594 59.18150004 118.4072972 61.68091383 120.78125 64.4609375 C123.61787327 67.70707328 126.55669814 70.85075038 129.5 74 C133.51372379 78.30235874 137.48130893 82.62840143 141.33203125 87.078125 C147.31474607 93.97155753 153.48928356 100.60451748 160 107 C160.825 107.845625 161.65 108.69125 162.5 109.5625 C171.7548336 118.58596276 180.11073647 125.36032746 193.46484375 125.22265625 C198.96186869 124.73986669 202.5980063 122.30149528 207 119 C207 154.97 207 190.94 207 228 C194.0086326 235.42363851 178.9573474 234.27184827 164.578125 230.98828125 C159.55553976 229.60103882 154.65757309 227.92689661 149.7421875 226.20703125 C143.92259926 224.32994068 138.00657484 223.13838013 132 222 C133.29627053 217.83341614 134.90745513 214.07671434 136.875 210.1875 C140.54024852 202.39996709 142.29336194 194.40191047 144 186 C144.1757959 185.22551514 144.3515918 184.45103027 144.53271484 183.65307617 C149.06711143 157.90841177 142.89832025 133.43879161 130.19921875 111.20703125 C129 109 129 109 128 106 C127.34 106 126.68 106 126 106 C125.07543138 104.63026871 124.15764906 103.25549851 123.2734375 101.859375 C120.15491951 97.30595609 116.59599365 93.06399576 112 90 C112 89.34 112 88.68 112 88 C111.46375 87.773125 110.9275 87.54625 110.375 87.3125 C107.89356802 85.94118233 105.91052827 84.26758284 103.7734375 82.41796875 C101.74982578 80.79997084 99.62638194 79.44782229 97.4375 78.0625 C92.2226823 74.6326199 89.00850958 70.93130011 86 65.4375 C83.98292402 61.97065065 81.9274029 59.71320268 79 57 C76.37290888 54.43858616 73.93365292 51.91793914 71.625 49.0625 C69.18970975 46.05145422 66.3826375 43.69795555 63.35546875 41.296875 C62.90816406 40.86890625 62.46085937 40.4409375 62 40 C62 39.34 62 38.68 62 38 C61.38125 37.9175 60.7625 37.835 60.125 37.75 C58 37 58 37 57.0625 35.0625 C56.17811322 32.79184381 56.17811322 32.79184381 53.796875 32.12109375 C50.53008441 30.81163998 48.04510659 29.05424864 45.1875 27 C40.11228825 23.41057702 34.95397566 19.99011066 29.6875 16.6875 C29.04256592 16.27951172 28.39763184 15.87152344 27.7331543 15.45117188 C23.27906213 12.67583781 18.72212492 10.2903092 14 8 C14 7.34 14 6.68 14 6 C12.205625 5.5978125 12.205625 5.5978125 10.375 5.1875 C6.62144624 4.25912994 3.39911194 2.86951157 0 1 C0 0.67 0 0.34 0 0 Z " fill="#FD8B9C" transform="translate(128,0)"/>
<path d="M0 0 C2.28546462 0.37868842 4.55819245 0.8412857 6.8125 1.375 C7.98683594 1.64570313 9.16117187 1.91640625 10.37109375 2.1953125 C16.82775144 3.87842809 22.7454164 6.13061619 28.75 9.0078125 C32.64363412 10.74604202 36.60808485 12.19937967 40.625 13.625 C41.34276611 13.8832959 42.06053223 14.1415918 42.80004883 14.40771484 C43.49122803 14.6495752 44.18240723 14.89143555 44.89453125 15.140625 C45.50530518 15.35493164 46.1160791 15.56923828 46.74536133 15.79003906 C56.52531338 18.55757953 65.16536702 17.375 75.8125 17.375 C75.8125 45.755 75.8125 74.135 75.8125 103.375 C53.67243725 103.8161969 53.67243725 103.8161969 44.2109375 103.91210938 C37.76232957 103.97779028 31.31544478 104.05534992 24.86816406 104.20483398 C19.66788429 104.32464651 14.46945228 104.39018349 9.26789856 104.41864967 C7.28696092 104.43892505 5.30612095 104.4785233 3.32597351 104.53803062 C-12.18529856 104.98549641 -12.18529856 104.98549641 -17.10717773 101.02651978 C-19.17010128 98.22240585 -20.68076106 95.50517609 -22.1875 92.375 C-23.33064562 90.71274353 -24.49430959 89.06420683 -25.6875 87.4375 C-36.30341204 70.43260657 -41.61620384 50.25610641 -42.1875 30.375 C-40.73212432 29.53651196 -39.27309627 28.70436066 -37.8125 27.875 C-36.59433594 27.17890625 -36.59433594 27.17890625 -35.3515625 26.46875 C-33.1875 25.375 -33.1875 25.375 -31.1875 25.375 C-31.1875 24.715 -31.1875 24.055 -31.1875 23.375 C-29.84756987 22.49346702 -28.50471042 21.61623888 -27.15234375 20.75390625 C-20.78772246 16.28728336 -15.57292903 10.89876006 -10.875 4.75 C-7.34743613 0.76447169 -5.34246238 -0.28458637 0 0 Z " fill="#FD8C9B" transform="translate(259.1875,230.625)"/>
<path d="M0 0 C-0.29003906 0.5775 -0.58007812 1.155 -0.87890625 1.75 C-1.57864825 3.15436025 -2.25707429 4.56979235 -2.90234375 6 C-5.29913115 10.63077414 -7.32316213 12.48031522 -12.3125 14.125 C-13.27285156 14.42148438 -14.23320313 14.71796875 -15.22265625 15.0234375 C-24.7151372 18.36115935 -31.93321594 27.1516462 -36.2734375 35.9453125 C-39.36027236 44.67474872 -39.58902443 56.97984806 -36.25 65.6875 C-33.710594 70.95147701 -31.61790902 74.43713636 -26.02734375 76.5078125 C-23.43124889 77.77851714 -22.25581311 78.48392799 -20.96044922 81.09716797 C-20.25809621 83.72202387 -19.7554998 86.3192532 -19.3125 89 C-18.92919985 90.90643527 -18.53860637 92.81141913 -18.140625 94.71484375 C-17.85928711 96.08745361 -17.85928711 96.08745361 -17.57226562 97.48779297 C-15.62378354 106.0414963 -11.16148939 113.87643597 -7.13671875 121.6015625 C-6 124 -6 124 -6 126 C-5.34 126 -4.68 126 -4 126 C-2.67578125 127.390625 -2.67578125 127.390625 -1.3125 129.25 C-0.85488281 129.85328125 -0.39726563 130.4565625 0.07421875 131.078125 C1 133 1 133 0.77709961 134.93334961 C-0.19476697 137.51797123 -1.29143577 138.36302941 -3.5078125 139.98828125 C-4.2402417 140.52670654 -4.9726709 141.06513184 -5.72729492 141.61987305 C-6.5185376 142.17843994 -7.30978027 142.73700684 -8.125 143.3125 C-8.93235596 143.88846924 -9.73971191 144.46443848 -10.5715332 145.05786133 C-27.03459118 156.51752012 -43.79302323 161.62636136 -63.80859375 158.3828125 C-67.04852929 157.50379037 -69.92340934 156.33738122 -73 155 C-73.97212936 154.62386063 -74.94425873 154.24772125 -75.94584656 153.86018372 C-79.59543006 151.94487489 -81.55947969 150.35877214 -84 147 C-86.10653665 139.19631047 -85.3241717 130.69761006 -85.14453125 122.69921875 C-85.12907899 120.29647767 -85.11821592 117.89370307 -85.11174011 115.49092102 C-85.08115246 109.17965905 -84.98280421 102.87114077 -84.87188721 96.56085205 C-84.79275054 91.39940077 -84.76223601 86.23819599 -84.73419666 81.07625103 C-84.69984687 74.92957482 -84.64405736 68.78317159 -84.58203125 62.63671875 C-84.57069468 61.46096472 -84.5593581 60.28521069 -84.54767799 59.07382774 C-84.51050519 55.75815343 -84.45881595 52.44306775 -84.40161133 49.12768555 C-84.39152039 48.14115997 -84.38142944 47.1546344 -84.37103271 46.13821411 C-84.35238663 45.23692276 -84.33374054 44.33563141 -84.31452942 43.4070282 C-84.302086 42.62375499 -84.28964258 41.84048178 -84.27682209 41.03347301 C-84 39 -84 39 -82 36 C-81.34 36 -80.68 36 -80 36 C-79.773125 35.46375 -79.54625 34.9275 -79.3125 34.375 C-70.26769635 18.00821245 -48.54661958 8.15101857 -31.40625 2.9296875 C-20.804269 0.03602755 -10.91952387 -0.23042372 0 0 Z " fill="#FD8B9C" transform="translate(84,100)"/>
<path d="M0 0 C1.29744141 0.50080078 1.29744141 0.50080078 2.62109375 1.01171875 C15.81933183 6.43283214 26.66526271 15.37800321 37 25 C37.63035156 25.57621094 38.26070312 26.15242188 38.91015625 26.74609375 C46.31762323 33.78234371 51.61520898 42.38433438 57 51 C6.18 51 -44.64 51 -97 51 C-91.65879818 29.63519273 -80.97749456 14.26552705 -62.11328125 2.60546875 C-42.80906912 -7.349401 -19.99166423 -8.26830451 0 0 Z " fill="#FD8C9B" transform="translate(160,283)"/>
<path d="M0 0 C2.5625 2.3125 2.5625 2.3125 5 5 C7.87174407 7.45148884 10.54456727 9.46425212 14 11 C14 11.66 14 12.32 14 13 C14.85722656 13.268125 15.71445313 13.53625 16.59765625 13.8125 C20.01276337 15.00445472 23.17825997 16.43493876 26.4375 18 C30.93109741 20.10798048 35.17038243 21.87683312 40 23 C40 23.33 40 23.66 40 24 C39.45698242 24.10546143 38.91396484 24.21092285 38.35449219 24.31958008 C12.41559022 29.37728176 -13.0183468 35.3792759 -32.46875 54.63671875 C-34 56 -34 56 -36 56 C-36.38285156 56.86818359 -36.38285156 56.86818359 -36.7734375 57.75390625 C-38.1239206 60.22692466 -39.67184081 61.91041646 -41.625 63.9375 C-48.13164457 71.09599421 -52.69125698 79.38251396 -57 88 C-70.53 88 -84.06 88 -98 88 C-98 63.91 -98 39.82 -98 15 C-92.72 15.99 -87.44 16.98 -82 18 C-65.21288517 18.65574667 -50.31995204 16.46227871 -34.3984375 11.33984375 C-30.95439485 10.24454697 -27.59286217 9.47090912 -24 9 C-24 8.34 -24 7.68 -24 7 C-23.20335938 6.67386719 -22.40671875 6.34773437 -21.5859375 6.01171875 C-20.52632813 5.57472656 -19.46671875 5.13773438 -18.375 4.6875 C-17.27671875 4.23503906 -16.1784375 3.78257812 -15.046875 3.31640625 C-11.89286631 2.01343548 -11.89286631 2.01343548 -8.625 0.125 C-5.19638576 -1.3444061 -3.51975204 -1.19821346 0 0 Z " fill="#FD8B9C" transform="translate(98,246)"/>
<path d="M0 0 C1.91006011 1.30041079 3.81629034 2.60646386 5.71875 3.91796875 C22.06635344 14.58987613 34.96510818 17.78735577 54.9140625 20.00390625 C54.9140625 32.54390625 54.9140625 45.08390625 54.9140625 58.00390625 C36.47737981 58.32477672 36.47737981 58.32477672 28.59570312 58.39453125 C23.22502116 58.4422888 17.8554341 58.4986731 12.4855957 58.60742188 C8.1542268 58.69458709 3.82403222 58.7422291 -0.50814629 58.76292419 C-2.15766319 58.77766412 -3.80711842 58.8064504 -5.45613289 58.8497467 C-18.38500126 59.17558888 -18.38500126 59.17558888 -22.62229919 56.25674438 C-24.39283424 54.25323183 -25.7468589 52.31006932 -27.0859375 50.00390625 C-27.79621094 49.18664062 -28.50648438 48.369375 -29.23828125 47.52734375 C-34.80512346 40.82764305 -39.01901733 33.66987081 -43.0859375 26.00390625 C-43.54484375 25.153125 -44.00375 24.30234375 -44.4765625 23.42578125 C-48.57085064 15.17953895 -47.5537722 8.42690346 -44.7421875 -0.125 C-44.525625 -0.74246094 -44.3090625 -1.35992187 -44.0859375 -1.99609375 C-43.4259375 -1.99609375 -42.7659375 -1.99609375 -42.0859375 -1.99609375 C-41.8384375 -2.59421875 -41.5909375 -3.19234375 -41.3359375 -3.80859375 C-39.62281623 -6.80655598 -37.63776576 -8.5175564 -34.3125 -9.54296875 C-20.73433392 -12.30624465 -11.07866471 -7.16607299 0 0 Z " fill="#FD8B9C" transform="translate(280.0859375,275.99609375)"/>
<path d="M0 0 C10.71428571 -0.28571429 10.71428571 -0.28571429 15 2 C15.125 9.75 15.125 9.75 14 12 C12.35 12 10.7 12 9 12 C9.54269531 12.25394531 10.08539063 12.50789063 10.64453125 12.76953125 C11.35996094 13.11371094 12.07539063 13.45789063 12.8125 13.8125 C13.87404297 14.31716797 13.87404297 14.31716797 14.95703125 14.83203125 C17.04265971 16.02438863 18.48627898 17.13695874 20 19 C19.6875 21.1875 19.6875 21.1875 19 23 C17.35 23.33 15.7 23.66 14 24 C14 24.66 14 25.32 14 26 C13.01 26 12.02 26 11 26 C11 29.96 11 33.92 11 38 C12.98 38 14.96 38 17 38 C20.67417693 39.39631593 23.9682922 41.41710585 26.140625 44.75 C27.44192081 47.70981008 28.36598389 50.82991943 29 54 C29.33 52.02 29.66 50.04 30 48 C30.66 48 31.32 48 32 48 C31.979375 47.195625 31.95875 46.39125 31.9375 45.5625 C32 43 32 43 33 42 C31.865625 41.608125 30.73125 41.21625 29.5625 40.8125 C26 39 26 39 25.0625 36.3125 C25.041875 35.549375 25.02125 34.78625 25 34 C25.99 33.67 26.98 33.34 28 33 C28.66 34.65 29.32 36.3 30 38 C33.08325358 38.0582253 36.16636505 38.09367134 39.25 38.125 C40.12269531 38.14175781 40.99539062 38.15851563 41.89453125 38.17578125 C42.73886719 38.18222656 43.58320313 38.18867187 44.453125 38.1953125 C45.22817383 38.20578613 46.00322266 38.21625977 46.80175781 38.22705078 C49.32505711 37.96642569 50.88557674 37.39742361 53 36 C53.33 35.01 53.66 34.02 54 33 C55.485 33.495 55.485 33.495 57 34 C56.42655063 36.86724686 56.1385485 37.8614515 54 40 C52.74441363 40.47950649 51.47065742 40.91258669 50.1875 41.3125 C46.13781474 42.74783149 43.92605709 44.83010482 41 48 C40.2575 48.268125 39.515 48.53625 38.75 48.8125 C37.88375 49.4003125 37.88375 49.4003125 37 50 C36.69916079 51.87188844 36.41784194 53.75052593 36.26953125 55.640625 C35.61868416 61.33789518 34.15570923 67.85388825 30 72 C27.73828125 72.171875 27.73828125 72.171875 25.3125 71.75 C24.50425781 71.62109375 23.69601563 71.4921875 22.86328125 71.359375 C21.94095703 71.18148437 21.94095703 71.18148437 21 71 C21.34780569 76.98465659 22.06906104 82.67154132 23.5 88.5 C24.91055636 94.38305213 25.7565692 99.95718844 26 106 C26.04882324 107.15338867 26.04882324 107.15338867 26.09863281 108.33007812 C26.19788622 110.99087162 26.25992533 113.65039728 26.3125 116.3125 C26.35733521 117.60329468 26.35733521 117.60329468 26.40307617 118.92016602 C26.47728912 127.10992381 22.91927798 131.2046244 17.5 137.125 C16.7471875 137.95257813 15.994375 138.78015625 15.21875 139.6328125 C14.4865625 140.41398438 13.754375 141.19515625 13 142 C12.2884375 142.76054687 11.576875 143.52109375 10.84375 144.3046875 C9 146 9 146 7 146 C6.94208156 142.87507749 6.90643254 139.75029234 6.875 136.625 C6.85824219 135.73554688 6.84148437 134.84609375 6.82421875 133.9296875 C6.81777344 133.07890625 6.81132812 132.228125 6.8046875 131.3515625 C6.79421387 130.56604004 6.78374023 129.78051758 6.77294922 128.97119141 C7 127 7 127 9 125 C9.02207488 122.32186601 9.02207488 122.32186601 8.625 119.375 C8.45871094 117.87066406 8.45871094 117.87066406 8.2890625 116.3359375 C8.19367188 115.56507813 8.09828125 114.79421875 8 114 C6.87752146 116.24495708 6.73168079 117.88443155 6.5 120.375 C6.27792832 122.74640826 6.02058419 124.92280927 5.40625 127.2265625 C5.2721875 127.81179687 5.138125 128.39703125 5 129 C5.33 129.33 5.66 129.66 6 130 C6.08848832 132.42496046 6.11527367 134.82123261 6.09765625 137.24609375 C6.09553383 138.33556053 6.09553383 138.33556053 6.09336853 139.44703674 C6.08775443 141.77723239 6.07520695 144.10733326 6.0625 146.4375 C6.05748617 148.00585798 6.05292306 149.57421747 6.04882812 151.14257812 C6.04063924 154.01491197 6.02997358 156.88721057 6.01586914 159.75952148 C5.99813413 163.38101109 6.13594038 165.68268885 7.375 169.0625 C7.63023437 169.77535156 7.88546875 170.48820313 8.1484375 171.22265625 C8.8672375 173.18919715 8.8672375 173.18919715 11 174 C10.67 175.65 10.34 177.3 10 179 C7.5 179.4375 7.5 179.4375 4 179 C-0.22869429 176.01642125 -5.56378108 172.14936323 -6.61083984 166.99023438 C-7.93224118 156.15284211 -8.41917598 145.41081712 -8.625 134.5 C-8.66331699 132.79034771 -8.70237582 131.08071188 -8.7421875 129.37109375 C-8.83663768 125.24753457 -8.92118738 121.12388646 -9 117 C-9.99 117.99 -10.98 118.98 -12 120 C-11.88535985 117.29087219 -11.75862846 114.58320339 -11.625 111.875 C-11.57859375 110.73417969 -11.57859375 110.73417969 -11.53125 109.5703125 C-11.29903298 105.08078337 -10.81136831 101.18308796 -9 97 C-8.01 96.505 -8.01 96.505 -7 96 C-6.67 95.01 -6.34 94.02 -6 93 C-6.66 93 -7.32 93 -8 93 C-8.33 93.99 -8.66 94.98 -9 96 C-11.5625 97.1875 -11.5625 97.1875 -14 98 C-14.391875 96.9275 -14.78375 95.855 -15.1875 94.75 C-16.13504877 92.1670185 -17.14958582 89.67901376 -18.3125 87.18359375 C-18.993125 85.70052734 -18.993125 85.70052734 -19.6875 84.1875 C-20.12449219 83.27355469 -20.56148437 82.35960937 -21.01171875 81.41796875 C-23.54049028 72.67221742 -21.71863809 63.77383555 -19.8125 55.0625 C-19.51762695 53.54172852 -19.51762695 53.54172852 -19.21679688 51.99023438 C-17.65559724 44.72224963 -17.65559724 44.72224963 -14.65625 41.41796875 C-12.0045787 40.00244422 -9.58955884 39.02388236 -6.6875 38.25 C-5.80449219 38.00765625 -4.92148438 37.7653125 -4.01171875 37.515625 C-3.34785156 37.34546875 -2.68398437 37.1753125 -2 37 C-1.10416667 38.79166667 -0.20833333 40.58333333 0.6875 42.375 C1.50541016 44.00695312 1.50541016 44.00695312 2.33984375 45.671875 C3.38216509 47.76142273 4.41715562 49.85466029 5.44140625 51.953125 C5.87324219 52.83484375 6.30507812 53.7165625 6.75 54.625 C7.13671875 55.42164063 7.5234375 56.21828125 7.921875 57.0390625 C8.96339138 59.14936277 8.96339138 59.14936277 11 61 C11.15112305 63.07543945 11.15112305 63.07543945 11.01171875 65.61328125 C10.94114258 66.9909668 10.94114258 66.9909668 10.86914062 68.39648438 C10.80919922 69.35876953 10.74925781 70.32105469 10.6875 71.3125 C10.63916016 72.26318359 10.59082031 73.21386719 10.54101562 74.19335938 C10.29972519 78.56407606 9.93242233 82.71487593 9 87 C6.36 87 3.72 87 1 87 C1 87.66 1 88.32 1 89 C3.0839403 88.88556397 5.16716493 88.75804453 7.25 88.625 C8.99023438 88.52058594 8.99023438 88.52058594 10.765625 88.4140625 C13.70694334 88.03751692 15.49949011 87.5225877 18 86 C17.01 86 16.02 86 15 86 C14.49389097 82.77176021 13.99620093 79.54227635 13.5 76.3125 C13.35691406 75.40048828 13.21382812 74.48847656 13.06640625 73.54882812 C12.86337891 72.21948242 12.86337891 72.21948242 12.65625 70.86328125 C12.53056641 70.05157471 12.40488281 69.23986816 12.27539062 68.40356445 C11.70484195 63.42390865 12.12617531 60.49571418 14.265625 55.9140625 C15.50828992 52.6752018 15.6980551 49.44217188 16 46 C15.34 46 14.68 46 14 46 C14 45.01 14 44.02 14 43 C10.04 43 6.08 43 2 43 C0 33.375 0 33.375 0 30 C0.639375 29.87625 1.27875 29.7525 1.9375 29.625 C2.618125 29.41875 3.29875 29.2125 4 29 C4.33 28.34 4.66 27.68 5 27 C2.36 26.67 -0.28 26.34 -3 26 C-1.6875 24.5 -1.6875 24.5 0 23 C0.99 23 1.98 23 3 23 C2.505 20.525 2.505 20.525 2 18 C2.99 17.67 3.98 17.34 5 17 C5 18.32 5 19.64 5 21 C5.99 21 6.98 21 8 21 C8 19.35 8 17.7 8 16 C4.7 15.34 1.4 14.68 -2 14 C-2 14.99 -2 15.98 -2 17 C-1.34 17 -0.68 17 0 17 C0 17.66 0 18.32 0 19 C-2.3125 19.25 -2.3125 19.25 -5 19 C-6.875 17.3125 -6.875 17.3125 -8 15 C-7.6875 12.25 -7.6875 12.25 -7 10 C-5.02 10 -3.04 10 -1 10 C-0.67 6.7 -0.34 3.4 0 0 Z " fill="#2E2E2D" transform="translate(158,78)"/>
<path d="M0 0 C6.94217575 -0.54012351 11.25727483 1.08791197 17.375 4.25 C19.05757586 5.08408776 20.74116004 5.91614478 22.42578125 6.74609375 C23.6180835 7.33946533 23.6180835 7.33946533 24.83447266 7.94482422 C28.79809111 9.87613865 32.88306005 11.43517866 37 13 C53.04323387 19.10683529 67.83226207 26.9547613 81 38 C81.77214844 38.5259375 82.54429687 39.051875 83.33984375 39.59375 C83.88769531 40.0578125 84.43554688 40.521875 85 41 C85 41.99 85 42.98 85 44 C85.598125 44.23976562 86.19625 44.47953125 86.8125 44.7265625 C89.49140213 46.28606624 90.39615819 47.72699035 92 50.375 C92.90685547 51.85033203 92.90685547 51.85033203 93.83203125 53.35546875 C95.47328432 56.09711625 97.08641766 58.85482361 98.69921875 61.61328125 C109.08783811 79.51141373 109.08783811 79.51141373 122.34375 95.3125 C124 97 124 97 124 99 C125.485 99.495 125.485 99.495 127 100 C128.20937722 101.44298342 129.4151986 102.88934652 130.59033203 104.36035156 C132.91637033 107.06587169 135.62493242 109.1973161 138.4375 111.375 C138.98470703 111.82488281 139.53191406 112.27476563 140.09570312 112.73828125 C142.82554544 114.86400462 144.77931037 115.96736468 148.22265625 116.4765625 C150.97431053 116.1968128 150.97431053 116.1968128 152.85546875 114.76953125 C154.99349458 111.46398279 154.39865874 107.79052575 154 104 C153.34561559 101.99594773 152.67939174 99.99571323 152 98 C151.47785964 94.1734571 151.32734825 91.03700478 153.5 87.6875 C156.30155516 85.79645026 158.99002177 84.73904962 162.1953125 83.7109375 C164.21000614 83.05581127 164.21000614 83.05581127 166 81 C169.38783943 71.68700704 165.21799527 59.99847047 162.3125 51.0625 C161.95236816 49.92731934 161.59223633 48.79213867 161.22119141 47.62255859 C157.50691831 36.11704952 152.80292021 25.39747649 147.31640625 14.625 C144.92536623 9.85711011 142.9811466 4.95286651 141 0 C151.89 0 162.78 0 174 0 C174.15810194 15.41198559 174.28701134 30.82356903 174.3626852 46.23614693 C174.3987583 53.39275294 174.44792469 60.54881883 174.52807617 67.70507812 C174.5979151 73.94357158 174.64302333 80.18167385 174.65861946 86.42054737 C174.66773485 89.72335732 174.69279199 93.02478927 174.7401104 96.32730484 C174.79088005 100.01721981 174.79792518 103.70481187 174.79467773 107.39501953 C174.83242813 109.03176888 174.83242813 109.03176888 174.87094116 110.70158386 C174.80230518 117.90232835 174.80230518 117.90232835 172.52882576 121.01278305 C167.38645431 125.65324791 162.48904963 126.36695066 155.71875 126.27734375 C147.56608061 125.44567776 141.12147282 121.1568771 135 116 C134.33097656 115.45214844 133.66195312 114.90429688 132.97265625 114.33984375 C128.15217263 110.27805429 124.03815363 105.82864125 120 101 C118.96029541 99.76917324 117.91871387 98.53992881 116.875 97.3125 C116.43929687 96.79300781 116.00359375 96.27351563 115.5546875 95.73828125 C114.32983519 94.36878557 113.04918851 93.04918851 111.75 91.75 C108.46482056 88.46482056 105.29182835 85.08631793 102.125 81.6875 C101.50222168 81.01960449 100.87944336 80.35170898 100.23779297 79.66357422 C95.39161271 74.45154863 90.69060063 69.13363126 86.0546875 63.734375 C82.45185319 59.59728009 78.83108532 55.81741017 74.58984375 52.3359375 C72.25018076 50.36993076 70.1598615 48.1598615 68 46 C67.175 45.34 66.35 44.68 65.5 44 C63 42 63 42 60.7890625 39.72265625 C44.97080894 24.28102778 24.20994635 13.35806192 4.875 3.04638672 C3.20173885 2.11258499 1.59436742 1.06291161 0 0 Z " fill="#FCF9F9" transform="translate(161,0)"/>
<path d="M0 0 C0.28617187 0.62648437 0.57234375 1.25296875 0.8671875 1.8984375 C2.1964448 4.36443898 3.76867522 5.36369516 6 7 C6 7.66 6 8.32 6 9 C6.72960937 9.2784375 7.45921875 9.556875 8.2109375 9.84375 C10.80128213 10.91761836 13.16923484 12.15302513 15.625 13.5 C27.2181635 19.34833695 38.11681579 18.90669214 50.14453125 14.97265625 C51.08683594 14.65167969 52.02914062 14.33070313 53 14 C53.99 13.67 54.98 13.34 56 13 C57.12001826 11.17765712 57.12001826 11.17765712 58 9 C59.33333333 6.33333333 60.66666667 3.66666667 62 1 C62.33 1 62.66 1 63 1 C63 14.53 63 28.06 63 42 C50.0086326 49.42363851 34.9573474 48.27184827 20.578125 44.98828125 C15.55553976 43.60103882 10.65757309 41.92689661 5.7421875 40.20703125 C-0.07740074 38.32994068 -5.99342516 37.13838013 -12 36 C-10.70372947 31.83341614 -9.09254487 28.07671434 -7.125 24.1875 C-3.45408654 16.4138009 -1.70831841 8.39085807 0 0 Z " fill="#FD8B9B" transform="translate(272,186)"/>
<path d="M0 0 C0 0.66 0 1.32 0 2 C0.71285156 2.09667969 1.42570313 2.19335938 2.16015625 2.29296875 C18.12835325 6.26854462 35.02137022 25.66302555 44.5625 38.3125 C45.12606201 39.05363037 45.68962402 39.79476074 46.27026367 40.55834961 C50.22934897 45.82468547 53.87380136 51.19012398 57 57 C53.55248965 57.49055483 50.43594439 57.63840054 47 57 C44.30303106 54.83347756 42.80237546 51.9206376 41 49 C39.46041006 46.87246718 37.90841714 44.77158726 36.3125 42.6875 C35.88855957 42.13288086 35.46461914 41.57826172 35.02783203 41.00683594 C28.47114601 32.58482273 20.91726326 24.91584294 12 19 C11.44715332 18.62488281 10.89430664 18.24976563 10.32470703 17.86328125 C1.24177114 11.74048288 -7.39988415 7.02860453 -18 4 C-19.216875 3.63777344 -20.43375 3.27554687 -21.6875 2.90234375 C-36.28024419 -0.64130975 -52.31410801 1.22151227 -66 7 C-67.39025391 7.55880859 -67.39025391 7.55880859 -68.80859375 8.12890625 C-86.29854952 15.95982249 -97.41726148 31.24459217 -104.140625 48.61328125 C-105.14122342 51.39221594 -106.06599383 54.1979815 -107 57 C-114.26 57 -121.52 57 -129 57 C-127.38235208 52.14705625 -125.67599522 48.4448555 -122.9375 44.25 C-122.54336914 43.64164307 -122.14923828 43.03328613 -121.74316406 42.40649414 C-118.01025872 36.78123373 -113.70668772 31.83665543 -109 27 C-108.195625 26.13375 -107.39125 25.2675 -106.5625 24.375 C-93.40320264 12.17857806 -78.1553502 3.23523965 -61 -2 C-60.31969727 -2.20882813 -59.63939453 -2.41765625 -58.93847656 -2.6328125 C-39.02262616 -8.52275984 -19.55831644 -6.62914091 0 0 Z " fill="#FCF8F8" transform="translate(170,277)"/>
<path d="M0 0 C1.65 1.65 3.3 3.3 5 5 C-30.97 5 -66.94 5 -104 5 C-97.58712357 -5.68812738 -86.6035343 -11.69149547 -74.75 -14.75 C-48.98233126 -20.73924192 -21.55769326 -15.46530169 0 0 Z " fill="#FD8B9A" transform="translate(191,329)"/>
<path d="M0 0 C0.08636719 0.969375 0.17273438 1.93875 0.26171875 2.9375 C1.28422634 13.13303105 3.53309395 22.37211299 7 32 C7.22171875 32.6276123 7.4434375 33.25522461 7.671875 33.90185547 C11.14103256 43.5857466 15.72114258 52.32542481 20.92285156 61.1640625 C22.64195256 64.09417119 24.31863887 67.04810807 26 70 C23.89646505 70.0810206 21.79204048 70.13919907 19.6875 70.1875 C18.51574219 70.22230469 17.34398437 70.25710938 16.13671875 70.29296875 C13 70 13 70 11.33203125 68.92578125 C9.75535868 66.64631035 8.40862025 64.26089839 7.06689453 61.83740234 C-3.41709105 43.78191596 -23.74712357 21.75095881 -44 15 C-44 14.34 -44 13.68 -44 13 C-45.134375 12.87625 -46.26875 12.7525 -47.4375 12.625 C-49.2009375 12.315625 -49.2009375 12.315625 -51 12 C-51.33 11.34 -51.66 10.68 -52 10 C-51.41734375 9.96036133 -50.8346875 9.92072266 -50.234375 9.87988281 C-34.41367809 8.75427505 -19.9729012 6.64158394 -5.13671875 0.734375 C-3 0 -3 0 0 0 Z " fill="#FD8D9B" transform="translate(214,264)"/>
<path d="M0 0 C6.94217575 -0.54012351 11.25727483 1.08791197 17.375 4.25 C19.05757586 5.08408776 20.74116004 5.91614478 22.42578125 6.74609375 C23.6180835 7.33946533 23.6180835 7.33946533 24.83447266 7.94482422 C28.79809111 9.87613865 32.88306005 11.43517866 37 13 C53.04323387 19.10683529 67.83226207 26.9547613 81 38 C81.77214844 38.5259375 82.54429687 39.051875 83.33984375 39.59375 C83.88769531 40.0578125 84.43554688 40.521875 85 41 C85 41.99 85 42.98 85 44 C85.598125 44.23976562 86.19625 44.47953125 86.8125 44.7265625 C89.49140213 46.28606624 90.39615819 47.72699035 92 50.375 C92.90685547 51.85033203 92.90685547 51.85033203 93.83203125 53.35546875 C95.47328432 56.09711625 97.08641766 58.85482361 98.69921875 61.61328125 C109.08783811 79.51141373 109.08783811 79.51141373 122.34375 95.3125 C124 97 124 97 124 99 C125.485 99.495 125.485 99.495 127 100 C128.21300023 101.44237506 129.42228745 102.88831965 130.59912109 104.36035156 C132.89520799 107.04778962 135.54279165 109.19480151 138.3125 111.375 C138.84294922 111.82488281 139.37339844 112.27476563 139.91992188 112.73828125 C144.46935502 116.32334353 147.46597335 116.44658448 153 116 C151.71937515 117.7074998 150.38232443 119.37373596 149 121 C148.34 121 147.68 121 147 121 C147 121.66 147 122.32 147 123 C135.7999162 119.04702925 127.43133545 109.91760254 120 101 C118.96052687 99.76897776 117.9189446 98.53973258 116.875 97.3125 C116.43929687 96.79300781 116.00359375 96.27351563 115.5546875 95.73828125 C114.32983519 94.36878557 113.04918851 93.04918851 111.75 91.75 C108.46482056 88.46482056 105.29182835 85.08631793 102.125 81.6875 C101.50222168 81.01960449 100.87944336 80.35170898 100.23779297 79.66357422 C95.39161271 74.45154863 90.69060063 69.13363126 86.0546875 63.734375 C82.45185319 59.59728009 78.83108532 55.81741017 74.58984375 52.3359375 C72.25018076 50.36993076 70.1598615 48.1598615 68 46 C67.175 45.34 66.35 44.68 65.5 44 C63 42 63 42 60.7890625 39.72265625 C44.97080894 24.28102778 24.20994635 13.35806192 4.875 3.04638672 C3.20173885 2.11258499 1.59436742 1.06291161 0 0 Z " fill="#FCF7F7" transform="translate(161,0)"/>
<path d="M0 0 C8.28269616 0.34511234 15.25625007 2.16274304 23.05078125 4.7265625 C33.60794932 8.19187294 43.8388716 10.18437618 54.9375 10.25 C56.23977539 10.2809375 56.23977539 10.2809375 57.56835938 10.3125 C63.224608 10.34670256 66.94013005 9.50777034 72 7 C73.32 6.67 74.64 6.34 76 6 C76 12.6 76 19.2 76 26 C72.09802398 27.30065867 68.37872448 27.18421283 64.3125 27.1875 C63.53455078 27.19974609 62.75660156 27.21199219 61.95507812 27.22460938 C56.66951188 27.23783431 52.0493663 26.53749856 47 25 C45.82179688 24.64421875 44.64359375 24.2884375 43.4296875 23.921875 C37.16454798 21.85644439 31.13888821 19.67423484 25.125 16.9375 C15.22120182 12.56585757 4.70089203 10.40911355 -6 9 C-4.02 6.03 -2.04 3.06 0 0 Z " fill="#FDE004" transform="translate(259,222)"/>
<path d="M0 0 C1.24910156 -0.01675781 2.49820313 -0.03351563 3.78515625 -0.05078125 C14.05875492 0.52806564 21.38888528 5.19624432 29.625 11 C47.36249717 23.13353927 63.07272666 31.70766533 84.9375 32.3125 C84.9375 33.9625 84.9375 35.6125 84.9375 37.3125 C65.48331396 38.40452292 47.57621035 31.52590776 32.125 19.9375 C28.25762979 17.06459641 24.13720814 14.66298181 19.9375 12.3125 C19.22078125 11.89613281 18.5040625 11.47976563 17.765625 11.05078125 C10.8584972 7.45857062 3.21399476 7.05662197 -4.34375 8.85546875 C-7.99332427 10.2549877 -9.95372888 12.09384935 -12.0625 15.3125 C-12.7225 15.3125 -13.3825 15.3125 -14.0625 15.3125 C-16.54895775 25.94654697 -17.34042318 33.52758624 -12.0625 43.3125 C-11.47984375 44.41078125 -10.8971875 45.5090625 -10.296875 46.640625 C-5.5765404 55.32205465 -0.25630725 63.32361537 6.875 70.25 C8.9375 72.3125 8.9375 72.3125 9.9375 75.3125 C7.02779088 75.59885233 4.77996959 75.79410562 1.9375 75.3125 C-0.27077113 73.31887673 -1.46120102 71.94056828 -3 69.5 C-3.6199585 68.57296265 -3.6199585 68.57296265 -4.25244141 67.62719727 C-13.14051445 53.86201828 -23.48319679 35.13259932 -21.0625 18.3125 C-18.42589006 7.54764286 -11.38156905 0.03473521 0 0 Z " fill="#FCF6F6" transform="translate(250.0625,258.6875)"/>
<path d="M0 0 C9.57 0 19.14 0 29 0 C29 23.1 29 46.2 29 70 C26.9359162 66.9038743 26.4725479 65.09421265 25.75 61.5 C24.45859913 55.65264176 22.85543174 49.9631467 21.0625 44.25 C20.82176758 43.47076172 20.58103516 42.69152344 20.33300781 41.88867188 C17.67811367 33.54673356 13.98309367 25.8228821 9.953125 18.06640625 C9 16 9 16 9 14 C8.34 14 7.68 14 7 14 C6.01780373 12.23084525 5.03934641 10.45961431 4.0625 8.6875 C3.51722656 7.70136719 2.97195313 6.71523437 2.41015625 5.69921875 C1 3 1 3 0 0 Z " fill="#FB8B9D" transform="translate(306,0)"/>
<path d="M0 0 C2.37625177 -0.10883596 4.74743976 -0.18766696 7.125 -0.25 C7.79015625 -0.28351562 8.4553125 -0.31703125 9.140625 -0.3515625 C14.34019574 -0.45351487 16.93278545 0.89474076 21 4 C22.67494358 4.93941366 24.36253393 5.85666389 26.0625 6.75 C57.72894119 23.86699524 83.09317262 46.90823941 103.77880859 76.27099609 C105.84015411 79.18951847 107.92109699 82.09396683 110 85 C105.97732011 85 105.10057662 83.5613459 102 81 C100.50571027 80.03278701 99.00520852 79.07513162 97.5 78.125 C92.26716862 74.66247973 89.02476224 70.96097887 86 65.4375 C83.98292402 61.97065065 81.9274029 59.71320268 79 57 C76.37290888 54.43858616 73.93365292 51.91793914 71.625 49.0625 C69.18970975 46.05145422 66.3826375 43.69795555 63.35546875 41.296875 C62.90816406 40.86890625 62.46085937 40.4409375 62 40 C62 39.34 62 38.68 62 38 C61.38125 37.9175 60.7625 37.835 60.125 37.75 C58 37 58 37 57.0625 35.0625 C56.17811322 32.79184381 56.17811322 32.79184381 53.796875 32.12109375 C50.53008441 30.81163998 48.04510659 29.05424864 45.1875 27 C40.11228825 23.41057702 34.95397566 19.99011066 29.6875 16.6875 C29.04256592 16.27951172 28.39763184 15.87152344 27.7331543 15.45117188 C23.27906213 12.67583781 18.72212492 10.2903092 14 8 C14 7.34 14 6.68 14 6 C12.205625 5.5978125 12.205625 5.5978125 10.375 5.1875 C6.62144624 4.25912994 3.39911194 2.86951157 0 1 C0 0.67 0 0.34 0 0 Z " fill="#AA43A9" transform="translate(128,0)"/>
<path d="M0 0 C0.33 0 0.66 0 1 0 C1.09954745 4.69557647 1.17178467 9.39052663 1.21972656 14.08691406 C1.23973053 15.68142408 1.26694301 17.27586178 1.30175781 18.87011719 C1.51965764 29.11140896 1.45483301 36.3996385 -5.1875 44.75 C-13.86091245 51.68872996 -23.14637951 52.44529508 -33.83984375 51.57421875 C-41.94946207 50.65702631 -49.59880484 46.99605476 -56 42 C-56.94875 41.278125 -57.8975 40.55625 -58.875 39.8125 C-61.49730992 36.34179569 -61.49377057 34.31467964 -61.37109375 30.0859375 C-61 28 -61 28 -59 25 C-58.17757813 25.95261719 -57.35515625 26.90523437 -56.5078125 27.88671875 C-46.69300371 39.32129838 -46.69300371 39.32129838 -32.92578125 44.3828125 C-27.19299217 44.59435453 -22.91561353 44.1951488 -18 41 C-17.236875 40.690625 -16.47375 40.38125 -15.6875 40.0625 C-13.79278789 39.11329479 -13.79278789 39.11329479 -13.25 36.875 C-13.1675 36.25625 -13.085 35.6375 -13 35 C-12.34 35 -11.68 35 -11 35 C-10.896875 34.030625 -10.79375 33.06125 -10.6875 32.0625 C-10.16213926 28.36277649 -9.05968295 25.04095181 -7.81640625 21.52734375 C-6.89381644 18.6712882 -6.23088531 15.80055538 -5.5625 12.875 C-4.37744967 7.94569492 -2.7825407 4.22178589 0 0 Z " fill="#A943A9" transform="translate(334,153)"/>
<path d="M0 0 C1.65 0.33 3.3 0.66 5 1 C5 1.66 5 2.32 5 3 C6.09671021 3.01401855 6.09671021 3.01401855 7.21557617 3.02832031 C10.54022718 3.08212664 13.86348678 3.16575504 17.1875 3.25 C18.91323242 3.27126953 18.91323242 3.27126953 20.67382812 3.29296875 C22.34155273 3.34130859 22.34155273 3.34130859 24.04296875 3.390625 C25.57473755 3.4220459 25.57473755 3.4220459 27.13745117 3.45410156 C30.72485248 4.13823199 32.42816573 5.44401812 35 8 C35.8125 11.25 35.8125 11.25 36 14 C35.34 14 34.68 14 34 14 C33.9175 14.61875 33.835 15.2375 33.75 15.875 C33 18 33 18 31.23291016 19.11621094 C28.8248711 20.06931627 27.10312117 20.25799119 24.5234375 20.265625 C23.688125 20.26820312 22.8528125 20.27078125 21.9921875 20.2734375 C21.12851563 20.26570313 20.26484375 20.25796875 19.375 20.25 C18.06789062 20.26160156 18.06789062 20.26160156 16.734375 20.2734375 C15.48527344 20.26957031 15.48527344 20.26957031 14.2109375 20.265625 C13.45087402 20.26336914 12.69081055 20.26111328 11.90771484 20.25878906 C10 20 10 20 8 18 C8 16.68 8 15.36 8 14 C7.01 14.495 7.01 14.495 6 15 C6.33 16.65 6.66 18.3 7 20 C9.97 20.66 12.94 21.32 16 22 C15.01 22.66 14.02 23.32 13 24 C12.27034634 26.56282742 12.27034634 26.56282742 12 29 C11.34 29 10.68 29 10 29 C9.67 31.97 9.34 34.94 9 38 C8.67 38 8.34 38 8 38 C7.83564453 37.00419922 7.83564453 37.00419922 7.66796875 35.98828125 C6.51947207 29.00222558 6.51947207 29.00222558 3 23 C-0.92052115 20.56056462 -4.43388734 19.54358484 -9 19 C-9 15.04 -9 11.08 -9 7 C-8.01 7 -7.02 7 -6 7 C-6 6.34 -6 5.68 -6 5 C-5.195625 4.731875 -4.39125 4.46375 -3.5625 4.1875 C-2.716875 3.795625 -1.87125 3.40375 -1 3 C-0.67 2.01 -0.34 1.02 0 0 Z " fill="#F8E3D6" transform="translate(178,97)"/>
<path d="M0 0 C2.8125 2.3125 2.8125 2.3125 5 5 C5 5.99 5 6.98 5 8 C2.39939496 9.34070318 -0.20504916 10.67273354 -2.8125 12 C-3.91948242 12.57234375 -3.91948242 12.57234375 -5.04882812 13.15625 C-6.11713867 13.69765625 -6.11713867 13.69765625 -7.20703125 14.25 C-7.8616333 14.58515625 -8.51623535 14.9203125 -9.19067383 15.265625 C-11 16 -11 16 -14 16 C-14 16.66 -14 17.32 -14 18 C-17.455364 19.13425882 -20.91478104 20.25564804 -24.375 21.375 C-25.34050781 21.69210937 -26.30601563 22.00921875 -27.30078125 22.3359375 C-45.11176841 28.07370518 -70.31200388 32.84399806 -88 24 C-88 19.38 -88 14.76 -88 10 C-83 13 -83 13 -81.1484375 14.28125 C-70.14257425 21.84475073 -56.95174122 22.39634313 -44 21 C-39.04726331 20.03760895 -34.54306999 18.16528115 -30 16 C-28.60974609 15.34837891 -28.60974609 15.34837891 -27.19140625 14.68359375 C-20.95616628 11.50715075 -15.37036116 7.53593194 -9.85742188 3.2512207 C-6.49959653 0.7236535 -4.24690036 -0.81417261 0 0 Z " fill="#FCF8F8" transform="translate(88,237)"/>
<path d="M0 0 C6.60047018 3.30023509 11.32274247 10.07920827 14.21484375 16.83984375 C14.93525447 19.22329215 15.5257537 21.55678471 16 24 C16.18433594 24.73734375 16.36867188 25.4746875 16.55859375 26.234375 C17.17620629 30.1040182 17.10478222 33.90195604 17.0625 37.8125 C17.041875 40.514375 17.02125 43.21625 17 46 C11.39 46 5.78 46 0 46 C0 30.82 0 15.64 0 0 Z " fill="#2D2224" transform="translate(0,288)"/>
<path d="M0 0 C1.70328319 1.6292274 3.38161281 3.28641357 5 5 C-1.10009098 5.79566404 -4.13376324 3.96101259 -9.2265625 0.71875 C-27.68033123 -10.71738837 -50.58830807 -14.29862069 -71.82617188 -9.81469727 C-78.25343215 -8.23928325 -83.83144791 -6.15486512 -89 -2 C-89.58394531 -1.55140625 -90.16789062 -1.1028125 -90.76953125 -0.640625 C-93.84313877 1.78811427 -93.84313877 1.78811427 -96 5 C-98.64 5 -101.28 5 -104 5 C-98.78093359 -4.66618088 -88.21139729 -10.81832411 -77.9140625 -13.93359375 C-51.07777316 -20.85801902 -22.69917081 -16.28418775 0 0 Z " fill="#FDDB0C" transform="translate(191,329)"/>
<path d="M0 0 C-3.51877479 3.73104426 -7.37583587 6.34433874 -11.66015625 9.12109375 C-14.20925914 11.16803614 -15.37987423 13.19723049 -17 16 C-17.66 16 -18.32 16 -19 16 C-23.30740007 33.24275149 -23.30740007 33.24275149 -19 50 C-18.278125 51.010625 -17.55625 52.02125 -16.8125 53.0625 C-14.61682925 56.62100087 -14.67143104 58.89288795 -15 63 C-18.69269961 63 -20.92658978 62.99179147 -23.6953125 60.43359375 C-31.64237928 50.23019896 -31.99712936 39.9712936 -30.75390625 27.5390625 C-28.77498012 17.54242534 -21.2578036 8.37919319 -13.07421875 2.65234375 C-8.46209255 -0.10308068 -5.18939994 -1.66802141 0 0 Z " fill="#FCF7F7" transform="translate(76,114)"/>
<path d="M0 0 C3.29714793 0.32971479 4.6226839 0.6226839 7 3 C7.25362865 5.96096707 7.37031319 8.78793644 7.375 11.75 C7.39949219 12.54921875 7.42398438 13.3484375 7.44921875 14.171875 C7.48878735 22.19111129 3.7922721 26.34337397 -1.5 32.125 C-2.2528125 32.95257813 -3.005625 33.78015625 -3.78125 34.6328125 C-4.87953125 35.80457031 -4.87953125 35.80457031 -6 37 C-6.7115625 37.76054687 -7.423125 38.52109375 -8.15625 39.3046875 C-10 41 -10 41 -12 41 C-12.05791844 37.87507749 -12.09356746 34.75029234 -12.125 31.625 C-12.14175781 30.73554688 -12.15851563 29.84609375 -12.17578125 28.9296875 C-12.18222656 28.07890625 -12.18867188 27.228125 -12.1953125 26.3515625 C-12.20578613 25.56604004 -12.21625977 24.78051758 -12.22705078 23.97119141 C-12 22 -12 22 -10 20 C-9.85502015 17.41935871 -9.81322455 14.95056116 -9.875 12.375 C-9.88853516 11.31539062 -9.88853516 11.31539062 -9.90234375 10.234375 C-9.92592397 8.48943902 -9.96179539 6.74467705 -10 5 C-9.16855469 4.70996094 -9.16855469 4.70996094 -8.3203125 4.4140625 C-7.59585938 4.15367187 -6.87140625 3.89328125 -6.125 3.625 C-5.04605469 3.24214844 -5.04605469 3.24214844 -3.9453125 2.8515625 C-1.81842006 2.06122217 -1.81842006 2.06122217 0 0 Z " fill="#2D2D2C" transform="translate(177,183)"/>
<path d="M0 0 C1.19044922 0.00902344 2.38089844 0.01804687 3.60742188 0.02734375 C6.50933367 0.05065228 9.41080317 0.08336877 12.3125 0.125 C12.3125 0.785 12.3125 1.445 12.3125 2.125 C11.60343506 2.19493164 10.89437012 2.26486328 10.16381836 2.33691406 C-17.83788048 5.16092001 -48.48932062 11.12158354 -67.48828125 34.32421875 C-68.57787124 35.90878473 -69.63700906 37.51424723 -70.6875 39.125 C-71.3475 39.125 -72.0075 39.125 -72.6875 39.125 C-73.0175 40.115 -73.3475 41.105 -73.6875 42.125 C-74.0175 42.125 -74.3475 42.125 -74.6875 42.125 C-76.19675568 31.27512859 -76.19675568 31.27512859 -72.84765625 26.50390625 C-70.24786973 24.13411664 -67.58975236 22.11198679 -64.6875 20.125 C-63.40746094 19.20460938 -63.40746094 19.20460938 -62.1015625 18.265625 C-43.51944073 5.65433515 -22.34911203 -0.32626441 0 0 Z " fill="#FCF7F7" transform="translate(74.6875,96.875)"/>
<path d="M0 0 C-0.95279969 2.47378269 -1.93257439 4.86927688 -3.1484375 7.2265625 C-10.2097697 21.03439043 -11.60871236 36.72021759 -12 52 C-15.45783802 50.84738733 -15.80618466 50.19468242 -17.625 47.1875 C-18.05039062 46.50042969 -18.47578125 45.81335938 -18.9140625 45.10546875 C-23.6964684 35.83310624 -20.80154659 25.02996198 -17.875 15.640625 C-17.58625 14.76921875 -17.2975 13.8978125 -17 13 C-16.34 13 -15.68 13 -15 13 C-14.90203125 12.40316406 -14.8040625 11.80632812 -14.703125 11.19140625 C-13.128448 6.28366292 -5.1568533 0 0 0 Z " fill="#FD8F9F" transform="translate(74,117)"/>
<path d="M0 0 C10.71428571 -0.28571429 10.71428571 -0.28571429 15 2 C15.125 9.75 15.125 9.75 14 12 C12.35 12 10.7 12 9 12 C9.81404297 12.38091797 9.81404297 12.38091797 10.64453125 12.76953125 C11.35996094 13.11371094 12.07539063 13.45789063 12.8125 13.8125 C13.87404297 14.31716797 13.87404297 14.31716797 14.95703125 14.83203125 C17.04265971 16.02438863 18.48627898 17.13695874 20 19 C19.6875 21.1875 19.6875 21.1875 19 23 C17.35 23.33 15.7 23.66 14 24 C14 24.66 14 25.32 14 26 C13.01 26 12.02 26 11 26 C11 27.32 11 28.64 11 30 C10.34 30 9.68 30 9 30 C7.78620497 25.29654425 7.92797473 20.82569313 8 16 C4.7 15.34 1.4 14.68 -2 14 C-2 14.99 -2 15.98 -2 17 C-1.34 17 -0.68 17 0 17 C0 17.66 0 18.32 0 19 C-2.3125 19.25 -2.3125 19.25 -5 19 C-6.875 17.3125 -6.875 17.3125 -8 15 C-7.6875 12.25 -7.6875 12.25 -7 10 C-5.02 10 -3.04 10 -1 10 C-0.67 6.7 -0.34 3.4 0 0 Z " fill="#2F2E2D" transform="translate(158,78)"/>
<path d="M0 0 C1.65 0.33 3.3 0.66 5 1 C5.33 3.97 5.66 6.94 6 10 C6.886875 9.79375 7.77375 9.5875 8.6875 9.375 C12.35218103 8.96013045 13.88295174 9.0623754 17 11 C19.125 13.5 19.125 13.5 20 17 C18.72508093 20.57404092 16.9648593 23.76150227 15 27 C14.67 26.34 14.34 25.68 14 25 C14.33 24.01 14.66 23.02 15 22 C14.34 22 13.68 22 13 22 C13 22.66 13 23.32 13 24 C12.34 23.67 11.68 23.34 11 23 C11.33 22.01 11.66 21.02 12 20 C11.34 20 10.68 20 10 20 C9.67 20.99 9.34 21.98 9 23 C6.4375 24.1875 6.4375 24.1875 4 25 C3.3114821 23.14100168 2.62343947 21.28182626 1.9375 19.421875 C1.2901398 17.74952782 0.59957943 16.09349232 -0.125 14.453125 C-3.67748092 6.3120229 -3.67748092 6.3120229 -2 1 C-1.34 1.33 -0.68 1.66 0 2 C0 1.34 0 0.68 0 0 Z " fill="#2D2C2B" transform="translate(140,151)"/>
<path d="M0 0 C0.01417969 0.79019531 0.02835938 1.58039063 0.04296875 2.39453125 C0.97445698 24.42296915 9.26931276 52.84792511 25.65332031 68.58837891 C27 70 27 70 27 72 C24.703125 72.24609375 24.703125 72.24609375 22 72 C6.61996114 57.64294537 -2.99817218 27.44091167 -4.171875 7.0078125 C-4.18435715 5.00442787 -4.10717258 3.00055488 -4 1 C-2 0 -2 0 0 0 Z " fill="#FDDA0C" transform="translate(218,262)"/>
<path d="M0 0 C0.33 5.28 0.66 10.56 1 16 C-0.65 16 -2.3 16 -4 16 C-6.10827055 19.16240582 -6.33817465 20.50657469 -6.625 24.1875 C-6.69976562 25.08855469 -6.77453125 25.98960937 -6.8515625 26.91796875 C-6.90054688 27.60503906 -6.94953125 28.29210937 -7 29 C-8.9375 28.1875 -8.9375 28.1875 -11 27 C-12.39071206 22.82786381 -12.38672073 18.6321943 -12.60546875 14.2734375 C-12.50681691 10.84435023 -12.50681691 10.84435023 -14 8 C-14.04063832 6.33382885 -14.042721 4.66611905 -14 3 C-4.49655172 -1.12413793 -4.49655172 -1.12413793 0 0 Z " fill="#312F2E" transform="translate(149,224)"/>
<path d="M0 0 C0.66 0 1.32 0 2 0 C2 0.66 2 1.32 2 2 C2.66 2 3.32 2 4 2 C4.24098866 6.57878446 4.35673395 9.21518532 2.4375 13.4375 C0.9383131 17.15287623 0.98718905 19.27976941 1.60546875 23.1796875 C2.13492106 26.9644852 2.34297604 30.74889964 2.5625 34.5625 C2.60600586 35.29009521 2.64951172 36.01769043 2.69433594 36.76733398 C2.79823819 38.51143716 2.89940862 40.25570274 3 42 C4.98 41.505 4.98 41.505 7 41 C6.67 41.99 6.34 42.98 6 44 C2.57735681 45.42610133 -1.09879533 45.09901205 -4.75 45.0625 C-5.92046875 45.05347656 -7.0909375 45.04445312 -8.296875 45.03515625 C-9.18890625 45.02355469 -10.0809375 45.01195312 -11 45 C-11 44.34 -11 43.68 -11 43 C-8.36 43 -5.72 43 -3 43 C-2.71550686 38.77241402 -2.47845812 34.54345486 -2.25 30.3125 C-2.16878906 29.11431641 -2.08757812 27.91613281 -2.00390625 26.68164062 C-1.94589844 25.52470703 -1.88789063 24.36777344 -1.828125 23.17578125 C-1.7652832 22.11270752 -1.70244141 21.04963379 -1.63769531 19.9543457 C-2.09082356 16.25939632 -3.58274721 14.75053345 -6 12 C-5.875 9.75 -5.875 9.75 -5 8 C-4.34 7.67 -3.68 7.34 -3 7 C-1.94647157 4.69034152 -0.94280904 2.3570226 0 0 Z " fill="#F9E4D8" transform="translate(170,122)"/>
<path d="M0 0 C5.61 0 11.22 0 17 0 C17 8.91 17 17.82 17 27 C14.35538968 23.6942371 12.53372049 21.39081099 10.6875 17.8125 C8.27892267 13.33299636 5.44977819 9.26817447 2.453125 5.1640625 C1 3 1 3 0 0 Z " fill="#A942A9" transform="translate(318,0)"/>
<path d="M0 0 C0.91136719 -0.020625 1.82273438 -0.04125 2.76171875 -0.0625 C3.64214844 -0.06765625 4.52257812 -0.0728125 5.4296875 -0.078125 C6.23390137 -0.0874707 7.03811523 -0.09681641 7.86669922 -0.10644531 C10.63869638 0.33108073 12.02930319 1.43312981 14.125 3.25 C13.795 4.9 13.465 6.55 13.125 8.25 C12.34125 8.188125 11.5575 8.12625 10.75 8.0625 C9.450625 8.1553125 9.450625 8.1553125 8.125 8.25 C7.135 9.735 7.135 9.735 6.125 11.25 C5.526875 10.940625 4.92875 10.63125 4.3125 10.3125 C2.03543228 9.14790296 2.03543228 9.14790296 -0.875 8.25 C-1.205 9.9 -1.535 11.55 -1.875 13.25 C-2.865 13.25 -3.855 13.25 -4.875 13.25 C-5.205 11.6 -5.535 9.95 -5.875 8.25 C-8.185 7.92 -10.495 7.59 -12.875 7.25 C-12.5 4.3125 -12.5 4.3125 -11.875 1.25 C-8.2457059 -0.56464705 -3.99592113 0.02241751 0 0 Z " fill="#312F2E" transform="translate(197.875,100.75)"/>
<path d="M0 0 C0.66 0 1.32 0 2 0 C2 1.32 2 2.64 2 4 C2.99 4 3.98 4 5 4 C5.33 3.01 5.66 2.02 6 1 C6 4.96 6 8.92 6 13 C6.66 13 7.32 13 8 13 C8 15.64 8 18.28 8 21 C9.98 21 11.96 21 14 21 C13.34 21.33 12.68 21.66 12 22 C12.33 24.31 12.66 26.62 13 29 C12.34 29 11.68 29 11 29 C11 28.01 11 27.02 11 26 C7.04 26 3.08 26 -1 26 C-3 16.375 -3 16.375 -3 13 C-2.360625 12.87625 -1.72125 12.7525 -1.0625 12.625 C-0.381875 12.41875 0.29875 12.2125 1 12 C1.33 11.34 1.66 10.68 2 10 C-0.64 9.67 -3.28 9.34 -6 9 C-4.6875 7.5 -4.6875 7.5 -3 6 C-2.01 6 -1.02 6 0 6 C-0.2784375 4.7934375 -0.2784375 4.7934375 -0.5625 3.5625 C-0.706875 2.716875 -0.85125 1.87125 -1 1 C-0.67 0.67 -0.34 0.34 0 0 Z " fill="#45423F" transform="translate(161,95)"/>
<path d="M0 0 C0.66 0 1.32 0 2 0 C2.66 1.65 3.32 3.3 4 5 C7.08325358 5.0582253 10.16636505 5.09367134 13.25 5.125 C14.12269531 5.14175781 14.99539062 5.15851563 15.89453125 5.17578125 C17.16103516 5.18544922 17.16103516 5.18544922 18.453125 5.1953125 C19.22817383 5.20578613 20.00322266 5.21625977 20.80175781 5.22705078 C23.32505711 4.96642569 24.88557674 4.39742361 27 3 C27.33 2.01 27.66 1.02 28 0 C28.99 0.33 29.98 0.66 31 1 C30.42655063 3.86724686 30.1385485 4.8614515 28 7 C26.74441363 7.47950649 25.47065742 7.91258669 24.1875 8.3125 C20.13781474 9.74783149 17.92605709 11.83010482 15 15 C12.6875 16.3125 12.6875 16.3125 11 17 C11 18.65 11 20.3 11 22 C9.02 21.67 7.04 21.34 5 21 C4.67 19.02 4.34 17.04 4 15 C4.66 15 5.32 15 6 15 C5.979375 14.195625 5.95875 13.39125 5.9375 12.5625 C6 10 6 10 7 9 C5.2984375 8.4121875 5.2984375 8.4121875 3.5625 7.8125 C0 6 0 6 -1 3.375 C-1 1 -1 1 0 0 Z " fill="#44403D" transform="translate(184,111)"/>
<path d="M0 0 C0.33 0 0.66 0 1 0 C1.33 1.98 1.66 3.96 2 6 C1.34 6 0.68 6 0 6 C-0.0825 6.61875 -0.165 7.2375 -0.25 7.875 C-1 10 -1 10 -2.76708984 11.11621094 C-5.1751289 12.06931627 -6.89687883 12.25799119 -9.4765625 12.265625 C-10.311875 12.26820312 -11.1471875 12.27078125 -12.0078125 12.2734375 C-13.30332031 12.26183594 -13.30332031 12.26183594 -14.625 12.25 C-15.93210938 12.26160156 -15.93210938 12.26160156 -17.265625 12.2734375 C-18.09835938 12.27085938 -18.93109375 12.26828125 -19.7890625 12.265625 C-20.54912598 12.26336914 -21.30918945 12.26111328 -22.09228516 12.25878906 C-24 12 -24 12 -26 10 C-26.40047444 7.67724823 -26.7397104 5.34260643 -27 3 C-24.69 3.33 -22.38 3.66 -20 4 C-19.67 5.65 -19.34 7.3 -19 9 C-18.01 9 -17.02 9 -16 9 C-15.67 7.35 -15.34 5.7 -15 4 C-12.03824877 4.61277612 -10.61941217 5.25372522 -8 7 C-7.34 5.68 -6.68 4.36 -6 3 C-4.35 3 -2.7 3 -1 3 C-0.67 2.01 -0.34 1.02 0 0 Z " fill="#E0CDC2" transform="translate(212,105)"/>
<path d="M0 0 C0.66 0 1.32 0 2 0 C1.625 1.9375 1.625 1.9375 1 4 C0.01 4.495 0.01 4.495 -1 5 C-1.45121857 7.66307431 -1.79590928 10.25536558 -2.0625 12.9375 C-2.88613861 20.77227723 -2.88613861 20.77227723 -4 23 C-4.66 23 -5.32 23 -6 23 C-5.67 21.68 -5.34 20.36 -5 19 C-5.66 18.67 -6.32 18.34 -7 18 C-6.67 17.34 -6.34 16.68 -6 16 C-6.5775 15.855625 -7.155 15.71125 -7.75 15.5625 C-9.83333333 15.04166667 -11.91666667 14.52083333 -14 14 C-14 16.64 -14 19.28 -14 22 C-14.66 21.67 -15.32 21.34 -16 21 C-16.08075665 18.70890403 -16.13907731 16.41700733 -16.1875 14.125 C-16.22230469 12.84882813 -16.25710937 11.57265625 -16.29296875 10.2578125 C-16.19628906 9.18273437 -16.09960938 8.10765625 -16 7 C-13 5 -13 5 -10.3125 5.375 C-9.549375 5.58125 -8.78625 5.7875 -8 6 C-7.67 4.35 -7.34 2.7 -7 1 C-6.67 2.32 -6.34 3.64 -6 5 C-2.37206002 3.13433512 -2.37206002 3.13433512 0 0 Z " fill="#FBE6D9" transform="translate(150,171)"/>
<path d="M0 0 C2.8125 0.375 2.8125 0.375 3.8125 1.375 C4.35621014 6.1881717 4.44496678 10.15871773 2.1875 14.5 C-0.1875 16.375 -0.1875 16.375 -3.375 16.75 C-6.1875 16.375 -6.1875 16.375 -7.1875 15.375 C-7.73121014 10.5618283 -7.81996678 6.59128227 -5.5625 2.25 C-3.1875 0.375 -3.1875 0.375 0 0 Z " fill="#3A3937" transform="translate(175.1875,169.625)"/>
<path d="M0 0 C5.3027995 10.605599 5.59610624 22.3706451 6 34 C4.02 34 2.04 34 0 34 C0 22.78 0 11.56 0 0 Z " fill="#F88898" transform="translate(0,300)"/>
<path d="M0 0 C7 1 7 1 9 2.5625 C10.4907117 6.19610976 10.15317238 9.2798343 9 13 C7.3125 15 7.3125 15 5 16 C3.02 16 1.04 16 -1 16 C-0.67 10.72 -0.34 5.44 0 0 Z " fill="#534C47" transform="translate(103,179)"/>
<path d="M0 0 C1.32 0.33 2.64 0.66 4 1 C5.65 0.67 7.3 0.34 9 0 C9 4.95 9 9.9 9 15 C7.33333333 15 5.66666667 15 4 15 C2.68 15.33 1.36 15.66 0 16 C0 10.72 0 5.44 0 0 Z " fill="#ECD8CB" transform="translate(189,167)"/>
<path d="M0 0 C0.66 0 1.32 0 2 0 C1 5 0 10 -1 15 C2.465 14.505 2.465 14.505 6 14 C5.01 14.66 4.02 15.32 3 16 C2.01 16.7734375 2.01 16.7734375 1 17.5625 C-1 19 -1 19 -4 20 C-5.21869929 22.50447516 -5.21869929 22.50447516 -6 25 C-6.33 25 -6.66 25 -7 25 C-6.88535985 22.29087219 -6.75862846 19.58320339 -6.625 16.875 C-6.5940625 16.11445313 -6.563125 15.35390625 -6.53125 14.5703125 C-6.297631 10.05367842 -5.67345883 6.25847653 -4 2 C-2.68 2 -1.36 2 0 2 C0 1.34 0 0.68 0 0 Z " fill="#302F2D" transform="translate(153,173)"/>
<path d="M0 0 C3.63 0 7.26 0 11 0 C11 5.61 11 11.22 11 17 C8.1709277 14.1709277 7.62388892 13.61855575 7 10 C6.34 10 5.68 10 5 10 C3.35 6.7 1.7 3.4 0 0 Z " fill="#F9889C" transform="translate(324,0)"/>
<path d="M0 0 C2.75 1.5 2.75 1.5 5 3 C4.84660156 3.50015625 4.69320312 4.0003125 4.53515625 4.515625 C3.80542604 7.90327766 3.63643523 11.29961519 3.4375 14.75 C3.39431641 15.44738281 3.35113281 16.14476562 3.30664062 16.86328125 C3.20110404 18.57531922 3.1001009 20.28763561 3 22 C2.67 22 2.34 22 2 22 C1.67 19.03 1.34 16.06 1 13 C-0.65 12.67 -2.3 12.34 -4 12 C-4.66 8.37 -5.32 4.74 -6 1 C-4 0 -4 0 0 0 Z " fill="#EEDACD" transform="translate(186,161)"/>
<path d="M0 0 C0.99 0.33 1.98 0.66 3 1 C4.04976964 4.14930893 4.10131595 6.38814456 4.0625 9.6875 C4.05347656 10.68136719 4.04445312 11.67523438 4.03515625 12.69921875 C4.02355469 13.45847656 4.01195312 14.21773437 4 15 C3.34 15 2.68 15 2 15 C2 13.68 2 12.36 2 11 C0.35 11.33 -1.3 11.66 -3 12 C-3 13.32 -3 14.64 -3 16 C-3.66 16 -4.32 16 -5 16 C-5.50212051 9.97455391 -4.12689062 6.14869539 -1 1 C-0.67 0.67 -0.34 0.34 0 0 Z " fill="#4C4640" transform="translate(212,164)"/>
<path d="M0 0 C0.33 0 0.66 0 1 0 C1.06058594 0.71285156 1.12117187 1.42570313 1.18359375 2.16015625 C1.64808101 7.46960288 2.18075251 12.733409 3 18 C2.34 17.34 1.68 16.68 1 16 C0.01 16 -0.98 16 -2 16 C-2.99 15.67 -3.98 15.34 -5 15 C-5.33 11.04 -5.66 7.08 -6 3 C-4.02 3 -2.04 3 0 3 C0 2.01 0 1.02 0 0 Z " fill="#3F3C39" transform="translate(178,149)"/>
<path d="M0 0 C7.39954511 -0.36391205 7.39954511 -0.36391205 10.0625 1.25 C11 3 11 3 10.6875 5.1875 C10.3471875 6.0846875 10.3471875 6.0846875 10 7 C9.01 7 8.02 7 7 7 C7 5.68 7 4.36 7 3 C6.01 3.495 6.01 3.495 5 4 C5 5.65 5 7.3 5 9 C1.535 10.485 1.535 10.485 -2 12 C-1.67 10.68 -1.34 9.36 -1 8 C-1.66 7.67 -2.32 7.34 -3 7 C-2.34 7 -1.68 7 -1 7 C-1 6.34 -1 5.68 -1 5 C-0.01 5 0.98 5 2 5 C2 4.34 2 3.68 2 3 C1.34 3 0.68 3 0 3 C0 2.01 0 1.02 0 0 Z " fill="#EEDBD0" transform="translate(156,92)"/>
<path d="M0 0 C1.65 0.33 3.3 0.66 5 1 C5.19477739 2.62414378 5.38059458 4.24936423 5.5625 5.875 C5.66691406 6.77992188 5.77132812 7.68484375 5.87890625 8.6171875 C6 11 6 11 5 13 C4.34 13 3.68 13 3 13 C2.34 12.01 1.68 11.02 1 10 C0.01 9.67 -0.98 9.34 -2 9 C-2.625 6.125 -2.625 6.125 -3 3 C-2.34 2.34 -1.68 1.68 -1 1 C-0.67 1.33 -0.34 1.66 0 2 C0 1.34 0 0.68 0 0 Z " fill="#2A2A28" transform="translate(140,151)"/>
<path d="M0 0 C0.763125 0.20625 1.52625 0.4125 2.3125 0.625 C2.5 3.5 2.5 3.5 2.3125 6.625 C-0.6875 8.625 -0.6875 8.625 -3.6875 8.625 C-3.6875 11.265 -3.6875 13.905 -3.6875 16.625 C-4.3475 16.295 -5.0075 15.965 -5.6875 15.625 C-5.76825665 13.33390403 -5.82657731 11.04200733 -5.875 8.75 C-5.90980469 7.47382813 -5.94460937 6.19765625 -5.98046875 4.8828125 C-5.88378906 3.80773437 -5.78710938 2.73265625 -5.6875 1.625 C-2.6875 -0.375 -2.6875 -0.375 0 0 Z " fill="#93867F" transform="translate(139.6875,176.375)"/>
<path d="M0 0 C1.0209375 0.2165625 1.0209375 0.2165625 2.0625 0.4375 C5.36273082 1.06945909 8.67144426 1.54313941 12 2 C11.01 2.66 10.02 3.32 9 4 C8.27034634 6.56282742 8.27034634 6.56282742 8 9 C7.34 9 6.68 9 6 9 C5.67 11.97 5.34 14.94 5 18 C4.67 18 4.34 18 4 18 C3.81824219 16.98679688 3.81824219 16.98679688 3.6328125 15.953125 C3.46523437 15.06109375 3.29765625 14.1690625 3.125 13.25 C2.96257812 12.36828125 2.80015625 11.4865625 2.6328125 10.578125 C2.10971325 8.01497625 2.10971325 8.01497625 0.9296875 5.921875 C0 4 0 4 0 0 Z " fill="#ECD8CC" transform="translate(182,117)"/>
<path d="M0 0 C0.33 0 0.66 0 1 0 C1.22127098 2.29045368 1.4266504 4.58244764 1.625 6.875 C1.74101562 8.15117187 1.85703125 9.42734375 1.9765625 10.7421875 C1.98429688 11.81726563 1.99203125 12.89234375 2 14 C1.34 14.66 0.68 15.32 0 16 C-0.27714896 18.13252093 -0.27714896 18.13252093 -0.1953125 20.5703125 C-0.18886719 21.46621094 -0.18242187 22.36210937 -0.17578125 23.28515625 C-0.15064453 24.69087891 -0.15064453 24.69087891 -0.125 26.125 C-0.11146484 27.54232422 -0.11146484 27.54232422 -0.09765625 28.98828125 C-0.07404522 31.32577292 -0.04111516 33.66276123 0 36 C-0.66 36 -1.32 36 -2 36 C-2.06058594 34.80761719 -2.12117187 33.61523438 -2.18359375 32.38671875 C-2.26801149 30.82030075 -2.35265887 29.25389512 -2.4375 27.6875 C-2.47681641 26.90181641 -2.51613281 26.11613281 -2.55664062 25.30664062 C-2.59853516 24.54931641 -2.64042969 23.79199219 -2.68359375 23.01171875 C-2.73858032 21.96697388 -2.73858032 21.96697388 -2.79467773 20.90112305 C-2.95581153 18.7783428 -2.95581153 18.7783428 -4 16 C-3.67 15.34 -3.34 14.68 -3 14 C-2.82251866 12.56606347 -2.68108853 11.1275036 -2.5625 9.6875 C-2.20810576 6.14355757 -1.56676512 3.23798125 0 0 Z " fill="#E9D7CC" transform="translate(166,189)"/>
<path d="M0 0 C0.33 0.66 0.66 1.32 1 2 C2.98 2 4.96 2 7 2 C6.01 2.495 6.01 2.495 5 3 C5.33 5.31 5.66 7.62 6 10 C5.34 10 4.68 10 4 10 C4 9.01 4 8.02 4 7 C0.04 7 -3.92 7 -8 7 C-8 5.35 -8 3.7 -8 2 C-5.36 2 -2.72 2 0 2 C0 1.34 0 0.68 0 0 Z " fill="#958981" transform="translate(168,114)"/>
<path d="M0 0 C1.65 0.33 3.3 0.66 5 1 C5.8125 4.1875 5.8125 4.1875 6 8 C3.6875 10.9375 3.6875 10.9375 1 13 C0.34 13 -0.32 13 -1 13 C-0.67 8.71 -0.34 4.42 0 0 Z " fill="#F0DCD0" transform="translate(105,181)"/>
<path d="M0 0 C2.8125 0.375 2.8125 0.375 3.8125 1.375 C4.35621014 6.1881717 4.44496678 10.15871773 2.1875 14.5 C-0.1875 16.375 -0.1875 16.375 -3.375 16.75 C-6.1875 16.375 -6.1875 16.375 -7.1875 15.375 C-7.73121014 10.5618283 -7.81996678 6.59128227 -5.5625 2.25 C-3.1875 0.375 -3.1875 0.375 0 0 Z M-3.875 2.9375 C-5.58835096 6.1194375 -5.99140488 8.7799228 -6.1875 12.375 C-5.1975 13.86 -5.1975 13.86 -4.1875 15.375 C-1.09907003 14.4809808 0.44649045 13.95728792 2.1875 11.1875 C2.9692051 7.66982705 2.50103474 4.88652719 1.8125 1.375 C-2.08162558 0.92206131 -2.08162558 0.92206131 -3.875 2.9375 Z " fill="#EDE9E5" transform="translate(175.1875,169.625)"/>
<path d="M0 0 C2.31 0.33 4.62 0.66 7 1 C7 1.66 7 2.32 7 3 C7.99 3.33 8.98 3.66 10 4 C8.35 4 6.7 4 5 4 C5 4.99 5 5.98 5 7 C5.66 7 6.32 7 7 7 C7 7.66 7 8.32 7 9 C4.6875 9.25 4.6875 9.25 2 9 C0.125 7.3125 0.125 7.3125 -1 5 C-0.6875 2.25 -0.6875 2.25 0 0 Z " fill="#383634" transform="translate(151,88)"/>
<path d="M0 0 C0.33 0 0.66 0 1 0 C1 2.31 1 4.62 1 7 C2.32 6.67 3.64 6.34 5 6 C4.67 6.99 4.34 7.98 4 9 C0.57735681 10.42610133 -3.09879533 10.09901205 -6.75 10.0625 C-7.92046875 10.05347656 -9.0909375 10.04445312 -10.296875 10.03515625 C-11.18890625 10.02355469 -12.0809375 10.01195312 -13 10 C-13 9.34 -13 8.68 -13 8 C-10.36 8 -7.72 8 -5 8 C-5 6.35 -5 4.7 -5 3 C-4.67 4.32 -4.34 5.64 -4 7 C-3.34 7 -2.68 7 -2 7 C-2 6.34 -2 5.68 -2 5 C-1.34 5 -0.68 5 0 5 C0 3.35 0 1.7 0 0 Z " fill="#E7D4C8" transform="translate(172,157)"/>
<path d="M0 0 C0.66 0 1.32 0 2 0 C3.91729577 2.81955261 3.99331618 4.07619554 3.6875 7.5625 C3 11 3 11 2 14 C1.34 14 0.68 14 0 14 C-0.42317708 11.98177083 -0.84635417 9.96354167 -1.26953125 7.9453125 C-1.92308838 5.62953451 -1.92308838 5.62953451 -5 4 C-3.68 4 -2.36 4 -1 4 C-0.67 2.68 -0.34 1.36 0 0 Z " fill="#DFCCC1" transform="translate(146,146)"/>
<path d="M0 0 C0.33 0 0.66 0 1 0 C1.33 1.98 1.66 3.96 2 6 C1.34 6 0.68 6 0 6 C-0.33 7.32 -0.66 8.64 -1 10 C-2.8125 10.625 -2.8125 10.625 -5 11 C-5.99 10.34 -6.98 9.68 -8 9 C-8 6.53721199 -7.14547137 5.14775881 -6 3 C-4.35 3 -2.7 3 -1 3 C-0.67 2.01 -0.34 1.02 0 0 Z " fill="#E4D2C5" transform="translate(212,105)"/>
<path d="M0 0 C1.32 0.33 2.64 0.66 4 1 C6.68149993 0.61432869 6.68149993 0.61432869 9 0 C9.05410687 1.77049689 9.09284119 3.54146849 9.125 5.3125 C9.14820313 6.29863281 9.17140625 7.28476563 9.1953125 8.30078125 C9 11 9 11 7 14 C7 10.04 7 6.08 7 2 C6.01 2.66 5.02 3.32 4 4 C3.01 4 2.02 4 1 4 C1 7.96 1 11.92 1 16 C0.67 16 0.34 16 0 16 C0 10.72 0 5.44 0 0 Z " fill="#4C4743" transform="translate(189,167)"/>
<path d="M0 0 C2.95064148 -0.2208564 5.68368231 -0.28060989 8.625 -0.1875 C9.42679688 -0.17396484 10.22859375 -0.16042969 11.0546875 -0.14648438 C13.03674378 -0.11109051 15.01845551 -0.05728234 17 0 C16.67 0.99 16.34 1.98 16 3 C10.06 3 4.12 3 -2 3 C-1.34 2.01 -0.68 1.02 0 0 Z " fill="#FDE301" transform="translate(129,313)"/>
<path d="M0 0 C3.63 0 7.26 0 11 0 C11.33 0.66 11.66 1.32 12 2 C10.02 2 8.04 2 6 2 C6.33 6.62 6.66 11.24 7 16 C6.01 15.67 5.02 15.34 4 15 C4 10.71 4 6.42 4 2 C2.68 2 1.36 2 0 2 C0 1.34 0 0.68 0 0 Z " fill="#544E49" transform="translate(223,163)"/>
<path d="M0 0 C2 3 2 3 3 6 C3.66 6.33 4.32 6.66 5 7 C4.67 8.65 4.34 10.3 4 12 C-1.53846154 12.36923077 -1.53846154 12.36923077 -3.875 10.5 C-4.24625 10.005 -4.6175 9.51 -5 9 C-2.525 9.495 -2.525 9.495 0 10 C0 9.01 0 8.02 0 7 C-0.66 6.34 -1.32 5.68 -2 5 C-1.34 4.67 -0.68 4.34 0 4 C0 2.68 0 1.36 0 0 Z " fill="#3F3B38" transform="translate(164,245)"/>
<path d="M0 0 C1.33333333 0 2.66666667 0 4 0 C4.33 4.29 4.66 8.58 5 13 C3.02 12.01 1.04 11.02 -1 10 C-0.67 6.7 -0.34 3.4 0 0 Z " fill="#383735" transform="translate(179,173)"/>
<path d="M0 0 C0.66 0 1.32 0 2 0 C1 5 0 10 -1 15 C2.465 14.505 2.465 14.505 6 14 C2.81237635 16.12508244 0.73487777 16.5020163 -3 17 C-2.22095672 5.47835991 -2.22095672 5.47835991 0 0 Z " fill="#D2CCC8" transform="translate(153,173)"/>
<path d="M0 0 C1.65 1.32 3.3 2.64 5 4 C4.67 4.66 4.34 5.32 4 6 C3.67 5.67 3.34 5.34 3 5 C2.34 6.65 1.68 8.3 1 10 C1.66 10 2.32 10 3 10 C3 11.32 3 12.64 3 14 C1.68 13.34 0.36 12.68 -1 12 C-1.02712066 10.56260487 -1.04645067 9.12506137 -1.0625 7.6875 C-1.07410156 6.88699219 -1.08570313 6.08648437 -1.09765625 5.26171875 C-1 3 -1 3 0 0 Z " fill="#AA43AA" transform="translate(274,178)"/>
<path d="M0 0 C0.66 0 1.32 0 2 0 C3.79682816 3.80504787 4.07349791 4.70600835 3 9 C0.03 9 -2.94 9 -6 9 C-5.01 8.01 -4.02 7.02 -3 6 C-2.01 6 -1.02 6 0 6 C-0.2784375 4.7934375 -0.2784375 4.7934375 -0.5625 3.5625 C-0.706875 2.716875 -0.85125 1.87125 -1 1 C-0.67 0.67 -0.34 0.34 0 0 Z " fill="#353330" transform="translate(161,95)"/>
<path d="M0 0 C2.18092036 2.07858979 3.96390469 4.21856618 5.6875 6.6875 C6.12449219 7.31011719 6.56148437 7.93273437 7.01171875 8.57421875 C7.33785156 9.04472656 7.66398438 9.51523438 8 10 C4.03628846 10 3.00090512 8.50075427 0 6 C-1.6502694 4.9731657 -3.31243867 3.96432076 -5 3 C-3 1 -3 1 0 0 Z " fill="#B44EA8" transform="translate(230,75)"/>
<path d="M0 0 C4.95 0 9.9 0 15 0 C15.33 0.66 15.66 1.32 16 2 C15.4225 2.12375 14.845 2.2475 14.25 2.375 C11.97752743 2.89397708 11.97752743 2.89397708 10.125 4.15625 C8 5 8 5 5.859375 4.3203125 C5.16328125 3.92585937 4.4671875 3.53140625 3.75 3.125 C3.04359375 2.73570313 2.3371875 2.34640625 1.609375 1.9453125 C1.07828125 1.63335937 0.5471875 1.32140625 0 1 C0 0.67 0 0.34 0 0 Z " fill="#B24AA7" transform="translate(128,0)"/>
<path d="M0 0 C0.99 0 1.98 0 3 0 C3.33 3.3 3.66 6.6 4 10 C3.34 10 2.68 10 2 10 C2 10.66 2 11.32 2 12 C1.34 12 0.68 12 0 12 C0 8.04 0 4.08 0 0 Z " fill="#FCE5D8" transform="translate(168,152)"/>
<path d="M0 0 C0.66 0 1.32 0 2 0 C2.66 1.65 3.32 3.3 4 5 C7.96 5.33 11.92 5.66 16 6 C16 6.33 16 6.66 16 7 C13.9190156 7.24959784 11.83499188 7.47394907 9.75 7.6875 C8.58984375 7.81511719 7.4296875 7.94273438 6.234375 8.07421875 C2.67533206 7.99254989 1.51822275 7.42472438 -1 5 C-0.67 3.35 -0.34 1.7 0 0 Z " fill="#534E49" transform="translate(184,111)"/>
<path d="M0 0 C2 3.75 2 3.75 2 6 C3.45833358 7.62514468 3.45833358 7.62514468 5 9 C4.67 9.99 4.34 10.98 4 12 C2.35 11.67 0.7 11.34 -1 11 C-1.33 9.02 -1.66 7.04 -2 5 C-1.34 5 -0.68 5 0 5 C0 3.35 0 1.7 0 0 Z " fill="#544E49" transform="translate(190,121)"/>
<path d="M0 0 C1.98 0 3.96 0 6 0 C6.125 2.375 6.125 2.375 6 5 C5.34 5.66 4.68 6.32 4 7 C1.875 6.625 1.875 6.625 0 6 C0 4.02 0 2.04 0 0 Z " fill="#2B2C2B" transform="translate(191,121)"/>
<path d="M0 0 C2.97 0 5.94 0 9 0 C7.875 2.5 7.875 2.5 6 5 C2.8125 5.3125 2.8125 5.3125 0 5 C0 3.35 0 1.7 0 0 Z " fill="#ECD9CD" transform="translate(155,104)"/>
<path d="M0 0 C5.39449293 -0.27429625 8.51925805 -0.36055646 13 3 C12.67 3.99 12.34 4.98 12 6 C7.76570244 4.68938409 3.92592596 3.05643741 0 1 C0 0.67 0 0.34 0 0 Z " fill="#FC97A5" transform="translate(169,0)"/>
<path d="M0 0 C0.33 0.99 0.66 1.98 1 3 C2.32 2.67 3.64 2.34 5 2 C5 2.66 5 3.32 5 4 C5.66 4 6.32 4 7 4 C7.33 4.99 7.66 5.98 8 7 C7.34 7 6.68 7 6 7 C5.67 7.66 5.34 8.32 5 9 C1.125 7.125 1.125 7.125 0 6 C-0.04080783 4.00041636 -0.04254356 1.99954746 0 0 Z " fill="#3D3B39" transform="translate(152,242)"/>
<path d="M0 0 C1.65 0.33 3.3 0.66 5 1 C5 1.66 5 2.32 5 3 C6.65 3.33 8.3 3.66 10 4 C9.01 4.495 9.01 4.495 8 5 C7.67 5.66 7.34 6.32 7 7 C7 6.34 7 5.68 7 5 C6.01 5 5.02 5 4 5 C3.34 5.66 2.68 6.32 2 7 C-0.125 6.625 -0.125 6.625 -2 6 C-1.34 4.02 -0.68 2.04 0 0 Z " fill="#F0DBCE" transform="translate(178,97)"/>
<path d="M0 0 C0 0.99 0 1.98 0 3 C-2.70879335 4.35439668 -5.00933268 4.06501451 -8 4 C-8.33 6.64 -8.66 9.28 -9 12 C-9.33 12 -9.66 12 -10 12 C-10 8.37 -10 4.74 -10 1 C-8.535625 1.020625 -7.07125 1.04125 -5.5625 1.0625 C-4.04167482 1.08392007 -2.51928038 1.07179964 -1 1 C-0.67 0.67 -0.34 0.34 0 0 Z " fill="#E3D1C6" transform="translate(189,148)"/>
<path d="M0 0 C0.66 0 1.32 0 2 0 C1.67 5.28 1.34 10.56 1 16 C0.34 15.67 -0.32 15.34 -1 15 C-1.02703381 13.06257659 -1.04641125 11.12504521 -1.0625 9.1875 C-1.07410156 8.10855469 -1.08570312 7.02960938 -1.09765625 5.91796875 C-1 3 -1 3 0 0 Z " fill="#46423D" transform="translate(123,178)"/>
<path d="M0 0 C0.33 0 0.66 0 1 0 C1.33 3.63 1.66 7.26 2 11 C1.01 11.495 1.01 11.495 0 12 C-0.65555119 14.52733235 -0.65555119 14.52733235 -1 17 C-1.33 17 -1.66 17 -2 17 C-2.25287193 10.93107371 -1.69832609 5.83799592 0 0 Z " fill="#FC9DAB" transform="translate(235,276)"/>
<path d="M0 0 C1.32 0.33 2.64 0.66 4 1 C3.34 3.64 2.68 6.28 2 9 C1.34 8.67 0.68 8.34 0 8 C-0.66 8.66 -1.32 9.32 -2 10 C-1.85950482 8.52031676 -1.71245174 7.04125484 -1.5625 5.5625 C-1.48128906 4.73878906 -1.40007812 3.91507813 -1.31640625 3.06640625 C-1 1 -1 1 0 0 Z " fill="#393633" transform="translate(149,175)"/>
<path d="M0 0 C0.99 0 1.98 0 3 0 C2.67 1.98 2.34 3.96 2 6 C0.02 6 -1.96 6 -4 6 C-3.67 4.68 -3.34 3.36 -3 2 C-2.01 2 -1.02 2 0 2 C0 1.34 0 0.68 0 0 Z " fill="#302E2D" transform="translate(166,110)"/>
<path d="M0 0 C0.66 0 1.32 0 2 0 C1.625 1.9375 1.625 1.9375 1 4 C0.01 4.495 0.01 4.495 -1 5 C-1.65555119 7.52733235 -1.65555119 7.52733235 -2 10 C-2.433125 9.54625 -2.86625 9.0925 -3.3125 8.625 C-5.10798342 6.79975666 -5.10798342 6.79975666 -8 5 C-7.34 3.68 -6.68 2.36 -6 1 C-6 2.32 -6 3.64 -6 5 C-2.37206002 3.13433512 -2.37206002 3.13433512 0 0 Z " fill="#D7C6BC" transform="translate(150,171)"/>
<path d="M0 0 C0.99 0.33 1.98 0.66 3 1 C3 2.32 3 3.64 3 5 C3.66 5.33 4.32 5.66 5 6 C4.67 7.32 4.34 8.64 4 10 C3.34 9.67 2.68 9.34 2 9 C1.34 9.66 0.68 10.32 0 11 C0 7.37 0 3.74 0 0 Z " fill="#3A3938" transform="translate(136,145)"/>
<path d="M0 0 C-0.66 0 -1.32 0 -2 0 C-1.67 2.31 -1.34 4.62 -1 7 C-1.66 7 -2.32 7 -3 7 C-3 6.01 -3 5.02 -3 4 C-4.65 3.67 -6.3 3.34 -8 3 C-7.67 2.01 -7.34 1.02 -7 0 C-4.05610218 -1.17755913 -3.10046087 -1.03348696 0 0 Z " fill="#8C817B" transform="translate(175,117)"/>
<path d="M0 0 C-1.33333333 3.33333333 -2.66666667 6.66666667 -4 10 C-4.33 9.01 -4.66 8.02 -5 7 C-5.33 6.34 -5.66 5.68 -6 5 C-7.32 5.33 -8.64 5.66 -10 6 C-2.6 0 -2.6 0 0 0 Z " fill="#FC9EAA" transform="translate(74,117)"/>
<path d="M0 0 C2.97 0.495 2.97 0.495 6 1 C7 4 7 4 6.0625 6.1875 C5.5365625 7.0846875 5.5365625 7.0846875 5 8 C4.01 7.67 3.02 7.34 2 7 C0.8125 3.4375 0.8125 3.4375 0 0 Z " fill="#3F3C39" transform="translate(157,108)"/>
<path d="M0 0 C2.43914492 2.43914492 2.28662523 3.21446431 2.4140625 6.5703125 C2.45273438 7.46621094 2.49140625 8.36210937 2.53125 9.28515625 C2.57765625 10.69087891 2.57765625 10.69087891 2.625 12.125 C2.66367188 13.06988281 2.70234375 14.01476562 2.7421875 14.98828125 C2.83661346 17.32532375 2.92218394 19.66235501 3 22 C2.34 22 1.68 22 1 22 C0.93941406 20.80761719 0.87882813 19.61523438 0.81640625 18.38671875 C0.73198851 16.82030075 0.64734113 15.25389512 0.5625 13.6875 C0.52318359 12.90181641 0.48386719 12.11613281 0.44335938 11.30664062 C0.40146484 10.54931641 0.35957031 9.79199219 0.31640625 9.01171875 C0.26141968 7.96697388 0.26141968 7.96697388 0.20532227 6.90112305 C0.04418847 4.7783428 0.04418847 4.7783428 -1 2 C-0.67 1.34 -0.34 0.68 0 0 Z " fill="#C5B5AD" transform="translate(163,203)"/>
<path d="M0 0 C2 2 2 2 2.1953125 4.6015625 C2.17210937 5.59929687 2.14890625 6.59703125 2.125 7.625 C2.10695312 8.62789062 2.08890625 9.63078125 2.0703125 10.6640625 C2.03550781 11.82035156 2.03550781 11.82035156 2 13 C1.34 13 0.68 13 0 13 C-0.185625 12.071875 -0.185625 12.071875 -0.375 11.125 C-0.87197356 8.80879168 -0.87197356 8.80879168 -3 7 C-2.01 7 -1.02 7 0 7 C0 4.69 0 2.38 0 0 Z " fill="#47443F" transform="translate(214,166)"/>
<path d="M0 0 C3.20217249 2.13478166 4.27285259 3.62795029 6 7 C6 7.99 6 8.98 6 10 C3.69 9.01 1.38 8.02 -1 7 C-0.67 4.69 -0.34 2.38 0 0 Z " fill="#F288A0" transform="translate(213,64)"/>
<path d="M0 0 C0.66 0 1.32 0 2 0 C2 1.98 2 3.96 2 6 C2.66 6.33 3.32 6.66 4 7 C3.34 7 2.68 7 2 7 C2 9.64 2 12.28 2 15 C1.34 14.67 0.68 14.34 0 14 C0 9.38 0 4.76 0 0 Z " fill="#4C4743" transform="translate(134,178)"/>
<path d="M0 0 C0.75 1.6875 0.75 1.6875 1 4 C-0.5625 6.75 -0.5625 6.75 -3 9 C-6.25 9.3125 -6.25 9.3125 -9 9 C-9.33 8.34 -9.66 7.68 -10 7 C-9.34 6.34 -8.68 5.68 -8 5 C-7.67 5.66 -7.34 6.32 -7 7 C-5.07690578 6.96044102 -5.07690578 6.96044102 -3 6 C-1.21620585 3.01647106 -1.21620585 3.01647106 0 0 Z " fill="#DBD5D2" transform="translate(178,177)"/>
<path d="M0 0 C1.65 0 3.3 0 5 0 C4.01 1.485 4.01 1.485 3 3 C2.33386665 5.27538323 2.33386665 5.27538323 1.875 7.6875 C1.70742187 8.49574219 1.53984375 9.30398437 1.3671875 10.13671875 C1.24601563 10.75160156 1.12484375 11.36648437 1 12 C0.67 12 0.34 12 0 12 C0 8.04 0 4.08 0 0 Z " fill="#D0BFB5" transform="translate(190,171)"/>
<path d="M0 0 C2.09350689 3.4019487 2.17942163 6.05272412 2 10 C2.99 10.33 3.98 10.66 5 11 C3.68 11 2.36 11 1 11 C0.54625 10.05125 0.0925 9.1025 -0.375 8.125 C-1.80238254 4.99686321 -1.80238254 4.99686321 -4 3 C-2.68 3 -1.36 3 0 3 C0 2.01 0 1.02 0 0 Z " fill="#F1DDD1" transform="translate(158,111)"/>
<path d="M0 0 C0.99 0.33 1.98 0.66 3 1 C3 2.32 3 3.64 3 5 C2.01 5 1.02 5 0 5 C0 5.66 0 6.32 0 7 C-0.66 7 -1.32 7 -2 7 C-2 5.02 -2 3.04 -2 1 C-1.34 0.67 -0.68 0.34 0 0 Z " fill="#231D20" transform="translate(9,301)"/>
<path d="M0 0 C1.98 0 3.96 0 6 0 C5.67 0.99 5.34 1.98 5 3 C5.66 3.66 6.32 4.32 7 5 C4.69 5 2.38 5 0 5 C-0.33 4.34 -0.66 3.68 -1 3 C-0.67 2.01 -0.34 1.02 0 0 Z " fill="#FAE5D8" transform="translate(200,111)"/>
<path d="M0 0 C1.32 0.33 2.64 0.66 4 1 C3.67 1.66 3.34 2.32 3 3 C3.99 2.67 4.98 2.34 6 2 C6 2.66 6 3.32 6 4 C2.535 5.485 2.535 5.485 -1 7 C-0.67 5.68 -0.34 4.36 0 3 C-0.66 2.67 -1.32 2.34 -2 2 C-1.34 2 -0.68 2 0 2 C0 1.34 0 0.68 0 0 Z " fill="#E3CFC5" transform="translate(155,97)"/>
<path d="M0 0 C2 2 2 2 2.125 4.625 C2.08375 5.40875 2.0425 6.1925 2 7 C0.35 7.33 -1.3 7.66 -3 8 C-1.125 1.125 -1.125 1.125 0 0 Z " fill="#EAD7CD" transform="translate(212,166)"/>
<path d="M0 0 C2.60018816 3.90028225 2.15085514 7.47434569 2 12 C1.67 10.68 1.34 9.36 1 8 C0.01 8 -0.98 8 -2 8 C-1.47731534 5.23723823 -0.89130413 2.6739124 0 0 Z " fill="#E4D0C4" transform="translate(170,144)"/>
<path d="M0 0 C0.66 0.33 1.32 0.66 2 1 C1.67 2.65 1.34 4.3 1 6 C-0.98 6 -2.96 6 -5 6 C-4.67 4.35 -4.34 2.7 -4 1 C-2.02 1.495 -2.02 1.495 0 2 C0 1.34 0 0.68 0 0 Z " fill="#3B3836" transform="translate(210,103)"/>
<path d="M0 0 C0 0.66 0 1.32 0 2 C-0.99 2.33 -1.98 2.66 -3 3 C-4.39712274 4.95597184 -5.73779907 6.95436401 -7 9 C-7.33 8.34 -7.66 7.68 -8 7 C-8.66 6.67 -9.32 6.34 -10 6 C-8.71283353 4.99421411 -7.42011342 3.99553202 -6.125 3 C-5.40570313 2.443125 -4.68640625 1.88625 -3.9453125 1.3125 C-2 0 -2 0 0 0 Z " fill="#FD9784" transform="translate(108,323)"/>
<path d="M0 0 C1.814036 3.62807199 2.56942261 6.03868803 3 10 C2.67 10.66 2.34 11.32 2 12 C1.34 12 0.68 12 0 12 C0 8.04 0 4.08 0 0 Z " fill="#E98291" transform="translate(0,300)"/>
<path d="M0 0 C0.66 0.66 1.32 1.32 2 2 C2.33 1.34 2.66 0.68 3 0 C4.4606285 2.64738916 5 3.89448334 5 7 C4.01 7 3.02 7 2 7 C1.67 6.34 1.34 5.68 1 5 C0.01 5 -0.98 5 -2 5 C-1.34 3.35 -0.68 1.7 0 0 Z " fill="#292828" transform="translate(145,232)"/>
<path d="M0 0 C0.66 0 1.32 0 2 0 C2.33 0.99 2.66 1.98 3 3 C3.66 3.66 4.32 4.32 5 5 C4.01 5 3.02 5 2 5 C1.67 5.66 1.34 6.32 1 7 C1.66 7.33 2.32 7.66 3 8 C1.35 7.67 -0.3 7.34 -2 7 C-1.125 2.25 -1.125 2.25 0 0 Z " fill="#282727" transform="translate(139,142)"/>
<path d="M0 0 C0 1.65 0 3.3 0 5 C0.66 5.33 1.32 5.66 2 6 C0.35 6 -1.3 6 -3 6 C-3.66 4.68 -4.32 3.36 -5 2 C-2 0 -2 0 0 0 Z " fill="#FDE9DB" transform="translate(192,110)"/>
<path d="M0 0 C0.33 0 0.66 0 1 0 C1 1.65 1 3.3 1 5 C1.66 5 2.32 5 3 5 C3 5.66 3 6.32 3 7 C1.35 7 -0.3 7 -2 7 C-2.33 6.01 -2.66 5.02 -3 4 C-1.625 1.8125 -1.625 1.8125 0 0 Z " fill="#403C39" transform="translate(155,90)"/>
<path d="M0 0 C1.2818632 2.5637264 1.27122178 4.15217131 1 7 C-0.5 9.3125 -0.5 9.3125 -2 11 C-2.66 10.67 -3.32 10.34 -4 10 C-3.52449439 8.51965236 -3.04448784 7.04074979 -2.5625 5.5625 C-2.29566406 4.73878906 -2.02882813 3.91507812 -1.75390625 3.06640625 C-1 1 -1 1 0 0 Z " fill="#FD9CAA" transform="translate(70,314)"/>
<path d="M0 0 C1.98 0.99 1.98 0.99 4 2 C4 2.66 4 3.32 4 4 C3.01 4 2.02 4 1 4 C1 7.96 1 11.92 1 16 C0.67 16 0.34 16 0 16 C0 10.72 0 5.44 0 0 Z " fill="#38332D" transform="translate(189,167)"/>
<path d="M0 0 C0.99 0.33 1.98 0.66 3 1 C2.67 2.65 2.34 4.3 2 6 C-0.02045442 5.39816251 -2.02111039 4.72693904 -4 4 C-4.33 3.34 -4.66 2.68 -5 2 C-3.68 2 -2.36 2 -1 2 C-0.67 1.34 -0.34 0.68 0 0 Z " fill="#FCE9EA" transform="translate(294,280)"/>
<path d="M0 0 C0.33 0 0.66 0 1 0 C1.98248524 4.0527516 2.08159574 7.83861737 2 12 C1.34 12 0.68 12 0 12 C-0.66 10.68 -1.32 9.36 -2 8 C-1.34 8 -0.68 8 0 8 C0 5.36 0 2.72 0 0 Z " fill="#E4D0C5" transform="translate(150,232)"/>
<path d="M0 0 C0.66 0.33 1.32 0.66 2 1 C2 2.32 2 3.64 2 5 C0.35 5.66 -1.3 6.32 -3 7 C-3.1875 4.625 -3.1875 4.625 -3 2 C-2.01 1.34 -1.02 0.68 0 0 Z " fill="#383532" transform="translate(138,225)"/>
<path d="M0 0 C1.32 0.99 2.64 1.98 4 3 C3.34 4.65 2.68 6.3 2 8 C1.34 8 0.68 8 0 8 C0 5.36 0 2.72 0 0 Z " fill="#7A726C" transform="translate(165,136)"/>
<path d="M0 0 C0.99 0 1.98 0 3 0 C3.66 1.65 4.32 3.3 5 5 C3.35 5.33 1.7 5.66 0 6 C0 4.02 0 2.04 0 0 Z " fill="#373635" transform="translate(174,122)"/>
<path d="M0 0 C2 1 2 1 3.125 4.0625 C3.41375 5.031875 3.7025 6.00125 4 7 C3.34 7 2.68 7 2 7 C1.67 8.32 1.34 9.64 1 11 C0.4254048 7.26513121 0 3.78706732 0 0 Z " fill="#FCEAEC" transform="translate(241,309)"/>
<path d="M0 0 C2.31 1.65 4.62 3.3 7 5 C6.01 5.66 5.02 6.32 4 7 C2.68 6.34 1.36 5.68 0 5 C0 3.35 0 1.7 0 0 Z " fill="#FD96A4" transform="translate(183,296)"/>
<path d="M0 0 C0.66 0.33 1.32 0.66 2 1 C0.8125 3.4375 0.8125 3.4375 -1 6 C-3.6875 6.8125 -3.6875 6.8125 -6 7 C-4.02 4.69 -2.04 2.38 0 0 Z " fill="#FC99A6" transform="translate(86,294)"/>
<path d="M0 0 C0.33 0 0.66 0 1 0 C1.33 2.31 1.66 4.62 2 7 C3.65 7.33 5.3 7.66 7 8 C4.25002779 9.4731994 2.10380501 10.22404875 -1 11 C-0.67 7.37 -0.34 3.74 0 0 Z " fill="#53504E" transform="translate(167,178)"/>
<path d="M0 0 C0.66 0 1.32 0 2 0 C1.67 3.3 1.34 6.6 1 10 C0.34 10 -0.32 10 -1 10 C-1.125 2.25 -1.125 2.25 0 0 Z " fill="#ECD7CB" transform="translate(172,126)"/>
<path d="M0 0 C0.33 0 0.66 0 1 0 C1 2.64 1 5.28 1 8 C-0.32 7.34 -1.64 6.68 -3 6 C-3 5.01 -3 4.02 -3 3 C-2.01 3 -1.02 3 0 3 C0 2.01 0 1.02 0 0 Z " fill="#3B3835" transform="translate(141,245)"/>
<path d="M0 0 C1.98567708 0.5859375 3.97135417 1.171875 5.95703125 1.7578125 C5.62703125 2.7478125 5.29703125 3.7378125 4.95703125 4.7578125 C1.65703125 3.7678125 -1.64296875 2.7778125 -5.04296875 1.7578125 C-2.04296875 -0.2421875 -2.04296875 -0.2421875 0 0 Z " fill="#FDD910" transform="translate(278.04296875,233.2421875)"/>
<path d="M0 0 C0.99 0.33 1.98 0.66 3 1 C3.125 4.375 3.125 4.375 3 8 C2.34 8.66 1.68 9.32 1 10 C1 9.01 1 8.02 1 7 C0.34 7 -0.32 7 -1 7 C-0.67 4.69 -0.34 2.38 0 0 Z " fill="#ECDBCD" transform="translate(132,176)"/>
<path d="M0 0 C0.66 0 1.32 0 2 0 C2.6875 2.3125 2.6875 2.3125 3 5 C1.5625 6.8125 1.5625 6.8125 0 8 C-0.66 6.02 -1.32 4.04 -2 2 C-1.34 1.34 -0.68 0.68 0 0 Z " fill="#F1DCCF" transform="translate(196,126)"/>
<path d="M0 0 C0.99 0.33 1.98 0.66 3 1 C2.75 2.875 2.75 2.875 2 5 C-0.0625 6.25 -0.0625 6.25 -2 7 C-1.42415568 4.61435923 -0.77772405 2.33317216 0 0 Z " fill="#514C47" transform="translate(212,111)"/>
<path d="M0 0 C2.125 0.9375 2.125 0.9375 4 2 C3.34 3.32 2.68 4.64 2 6 C0.68 5.34 -0.64 4.68 -2 4 C-2 3.01 -2 2.02 -2 1 C-1.34 0.67 -0.68 0.34 0 0 Z " fill="#FDD418" transform="translate(174,320)"/>
<path d="M0 0 C3.00617269 3.00617269 2.59585316 5.82381598 3 10 C2.34 10 1.68 10 1 10 C0.67 6.7 0.34 3.4 0 0 Z " fill="#452E2F" transform="translate(12,302)"/>
<path d="M0 0 C0.66 0.99 1.32 1.98 2 3 C-0.86177057 4.43088528 -2.93375773 3.59991697 -6 3 C-6.33 2.01 -6.66 1.02 -7 0 C-4.27584084 -1.36207958 -2.87220643 -0.86166193 0 0 Z " fill="#FD918E" transform="translate(270,220)"/>
<path d="M0 0 C0.66 0.33 1.32 0.66 2 1 C0.63016497 4.16115776 0.0109362 4.9927092 -3 7 C-3.33 6.01 -3.66 5.02 -4 4 C-2.68 2.68 -1.36 1.36 0 0 Z " fill="#F2DED2" transform="translate(174,216)"/>
<path d="M0 0 C0.33 0.99 0.66 1.98 1 3 C1.66 3 2.32 3 3 3 C2.67 4.98 2.34 6.96 2 9 C1.34 9 0.68 9 0 9 C0.33 7.68 0.66 6.36 1 5 C0.34 4.67 -0.32 4.34 -1 4 C-0.67 2.68 -0.34 1.36 0 0 Z " fill="#F3DCD0" transform="translate(144,185)"/>
<path d="M0 0 C1.65 1.32 3.3 2.64 5 4 C4.67 4.66 4.34 5.32 4 6 C2.68 5.34 1.36 4.68 0 4 C0 5.65 0 7.3 0 9 C-0.33 9 -0.66 9 -1 9 C-0.67 6.03 -0.34 3.06 0 0 Z " fill="#B451A7" transform="translate(274,178)"/>
<path d="M0 0 C0.33 0.66 0.66 1.32 1 2 C2.485 2.2475 2.485 2.2475 4 2.5 C5.485 2.7475 5.485 2.7475 7 3 C7.33 3.66 7.66 4.32 8 5 C3.82412255 6.39195915 1.86525224 4.82323219 -2 3 C-1.34 2.67 -0.68 2.34 0 2 C0 1.34 0 0.68 0 0 Z " fill="#F3DFD2" transform="translate(106,176)"/>
<path d="M0 0 C1.32 0.33 2.64 0.66 4 1 C4.33 2.65 4.66 4.3 5 6 C4.01 6.33 3.02 6.66 2 7 C1.34 4.69 0.68 2.38 0 0 Z " fill="#EFDACD" transform="translate(160,123)"/>
<path d="M0 0 C0.66 0.66 1.32 1.32 2 2 C1.625 4.125 1.625 4.125 1 6 C0.01 6 -0.98 6 -2 6 C-2 4.68 -2 3.36 -2 2 C-2.66 1.67 -3.32 1.34 -4 1 C-2.125 0.375 -2.125 0.375 0 0 Z " fill="#B5A69E" transform="translate(165,93)"/>
<path d="M0 0 C2.1519437 3.22791555 2.20086443 4.28400809 2 8 C1.34 8 0.68 8 0 8 C0 7.34 0 6.68 0 6 C-1.32 5.67 -2.64 5.34 -4 5 C-3.01 4.67 -2.02 4.34 -1 4 C-0.26676204 1.98491642 -0.26676204 1.98491642 0 0 Z " fill="#DAC8BF" transform="translate(164,237)"/>
<path d="M0 0 C2.64 0.99 5.28 1.98 8 3 C7.67 3.66 7.34 4.32 7 5 C4.69 5 2.38 5 0 5 C0 3.35 0 1.7 0 0 Z " fill="#4E4B48" transform="translate(152,183)"/>
<path d="M0 0 C0.33 0.66 0.66 1.32 1 2 C-0.98 4.97 -0.98 4.97 -3 8 C-3.99 7.67 -4.98 7.34 -6 7 C-5.34 6.01 -4.68 5.02 -4 4 C-3.34 4 -2.68 4 -2 4 C-1.34 2.68 -0.68 1.36 0 0 Z " fill="#FC99A7" transform="translate(6,132)"/>
<path d="M0 0 C2.125 0.375 2.125 0.375 4 1 C3.67 2.32 3.34 3.64 3 5 C1.35 4.01 -0.3 3.02 -2 2 C-1.34 1.34 -0.68 0.68 0 0 Z " fill="#B054B0" transform="translate(227,76)"/>
<path d="M0 0 C1.2065625 0.0309375 1.2065625 0.0309375 2.4375 0.0625 C-0.17764317 2.18288635 -2.75887616 4.19341744 -5.5625 6.0625 C-3.26136364 0.07954545 -3.26136364 0.07954545 0 0 Z " fill="#FCE01F" transform="translate(261.5625,221.9375)"/>
<path d="M0 0 C1.33333333 0 2.66666667 0 4 0 C4 1.98 4 3.96 4 6 C2.68 5.67 1.36 5.34 0 5 C0 3.35 0 1.7 0 0 Z " fill="#645F5C" transform="translate(179,173)"/>
<path d="M0 0 C0.99 0.33 1.98 0.66 3 1 C2.01 2.485 2.01 2.485 1 4 C0.67 3.67 0.34 3.34 0 3 C-0.66 4.65 -1.32 6.3 -2 8 C-2.66 7.34 -3.32 6.68 -4 6 C-2.68 4.02 -1.36 2.04 0 0 Z " fill="#534D47" transform="translate(212,164)"/>
<path d="M0 0 C1.32 0 2.64 0 4 0 C4.93065133 2.60582371 5.14917407 3.64198224 4.0625 6.25 C3.5365625 7.11625 3.5365625 7.11625 3 8 C0 2.25 0 2.25 0 0 Z " fill="#554F4C" transform="translate(138,160)"/>
<path d="M0 0 C0.99 0.33 1.98 0.66 3 1 C3 3.31 3 5.62 3 8 C0.9375 5.6875 0.9375 5.6875 -1 3 C-0.67 2.01 -0.34 1.02 0 0 Z " fill="#F3DED2" transform="translate(155,76)"/>
<path d="M0 0 C0.99 0.33 1.98 0.66 3 1 C3.6875 3.0625 3.6875 3.0625 4 5 C2.02 5.33 0.04 5.66 -2 6 C-1.67 5.38125 -1.34 4.7625 -1 4.125 C0.14193235 2.08981656 0.14193235 2.08981656 0 0 Z " fill="#EED9CC" transform="translate(170,73)"/>
</svg>
